<?xml version="1.0" standalone="no"?>
<!DOCTYPE svg PUBLIC "-//W3C//DTD SVG 1.1//EN" "http://www.w3.org/Graphics/SVG/1.1/DTD/svg11.dtd" >
<svg>
<metadata>
Created by FontForge 20090914 at Fri Aug 21 11:03:21 2015
 By www-data
</metadata>
<defs>
<font id="AmericanSans" horiz-adv-x="622" >
  <font-face 
    font-family="AmericanSans"
    font-weight="400"
    font-stretch="normal"
    units-per-em="1000"
    panose-1="2 0 0 0 0 0 0 0 0 0"
    ascent="750"
    descent="-250"
    x-height="494"
    cap-height="674"
    bbox="-120 -249 1159 913"
    underline-thickness="50"
    underline-position="-100"
    unicode-range="U+000D-U+FE6B"
  />
<missing-glyph horiz-adv-x="360" 
 />
    <glyph glyph-name="ff" unicode="ff" horiz-adv-x="619" 
d="M589 736c20 0 37 -1.33301 51 -4s23.667 -5 29 -7c-0.666992 -4.66699 -1.16699 -9.5 -1.5 -14.5s-0.833008 -9.83301 -1.5 -14.5c-0.666992 -5.33301 -1 -10.666 -1 -15.999c0 -8.66699 -3.33301 -13 -10 -13c-5.33301 0 -12.5 1.16699 -21.5 3.5s-22.167 3.5 -39.5 3.5
c-20.667 0 -38.167 -3.33301 -52.5 -10s-25.833 -15.834 -34.5 -27.501s-15 -25 -19 -40s-6 -30.833 -6 -47.5v-55h135v-63h-135v-431h-74v431h-237v-431h-74v431h-87v63h87v52c0 61.333 16.5 108.333 49.5 141s77.167 49 132.5 49c19.333 0 36 -1.33301 50 -4
s23.667 -5 29 -7c-0.666992 -4.66699 -1.16699 -9.5 -1.5 -14.5s-0.833008 -9.83301 -1.5 -14.5c-0.666992 -5.33301 -1 -10.666 -1 -15.999c0 -8.66699 -3.33301 -13 -10 -13c-5.33301 0 -12.5 1.16699 -21.5 3.5s-22.167 3.5 -39.5 3.5c-20.667 0 -38 -3.33301 -52 -10
s-25.5 -15.834 -34.5 -27.501s-15.5 -25 -19.5 -40s-6 -30.833 -6 -47.5v-55h237v52c0 61.333 16.5 108.333 49.5 141s76.833 49 131.5 49z" />
    <glyph glyph-name="fi" unicode="fi" horiz-adv-x="533" 
d="M453 494v-493.999h-74v431h-208v-431h-74v431h-87v63h87v52c0 61.333 15.833 108.333 47.5 141s77.5 49 137.5 49c34.667 0 62 -2.83301 82 -8.5s34 -9.83398 42 -12.501c0 -3.33301 -0.166992 -7.5 -0.5 -12.5s-0.833008 -10.167 -1.5 -15.5
c-0.666992 -6 -1.33398 -11.667 -2.00098 -17c0 -9.33301 -3.33301 -14 -10 -14c-4.66699 0 -10.167 1 -16.5 3s-13.666 4 -21.999 6s-18.333 4 -30 6s-25.167 3 -40.5 3c-39.333 0 -67.833 -11.833 -85.5 -35.5s-26.5 -53.5 -26.5 -89.5v-55h282z" />
    <glyph glyph-name="fl" unicode="fl" horiz-adv-x="543" 
d="M290 736c46 0 83.668 -2.83203 113.001 -8.49902s46 -9.16699 50 -10.5v-717h-74v663c-4 1.33301 -14.333 3.5 -31 6.5s-34.667 4.5 -54 4.5c-23.333 0 -42.833 -3.33301 -58.5 -10s-28.334 -15.834 -38.001 -27.501s-16.5 -25 -20.5 -40s-6 -30.833 -6 -47.5v-55h113
v-63h-113v-431h-74v431h-87v63h87v52c0 61.333 16.167 108.333 48.5 141s80.5 49 144.5 49z" />
    <glyph glyph-name="ffi" unicode="ffi" horiz-adv-x="848" 
d="M768 494l0.000976562 -493.998h-74v431h-208v-431h-74v431h-237v-431h-74v431h-86v63h86v52c0 61.333 16.667 108.333 50 141s77.333 49 132 49c20 0 36.833 -1.33301 50.5 -4s23.167 -5 28.5 -7c-0.666992 -4.66699 -1 -9.66699 -1 -15
c0 -4.66699 -0.333008 -9.33398 -1 -14.001c-0.666992 -5.33301 -1 -10.666 -1 -15.999c-0.666992 -8.66699 -4.33398 -13 -11.001 -13c-5.33301 0 -12.5 1.16699 -21.5 3.5s-22.167 3.5 -39.5 3.5c-20.667 0 -38 -3.33301 -52 -10s-25.5 -15.834 -34.5 -27.501
s-15.5 -25 -19.5 -40s-6 -30.833 -6 -47.5v-55h237v52c0 61.333 15.833 108.333 47.5 141s77.5 49 137.5 49c34.667 0 62 -2.83301 82 -8.5s34 -9.83398 42 -12.501c0 -3.33301 -0.166992 -7.5 -0.5 -12.5s-0.833008 -10.167 -1.5 -15.5
c-0.666992 -6 -1.33398 -11.667 -2.00098 -17c0 -9.33301 -3.33301 -14 -10 -14c-4.66699 0 -10.167 1 -16.5 3s-13.666 4 -21.999 6s-18.333 4 -30 6s-25.167 3 -40.5 3c-39.333 0 -67.833 -11.833 -85.5 -35.5s-26.5 -53.5 -26.5 -89.5v-55h282z" />
    <glyph glyph-name="ffl" unicode="ffl" horiz-adv-x="854" 
d="M596 736c23.333 0 44.833 -0.831055 64.5 -2.49805s36.834 -3.66699 51.501 -6s26.5 -4.5 35.5 -6.5s14.5 -3.33301 16.5 -4v-717h-74v663c-2 0.666992 -5.83301 1.66699 -11.5 3s-12.667 2.5 -21 3.5s-17.5 2 -27.5 3s-19.667 1.5 -29 1.5
c-22.667 0 -41.5 -3.33301 -56.5 -10s-27.167 -15.834 -36.5 -27.501s-16 -25 -20 -40s-6 -30.833 -6 -47.5v-55h113v-63h-113v-431h-74v431h-238v-431h-74v431h-86v63h86v52c0 61.333 16.667 108.333 50 141s77.333 49 132 49c20 0 36.833 -1.33301 50.5 -4
s23.167 -5 28.5 -7c-0.666992 -4.66699 -1 -9.66699 -1 -15c0 -4.66699 -0.333008 -9.33398 -1 -14.001c-0.666992 -5.33301 -1 -10.666 -1 -15.999c-0.666992 -8.66699 -4.33398 -13 -11.001 -13c-5.33301 0 -12.5 1.16699 -21.5 3.5s-22.167 3.5 -39.5 3.5
c-20.667 0 -38 -3.33301 -52 -10s-25.5 -15.834 -34.5 -27.501s-15.5 -25 -19.5 -40s-6 -30.833 -6 -47.5v-55h238v52c0 61.333 16 108.333 48 141s78.667 49 140 49z" />
    <glyph glyph-name=".notdef" horiz-adv-x="360" 
 />
    <glyph glyph-name=".null" horiz-adv-x="0" 
 />
    <glyph glyph-name=".null" horiz-adv-x="0" 
 />
    <glyph glyph-name="nonmarkingreturn" unicode="&#xd;" horiz-adv-x="360" 
 />
    <glyph glyph-name="space" unicode=" " horiz-adv-x="230" 
 />
    <glyph glyph-name="exclam" unicode="!" horiz-adv-x="302" 
d="M104 674h80l-11 -476h-58zM104 78h78v-78h-78v78z" />
    <glyph glyph-name="quotedbl" unicode="&#x22;" horiz-adv-x="325" 
d="M265 674l-21 -180h-37l-21 180h79zM81 494l-21 180h79l-21 -180h-37v0z" />
    <glyph glyph-name="numbersign" unicode="#" 
d="M584 439h-123l-22 -202h117v-62h-123l-19 -175h-68l18 175h-143l-19 -175h-68l18 175h-115v62h121l22 202h-115v61h122l19 175h68l-19 -175h144l19 175h68l-18 -175h116v-61v0zM371 237l22 202h-144l-22 -202h144v0z" />
    <glyph glyph-name="dollar" unicode="$" horiz-adv-x="511" 
d="M293 372c18.667 -8 37.3301 -17.332 55.9971 -27.999s35.5 -23.5 50.5 -38.5s27.333 -32.667 37 -53s14.5 -43.5 14.5 -69.5c0 -40.667 -12.167 -77.5 -36.5 -110.5s-60.166 -56.167 -107.499 -69.5v-108h-77v96c-3.33301 0 -6.16602 -0.166992 -8.49902 -0.5
s-5.16602 -0.5 -8.49902 -0.5c-14 0 -28.5 0.5 -43.5 1.5s-29 2.33301 -42 4s-24.833 3.33398 -35.5 5.00098s-18.667 3.5 -24 5.5l4 74c9.33301 -3.33301 25.833 -8 49.5 -14s51.834 -9 84.501 -9c53.333 0 94.333 11 123 33s43 51.667 43 89
c0 17.333 -3.33301 32.333 -10 45s-15.334 24 -26.001 34s-23 18.5 -37 25.5s-28 13.5 -42 19.5l-64 27c-18.667 8 -36 17 -52 27s-30 22 -42 36s-21.5 30.167 -28.5 48.5s-10.5 39.166 -10.5 62.499c0 44 13.833 81.833 41.5 113.5s70.5 52.167 128.5 61.5v84h77v-79
c12.667 0 25.167 -0.666992 37.5 -2s23.666 -2.66602 33.999 -3.99902s19.333 -2.83301 27 -4.5s13.167 -2.83398 16.5 -3.50098l-6 -71c-8 3.33301 -23.167 7.16602 -45.5 11.499s-47.166 6.5 -74.499 6.5c-46.667 0 -84.667 -9 -114 -27s-44 -45.667 -44 -83
c0 -28 8.83301 -50.5 26.5 -67.5s38.167 -30.167 61.5 -39.5l67 -28v0z" />
    <glyph glyph-name="percent" unicode="%" horiz-adv-x="847" 
d="M585 674h77l-403 -674h-77zM60 524c0 23.333 3.00195 45.332 9.00195 65.999s15.5 38.667 28.5 54s29.667 27.333 50 36s45.166 13 74.499 13c54 0 94.333 -15.5 121 -46.5s40 -71.833 40 -122.5c0 -23.333 -3.16699 -45.166 -9.5 -65.499s-16 -38.166 -29 -53.499
s-29.667 -27.333 -50 -36s-44.5 -13 -72.5 -13c-52.667 0 -92.834 14.667 -120.501 44s-41.5 70.666 -41.5 123.999zM222.002 641.999c-32 0 -55.501 -11.001 -70.501 -33.001s-22.5 -50.333 -22.5 -85c0 -37.333 7.83301 -66.166 23.5 -86.499s38.834 -30.5 69.501 -30.5
c30 0 52.833 10.5 68.5 31.5s23.5 49.5 23.5 85.5c0 34.667 -7.5 63 -22.5 85s-38.167 33 -69.5 33zM464.001 158.998c0 23.333 3.00195 45.3311 9.00195 65.998s15.5 38.667 28.5 54s29.667 27.333 50 36s45.166 13 74.499 13c54 0 94.333 -15.667 121 -47s40 -72 40 -122
c0 -23.333 -3.16699 -45.166 -9.5 -65.499s-16 -38.166 -29 -53.499s-29.667 -27.5 -50 -36.5s-44.5 -13.5 -72.5 -13.5c-52.667 0 -92.834 14.667 -120.501 44s-41.5 71 -41.5 125zM626.003 275.996c-32 0 -55.5 -10.832 -70.5 -32.499s-22.5 -50.167 -22.5 -85.5
c0 -36.667 8 -65.334 24 -86.001s39 -31 69 -31s52.833 10.5 68.5 31.5s23.5 49.5 23.5 85.5c0 35.333 -7.5 63.833 -22.5 85.5s-38.167 32.5 -69.5 32.5z" />
    <glyph glyph-name="ampersand" unicode="&#x26;" horiz-adv-x="726" 
d="M284 684c54.667 0 96.334 -12.1621 125.001 -36.4951s43 -56.5 43 -96.5c0 -22.667 -5.5 -43.334 -16.5 -62.001s-24.333 -35.334 -40 -50.001s-31.667 -27.167 -48 -37.5s-29.5 -19.166 -39.5 -26.499l42.5 -47.5l51.5 -54.5l55 -55
c18.667 -18 36.334 -33.667 53.001 -47c16.667 27.333 30.5 60 41.5 98s16.5 78.667 16.5 122h79c0 -28 -2.33301 -55 -7 -81s-11 -50.333 -19 -73s-17 -43.334 -27 -62.001s-20.333 -34.667 -31 -48c5.33301 -4.66699 14.166 -12 26.499 -22l37.5 -29l47 -36l-60 -53
c-14.667 11.333 -28.334 22.666 -41.001 33.999l-33 28.5c-10.667 9.66699 -19.334 17.167 -26.001 22.5l-21 -17c-10.667 -8.66699 -25.5 -17.834 -44.5 -27.501s-42 -18.334 -69 -26.001s-58.5 -11.5 -94.5 -11.5c-24 0 -48.5 3.5 -73.5 10.5s-47.5 18.167 -67.5 33.5
s-36.333 35.166 -49 59.499s-19 53.833 -19 88.5c0 28 4.66699 52.667 14 74s20.666 40 33.999 56s27.833 29.667 43.5 41l42.5 30l-25.5 30.5c-9 11 -17.333 23 -25 36s-14.167 26.833 -19.5 41.5s-8 30.334 -8 47.001c0 22 3.83301 41.833 11.5 59.5s18.334 33 32.001 46
s29.834 23 48.501 30s38.667 10.5 60 10.5zM374 547.005c0 8 -1.66602 16.166 -4.99902 24.499s-8.5 15.833 -15.5 22.5s-15.667 12.167 -26 16.5s-22.833 6.5 -37.5 6.5c-25.333 0 -45.5 -7.16699 -60.5 -21.5s-22.5 -31.166 -22.5 -50.499c0 -12 2 -23.667 6 -35
s9 -22.333 15 -33s12.667 -20.667 20 -30l21 -27l34.5 22c12.333 8 23.666 17.167 33.999 27.5s19 21.833 26 34.5s10.5 27 10.5 43zM251.001 337.004c-4 -3.33301 -11.166 -9.00098 -21.499 -17.001s-21 -18.167 -32 -30.5s-20.833 -27.166 -29.5 -44.499s-13 -37 -13 -59
c0 -38.667 14 -70 42 -94s65.333 -36 112 -36c22 0 41.667 2.33301 59 7s32.333 10.167 45 16.5s23.167 12.833 31.5 19.5l19.5 16c-14.667 12.667 -30.834 27.667 -48.501 45l-54.5 55.5l-56 60.5z" />
    <glyph glyph-name="quotesingle" unicode="'" horiz-adv-x="198" 
d="M60 674h78l-20 -180h-38l-20 180v0z" />
    <glyph glyph-name="parenleft" unicode="(" horiz-adv-x="365" 
d="M305 674c-11.333 -20 -23.666 -45.668 -36.999 -77.001s-25.833 -66.666 -37.5 -105.999s-21.334 -81.833 -29.001 -127.5s-11.5 -93.167 -11.5 -142.5s3.83301 -96.833 11.5 -142.5s17.334 -88 29.001 -127s24.167 -74 37.5 -105s25.666 -56.833 36.999 -77.5h-63
c-12.667 20 -26.834 45.167 -42.501 75.5s-30 64.833 -43 103.5s-24 81 -33 127s-13.5 94.667 -13.5 146c0 52 4.5 101 13.5 147s20 88.333 33 127s27.333 73.167 43 103.5s29.834 55.5 42.501 75.5h63z" />
    <glyph glyph-name="parenright" unicode=")" horiz-adv-x="365" 
d="M123 674c13.333 -20 27.666 -45.166 42.999 -75.499s29.5 -64.833 42.5 -103.5s24 -81 33 -127s13.5 -95 13.5 -147c0 -51.333 -4.5 -100 -13.5 -146s-20 -88.333 -33 -127s-27.167 -73.167 -42.5 -103.5s-29.666 -55.5 -42.999 -75.5h-63
c11.333 20.667 23.833 46.5 37.5 77.5s26.167 66 37.5 105s20.833 81.333 28.5 127s11.5 93.167 11.5 142.5s-3.83301 96.833 -11.5 142.5s-17.167 88.167 -28.5 127.5s-23.833 74.666 -37.5 105.999s-26.167 57 -37.5 77h63z" />
    <glyph glyph-name="asterisk" unicode="*" horiz-adv-x="395" 
d="M335 554l-111 -25l77 -83l-47 -33l-57 99l-56 -99l-46 33l76 86l-111 22l18 54l105 -46l-14 112h57l-11 -113l103 47l17 -54v0z" />
    <glyph glyph-name="plus" unicode="+" 
d="M353 333h214v-62h-214v-216h-77v216h-221v62h221v216h77v-216v0z" />
    <glyph glyph-name="comma" unicode="," horiz-adv-x="206" 
d="M68 78l77.998 -0.000976562v-78c0 -12 -2.5 -23.167 -7.5 -33.5s-11.167 -19.833 -18.5 -28.5s-15.166 -16.167 -23.499 -22.5s-16.166 -11.166 -23.499 -14.499l-13 18c11.333 7.33301 21.833 17.833 31.5 31.5s14.5 30.167 14.5 49.5h-38v78z" />
    <glyph glyph-name="hyphen" unicode="-" horiz-adv-x="401" 
d="M321 211h-241v62h241v-62v0z" />
    <glyph glyph-name="period" unicode="." horiz-adv-x="198" 
d="M60 78h78v-78h-78v78z" />
    <glyph glyph-name="slash" unicode="/" horiz-adv-x="402" 
d="M100 0h-72l257 674h72l-257 -674v0z" />
    <glyph glyph-name="zero" unicode="0" 
d="M311 -10c-44 0 -81.666 9.16797 -112.999 27.501s-57.333 43.333 -78 75s-35.834 68.5 -45.501 110.5s-14.5 86.667 -14.5 134c0 43.333 4.5 85.666 13.5 126.999s23.333 78.333 43 111s45.5 59 77.5 79s71 30 117 30c43.333 0 80.833 -9.33301 112.5 -28
s57.667 -43.834 78 -75.501s35.5 -68.5 45.5 -110.5s15 -86.333 15 -133c0 -48.667 -5.16699 -94.167 -15.5 -136.5s-26 -79.166 -47 -110.499s-47.167 -55.833 -78.5 -73.5s-68 -26.5 -110 -26.5zM483.001 337.001c0 40 -3.16504 77.167 -9.49805 111.5s-16.5 64 -30.5 89
s-31.833 44.5 -53.5 58.5s-48.167 21 -79.5 21c-26.667 0 -49.334 -5 -68.001 -15s-34.5 -23 -47.5 -39s-23.333 -34.167 -31 -54.5s-13.334 -41 -17.001 -62s-6.16699 -41 -7.5 -60s-2 -35.5 -2 -49.5c0 -89.333 14.667 -158.333 44 -207s72.333 -73 129 -73
c30.667 0 57 7 79 21s40 33.5 54 58.5s24.167 54.667 30.5 89s9.5 71.5 9.5 111.5z" />
    <glyph glyph-name="one" unicode="1" horiz-adv-x="351" 
d="M175 0l-0.000976562 592.001c-16 -8.66699 -36.833 -17.5 -62.5 -26.5s-56.167 -15.5 -91.5 -19.5l-11 55c18 2 35.667 5.66699 53 11s33.5 11.666 48.5 18.999s28.333 15.5 40 24.5s20.834 18.5 27.501 28.5h72v-684h-76z" />
    <glyph glyph-name="two" unicode="2" horiz-adv-x="470" 
d="M26 67l77.999 83.999l30 32.5l28 30.5l22.5 24.5c6.33301 7 10.833 11.833 13.5 14.5l56.5 68.5c15.667 19.667 28.5 38 38.5 55s17.333 33.833 22 50.5s7 35.334 7 56.001c0 17.333 -3.16699 34 -9.5 50s-15.5 30.333 -27.5 43s-26.833 22.667 -44.5 30
s-38.167 11 -61.5 11c-16 0 -31.167 -1.66699 -45.5 -5s-27.166 -7.16602 -38.499 -11.499s-21 -8.66602 -29 -12.999s-14 -7.83301 -18 -10.5l-28 63c1.33301 0.666992 6 3.33398 14 8.00098s18.833 9.66699 32.5 15s30 10.166 49 14.499s40.167 6.5 63.5 6.5
c37.333 0 70 -5.83301 98 -17.5s51.333 -26.834 70 -45.501s32.5 -40 41.5 -64s13.5 -48 13.5 -72c0 -22.667 -3.33301 -44.5 -10 -65.5s-15.667 -41.667 -27 -62s-24.5 -40.333 -39.5 -60s-31.167 -39.834 -48.5 -60.501c-7.33301 -9.33301 -19.5 -23.5 -36.5 -42.5
l-51.5 -57.5l-64 -73h285v-64h-384v67v0z" />
    <glyph glyph-name="three" unicode="3" horiz-adv-x="460" 
d="M40 653c13.333 5.33301 32 11.8301 56 19.4971s55 11.5 93 11.5c32 0 60.333 -4.5 85 -13.5s45.5 -21.5 62.5 -37.5s30 -34.833 39 -56.5s13.5 -44.834 13.5 -69.501c0 -26 -4.83301 -48.333 -14.5 -67s-20.834 -34.167 -33.501 -46.5s-25.5 -21.833 -38.5 -28.5
s-23.167 -11.667 -30.5 -15v-3c10 -1.33301 22.333 -5.33301 37 -12s28.834 -16.667 42.501 -30s25.167 -30.166 34.5 -50.499s14 -45.166 14 -74.499c0 -27.333 -6.16699 -52.666 -18.5 -75.999s-29.5 -43.5 -51.5 -60.5s-48.5 -30.167 -79.5 -39.5s-65.167 -14 -102.5 -14
c-27.333 0 -49 1.16699 -65 3.5s-25.667 4.16602 -29 5.49902l-6 66c7.33301 -1.33301 19.333 -3.16602 36 -5.49902s36.667 -3.5 60 -3.5c29.333 0 55 3.5 77 10.5s40.5 16.333 55.5 28s26.167 25.5 33.5 41.5s11 33 11 51c0 15.333 -3 30.666 -9 45.999s-15.333 29 -28 41
s-28.834 21.833 -48.501 29.5s-43.167 11.5 -70.5 11.5h-67v62h64c21.333 0 41 3.16699 59 9.5s33.5 14.833 46.5 25.5s23.333 23.334 31 38.001s11.5 30.334 11.5 47.001c0 14.667 -2.5 29 -7.5 43s-13 26.667 -24 38s-25.167 20.5 -42.5 27.5s-38.666 10.5 -63.999 10.5
c-12.667 0 -25.334 -1.33301 -38.001 -4s-24.167 -5.66699 -34.5 -9s-19.166 -6.5 -26.499 -9.5s-12 -5.16699 -14 -6.5l-19 66v0z" />
    <glyph glyph-name="four" unicode="4" horiz-adv-x="592" 
d="M353 248v353h-4l-234 -353h238v0zM353 186h-294l-19 70l280 418h109v-426h123v-62h-123v-186h-76v186v0z" />
    <glyph glyph-name="five" unicode="5" horiz-adv-x="513" 
d="M177 404c2 0.666992 8.50195 1.66797 19.502 3.00098s24.167 2 39.5 2c33.333 0 63.333 -5.33301 90 -16s49.5 -25.167 68.5 -43.5s33.5 -39.833 43.5 -64.5s15 -51 15 -79c0 -32 -5.66699 -61.167 -17 -87.5s-28.166 -49 -50.499 -68s-50.666 -33.833 -84.999 -44.5
s-74.5 -16 -120.5 -16c-10 0 -20.167 0.333008 -30.5 1s-20 1.5 -29 2.5s-16.833 2 -23.5 3s-11 1.83301 -13 2.5l-4 69c5.33301 -1.33301 16.5 -3.5 33.5 -6.5s37.5 -4.5 61.5 -4.5c27.333 0 53 2.66699 77 8s45 14 63 26s32.333 27.667 43 47s16 42.666 16 69.999
c0 18.667 -3.66699 36.667 -11 54s-18.833 32.5 -34.5 45.5s-35.334 23.5 -59.001 31.5s-51.834 12 -84.501 12c-14.667 0 -30.834 -1.33301 -48.501 -4s-29.834 -4.66699 -36.501 -6v333h328v-62h-251v-208z" />
    <glyph glyph-name="six" unicode="6" horiz-adv-x="596" 
d="M144 209c0 -22.667 4 -43.333 12 -62s19 -34.667 33 -48s30.5 -23.5 49.5 -30.5s39.5 -10.5 61.5 -10.5c22.667 0 43.5 3.83301 62.5 11.5s35.5 18.334 49.5 32.001s24.833 29.667 32.5 48s11.5 38.166 11.5 59.499c0 23.333 -4 44.333 -12 63s-19 34.5 -33 47.5
s-30.5 23.167 -49.5 30.5s-39.5 11 -61.5 11c-21.333 0 -41.5 -3.5 -60.5 -10.5s-35.5 -17 -49.5 -30s-25.167 -29 -33.5 -48s-12.5 -40.167 -12.5 -63.5zM309 429.001c34.667 0 65.9912 -5.00098 93.9912 -15.001s51.833 -24.333 71.5 -43s34.834 -41.167 45.501 -67.5
s16 -56.166 16 -89.499c0 -10 -1.16699 -22.5 -3.5 -37.5s-6.5 -30.833 -12.5 -47.5s-14.5 -33.334 -25.5 -50.001s-25.167 -31.5 -42.5 -44.5s-38.166 -23.667 -62.499 -32s-53.166 -12.5 -86.499 -12.5c-35.333 0 -65.833 4.5 -91.5 13.5s-47.5 21 -65.5 36
s-32.667 32.333 -44 52s-20 40.167 -26 61.5s-10.167 42.666 -12.5 63.999s-3.5 41.333 -3.5 60c0 72 8.83301 133.667 26.5 185s41.334 93.5 71.001 126.5s64.334 57.167 104.001 72.5s81.5 23 125.5 23c24.667 0 45.334 -1.16699 62.001 -3.5
s28.334 -4.16602 35.001 -5.49902l-9 -69c-5.33301 1.33301 -16.5 3.5 -33.5 6.5s-37.167 4.5 -60.5 4.5c-44 0 -80.833 -9.5 -110.5 -28.5s-53.5 -41.667 -71.5 -68s-30.667 -53.666 -38 -81.999s-11 -51.5 -11 -69.5l3 -1c2 2 6.66699 6.33301 14 13s17.333 13.5 30 20.5
s28.334 13.333 47.001 19s40.334 8.5 65.001 8.5z" />
    <glyph glyph-name="seven" unicode="7" horiz-adv-x="427" 
d="M96 0c8 46 20.834 96.335 38.501 151.002s37.5 109.667 59.5 165s45.333 108.666 70 159.999s48 96.666 70 135.999h-334v62h407v-66c-22.667 -38.667 -45.334 -81.5 -68.001 -128.5s-44.167 -96.5 -64.5 -148.5s-39 -105.833 -56 -161.5s-31.5 -112.167 -43.5 -169.5
h-79v0z" />
    <glyph glyph-name="eight" unicode="8" horiz-adv-x="550" 
d="M276 384l36.501 25c13.667 9.33301 26.667 19.833 39 31.5s22.666 24.167 30.999 37.5s12.5 28 12.5 44c0 30.667 -11.333 54.334 -34 71.001s-52 25 -88 25s-65.667 -9 -89 -27s-35 -40 -35 -66c0 -16.667 3 -31.334 9 -44.001s14.5 -24.5 25.5 -35.5
s24.333 -21.5 40 -31.5s33.167 -20 52.5 -30zM410.001 160c0 28 -11.001 53.833 -33.001 77.5s-59.667 48.5 -113 74.5c-9.33301 -4.66699 -21.166 -11.334 -35.499 -20.001s-28.166 -19.167 -41.499 -31.5s-24.666 -26.666 -33.999 -42.999s-14 -34.833 -14 -55.5
c0 -16 3.66699 -30.333 11 -43s17.5 -23.667 30.5 -33s28.167 -16.5 45.5 -21.5s35.666 -7.5 54.999 -7.5s36.833 2.83301 52.5 8.5s29.167 13.334 40.5 23.001s20.166 20.667 26.499 33s9.5 25.166 9.5 38.499zM60 162c0 26.667 5.33301 50.335 16 71.002
s23.334 38.667 38.001 54s29.334 28 44.001 38s26 17.333 34 22c-10.667 6 -23 13.667 -37 23s-27.333 20.666 -40 33.999s-23.334 28.666 -32.001 45.999s-13 37.333 -13 60c0 25.333 4.66699 48.666 14 69.999s22.833 39.666 40.5 54.999s39.167 27.333 64.5 36
s54 13 86 13c38 0 69.833 -4.66699 95.5 -14s46.167 -21.333 61.5 -36s26.166 -31.167 32.499 -49.5s9.5 -36.5 9.5 -54.5c0 -35.333 -9.5 -67.166 -28.5 -95.499s-52.167 -56.166 -99.5 -83.499c46 -24.667 81.5 -50.667 106.5 -78s37.5 -60 37.5 -98
c0 -24.667 -5 -48.167 -15 -70.5s-24.667 -42 -44 -59s-43 -30.5 -71 -40.5s-60.333 -15 -97 -15c-28 0 -54.333 3.66699 -79 11s-46.167 18.333 -64.5 33s-32.833 32.667 -43.5 54s-16 46 -16 74z" />
    <glyph glyph-name="nine" unicode="9" horiz-adv-x="597" 
d="M453 465c0 23.333 -4 44.334 -12 63.001s-19 34.5 -33 47.5s-30.5 23.167 -49.5 30.5s-39.5 11 -61.5 11c-22.667 0 -43.5 -3.83301 -62.5 -11.5s-35.5 -18.334 -49.5 -32.001s-24.833 -29.667 -32.5 -48s-11.5 -38.5 -11.5 -60.5c0 -22.667 4 -43.5 12 -62.5
s19 -35 33 -48s30.5 -23.167 49.5 -30.5s39.5 -11 61.5 -11c21.333 0 41.5 3.5 60.5 10.5s35.5 17.167 49.5 30.5s25.167 29.333 33.5 48s12.5 39.667 12.5 63zM287 246.001c-34 0 -64.9951 5 -92.9951 15s-52 24.333 -72 43s-35.333 41.167 -46 67.5s-16 55.833 -16 88.5
c0 10 1.16699 22.667 3.5 38s6.66602 31.333 12.999 48s15 33.167 26 49.5s25.167 31 42.5 44s38.166 23.667 62.499 32s53.166 12.5 86.499 12.5c53.333 0 95.833 -9.66699 127.5 -29s56.167 -43.5 73.5 -72.5s28.666 -60.167 33.999 -93.5s8 -63.666 8 -90.999
c0 -72 -8.83301 -133.833 -26.5 -185.5s-41.5 -94 -71.5 -127s-64.667 -57.167 -104 -72.5s-81 -23 -125 -23c-25.333 0 -46.333 1.33301 -63 4s-28.334 4.66699 -35.001 6l10 68c5.33301 -1.33301 16.333 -3.5 33 -6.5s36.667 -4.5 60 -4.5
c44.667 0 81.834 9.5 111.501 28.5s53.5 41.667 71.5 68s30.667 53.666 38 81.999s11 51.5 11 69.5l-3 2c-2 -2 -6.66699 -6.33301 -14 -13s-17.5 -13.5 -30.5 -20.5s-28.833 -13.333 -47.5 -19s-40.334 -8.5 -65.001 -8.5z" />
    <glyph glyph-name="colon" unicode=":" horiz-adv-x="198" 
d="M60 78h78v-78h-78v78zM60 380h78v-78h-78v78z" />
    <glyph glyph-name="semicolon" unicode=";" horiz-adv-x="206" 
d="M68 380h78v-78h-78v78zM68 78l77.998 -0.000976562v-78c0 -12 -2.5 -23.167 -7.5 -33.5s-11.167 -19.833 -18.5 -28.5s-15.166 -16.167 -23.499 -22.5s-16.166 -11.166 -23.499 -14.499l-13 18c11.333 7.33301 21.833 17.833 31.5 31.5s14.5 30.167 14.5 49.5h-38v78z
" />
    <glyph glyph-name="less" unicode="&#x3c;" horiz-adv-x="431" 
d="M152 246l238 -231l-54 -50l-296 282l296 278l55 -53z" />
    <glyph glyph-name="equal" unicode="=" 
d="M54 375v61h514v-61h-514zM568 232v-62h-514v62h514v0z" />
    <glyph glyph-name="greater" unicode="&#x3e;" horiz-adv-x="431" 
d="M40 472l55 53l296 -278l-296 -282l-54 50l238 231z" />
    <glyph glyph-name="question" unicode="?" horiz-adv-x="458" 
d="M89 664c11.333 4 29.168 8.33301 53.501 13s51.166 7 80.499 7c33.333 0 62.166 -4.66699 86.499 -14s44.5 -21.666 60.5 -36.999s28 -32.5 36 -51.5s12 -38.5 12 -58.5c0 -20.667 -2.5 -39.167 -7.5 -55.5s-11.667 -31 -20 -44s-17.666 -25.167 -27.999 -36.5l-30.5 -33
c-10.667 -10.667 -20.5 -21 -29.5 -31s-17 -20.333 -24 -31s-12.5 -22 -16.5 -34s-6 -25.667 -6 -41v-20h-77v20c0 23.333 2.83301 44.166 8.5 62.499s12.667 34.666 21 48.999s17 26.666 26 36.999s16.833 18.833 23.5 25.5l29.5 28.5c9.66699 9 18.334 18.333 26.001 28
s13.834 20.334 18.501 32.001s7 24.834 7 39.501c0 27.333 -11.833 50.5 -35.5 69.5s-60.167 28.5 -109.5 28.5c-10.667 0 -21.834 -0.833008 -33.501 -2.5s-22.834 -3.66699 -33.501 -6s-20.167 -4.83301 -28.5 -7.5l-18.5 -6zM183.002 78h78v-78h-78v78z" />
    <glyph glyph-name="at" unicode="@" horiz-adv-x="897" 
d="M482 684c54.667 0 101.997 -8.00195 141.997 -24.002s73 -36.833 99 -62.5s45.167 -54.667 57.5 -87s18.5 -65.166 18.5 -98.499c0 -37.333 -5.83301 -70.666 -17.5 -99.999s-27 -54 -46 -74s-40.833 -35.333 -65.5 -46s-50.334 -16 -77.001 -16
c-18 0 -33 2.16699 -45 6.5s-21.833 10 -29.5 17s-13.334 14.667 -17.001 23s-6.16699 16.5 -7.5 24.5h-3c-2.66699 -5.33301 -7.16699 -12 -13.5 -20s-14.166 -15.667 -23.499 -23s-20.5 -13.666 -33.5 -18.999s-27.5 -8 -43.5 -8c-14.667 0 -29.167 2.5 -43.5 7.5
s-26.833 12.667 -37.5 23s-19.334 23.666 -26.001 39.999s-10 35.833 -10 58.5c0 30 5.66699 58.5 17 85.5s27 50.5 47 70.5s43.333 36 70 48s55.334 18 86.001 18c27.333 0 50.833 -2.83301 70.5 -8.5s32.167 -9.16699 37.5 -10.5l-17 -92l-13 -69l-8 -44
c-1.33301 -6 -2.66602 -13.167 -3.99902 -21.5s-2 -16.166 -2 -23.499c0 -12 3.83301 -22.833 11.5 -32.5s19.5 -14.5 35.5 -14.5s32.333 4.5 49 13.5s31.834 22 45.501 39s24.834 38 33.501 63s13 53.5 13 85.5c0 35.333 -6 67.5 -18 96.5s-29 54 -51 75
s-48.5 37.333 -79.5 49s-65.167 17.5 -102.5 17.5c-44.667 0 -87.334 -7.83301 -128.001 -23.5s-76.5 -37.834 -107.5 -66.501s-55.667 -63.334 -74 -104.001s-27.5 -85.667 -27.5 -135c0 -40 6.83301 -77.833 20.5 -113.5s33 -67.167 58 -94.5s55 -49 90 -65
s73.833 -24 116.5 -24c20 0 38.833 1.83301 56.5 5.5s33.334 7.83398 47.001 12.501s25.334 9.33398 35.001 14.001l20.5 10l-10 -53c-10.667 -3.33301 -30 -8.16602 -58 -14.499s-63.333 -9.5 -106 -9.5c-44 0 -86.333 6.83301 -127 20.5s-76.5 34.167 -107.5 61.5
s-55.833 62 -74.5 104s-28 91 -28 147c0 55.333 11.667 105.166 35 149.499s54 82.166 92 113.499s81.167 55.5 129.5 72.5s97.833 25.5 148.5 25.5zM470.997 479.998c-16 0 -32.165 -4.16797 -48.498 -12.501s-31.166 -20.166 -44.499 -35.499s-24.333 -33.833 -33 -55.5
s-13 -46.167 -13 -73.5c0 -24.667 5.16699 -43.667 15.5 -57s24.166 -20 41.499 -20c15.333 0 28.666 3.33301 39.999 10s21 15.5 29 26.5s14.667 23.5 20 37.5s9.33301 28.667 12 44c1.33301 8 3.33301 19.167 6 33.5s5.66699 28.5 9 42.5l10 52
c-2.66699 1.33301 -7.83398 3 -15.501 5s-17.167 3 -28.5 3z" />
    <glyph glyph-name="A" unicode="A" horiz-adv-x="604" 
d="M342 674l252 -674h-86l-59 165h-300l-60 -165h-79l254 674h78zM171 227h256l-128 356h-2z" />
    <glyph glyph-name="B" unicode="B" horiz-adv-x="578" 
d="M297 674c41.333 0 75.6641 -5.50098 102.997 -16.501s49.5 -25 66.5 -42s29 -35.5 36 -55.5s10.5 -39.333 10.5 -58c0 -25.333 -5.16699 -47 -15.5 -65s-22.166 -33 -35.499 -45s-26.166 -21 -38.499 -27s-20.833 -9.66699 -25.5 -11v-4
c9.33301 -2 21.333 -6.16699 36 -12.5s29 -15.833 43 -28.5s26 -28.5 36 -47.5s15 -42.167 15 -69.5c0 -26.667 -4.83301 -51.667 -14.5 -75s-24.5 -43.666 -44.5 -60.999s-45.167 -31 -75.5 -41s-66.166 -15 -107.499 -15h-176v674h187zM273.998 378.999
c51.333 0 90.5 9.83301 117.5 29.5s40.5 49.5 40.5 89.5c0 36.667 -12.333 65.167 -37 85.5s-65 30.5 -121 30.5c-20.667 0 -40 -0.333008 -58 -1s-28 -1 -30 -1v-233h88zM185.998 62.999c4 -0.666992 9.5 -1.33594 16.5 -2.00293s14.667 -1.16699 23 -1.5
s16.833 -0.5 25.5 -0.5h23c58 0 101.333 11.5 130 34.5s43 54.833 43 95.5c0 18.667 -3.16699 35.834 -9.5 51.501s-16.333 29.334 -30 41.001s-31.5 20.834 -53.5 27.501s-48.667 10 -80 10h-88v-256v0z" />
    <glyph glyph-name="C" unicode="C" horiz-adv-x="585" 
d="M539 584c-11.333 5.33301 -30.1709 12.165 -56.5039 20.498s-58.166 12.5 -95.499 12.5c-30.667 0 -60.167 -5.5 -88.5 -16.5s-53.333 -27.833 -75 -50.5s-39 -51.667 -52 -87s-19.5 -77.333 -19.5 -126c0 -38 4.83301 -74 14.5 -108s24.334 -63.833 44.001 -89.5
s44.334 -45.834 74.001 -60.501s64.5 -22 104.5 -22c18.667 0 36.334 1.5 53.001 4.5s31.667 6.33301 45 10s24.5 7.33398 33.5 11.001l18.5 7.5l16 -71c-4 -1.33301 -11 -3.5 -21 -6.5s-22 -6.16699 -36 -9.5s-29.667 -6.33301 -47 -9s-35.333 -4 -54 -4
c-53.333 0 -100.333 8.83301 -141 26.5s-74.834 42.167 -102.501 73.5s-48.5 68.166 -62.5 110.499s-21 87.833 -21 136.5c0 45.333 6.33301 88.833 19 130.5s32.334 78.5 59.001 110.5s60.667 57.667 102 77s90.333 29 147 29c18 0 35.5 -1.16699 52.5 -3.5
s32.5 -5.16602 46.5 -8.49902s26.167 -6.66602 36.5 -9.99902s17.833 -5.66602 22.5 -6.99902z" />
    <glyph glyph-name="D" unicode="D" horiz-adv-x="721" 
d="M317 674c52 0 98.5 -7.49902 139.5 -22.499s76 -36.833 105 -65.5s51.167 -63.834 66.5 -105.501s23 -89.5 23 -143.5c0 -46.667 -6.5 -90.5 -19.5 -131.5s-33.167 -76.667 -60.5 -107s-62 -54.333 -104 -72s-92 -26.5 -150 -26.5h-207v674h207zM186 66.001
c1.33301 0 5.66895 -0.333008 13.002 -1s16.5 -1.16699 27.5 -1.5s23.167 -0.666016 36.5 -0.999023s27 -0.5 41 -0.5c88.667 0 155.334 23.667 200.001 71s67 115.333 67 204c0 94 -23.833 163.5 -71.5 208.5s-112.834 67.5 -195.501 67.5
c-10.667 0 -22.167 -0.166992 -34.5 -0.5l-36 -1c-11.667 -0.333008 -21.834 -0.833008 -30.501 -1.5s-14.334 -1.33398 -17.001 -2.00098v-542v0z" />
    <glyph glyph-name="E" unicode="E" horiz-adv-x="511" 
d="M110 674h339v-62h-263v-233h250v-62h-250v-255h265v-62h-341v674v0z" />
    <glyph glyph-name="F" unicode="F" horiz-adv-x="497" 
d="M110 674h337v-62h-261v-233h247v-62h-247v-317h-76v674v0z" />
    <glyph glyph-name="G" unicode="G" horiz-adv-x="711" 
d="M596 580c-2.66699 0.666992 -8.83496 3.00195 -18.502 7.00195s-22.167 8.16699 -37.5 12.5s-33 8.16602 -53 11.499s-42 5 -66 5c-45.333 0 -85 -7.16699 -119 -21.5s-62.167 -34 -84.5 -59s-39.166 -54.5 -50.499 -88.5s-17 -70.667 -17 -110
c0 -40.667 5.83301 -78.167 17.5 -112.5s29 -63.833 52 -88.5s51.333 -44 85 -58s72.5 -21 116.5 -21c30.667 0 57 2.83301 79 8.5s36.667 10.167 44 13.5v238h-132v62h209v-350c-4 -2 -11.833 -5 -23.5 -9s-26.5 -8.33301 -44.5 -13s-38.5 -8.66699 -61.5 -12
s-47.833 -5 -74.5 -5c-55.333 0 -104.5 8.83301 -147.5 26.5s-79.333 42 -109 73s-52.167 67.667 -67.5 110s-23 88.166 -23 137.499c0 45.333 6.83301 88.833 20.5 130.5s34.834 78.5 63.501 110.5s64.667 57.667 108 77s95 29 155 29c28 0 53.167 -1.5 75.5 -4.5
s42 -6.33301 59 -10s31 -7.5 42 -11.5s18.5 -7 22.5 -9z" />
    <glyph glyph-name="H" unicode="H" horiz-adv-x="739" 
d="M553 674h76v-674h-76v317h-367v-317h-76v674h76v-295h367v295v0z" />
    <glyph glyph-name="I" unicode="I" horiz-adv-x="296" 
d="M110 0v674h76v-674h-76v0z" />
    <glyph glyph-name="J" unicode="J" horiz-adv-x="347" 
d="M161 674h76.002v-509c0 -56.667 -15.333 -100 -46 -130s-71.334 -45 -122.001 -45c-13.333 0 -26.833 1.16699 -40.5 3.5s-22.834 4.16602 -27.501 5.49902v70c2.66699 -1.33301 9.66699 -3.66602 21 -6.99902s24.666 -5 39.999 -5c30.667 0 54.834 7.83301 72.501 23.5
s26.5 40.5 26.5 74.5v519z" />
    <glyph glyph-name="K" unicode="K" horiz-adv-x="572" 
d="M572 0h-106l-279 339v-339h-77v674h77v-321l265 321h91l-273 -326l302 -348v0z" />
    <glyph glyph-name="L" unicode="L" horiz-adv-x="436" 
d="M186 674v-612h250v-62h-326v674h76v0z" />
    <glyph glyph-name="M" unicode="M" horiz-adv-x="902" 
d="M60 0l94 674h100l193 -569l195 569h99l101 -674h-81l-80 574h-3l-191 -574h-87l-189 574h-3l-69 -574h-79v0z" />
    <glyph glyph-name="N" unicode="N" horiz-adv-x="748" 
d="M110 0v674h100l348 -551h5v551h75v-674h-104l-346 562h-4v-562h-74v0z" />
    <glyph glyph-name="O" unicode="O" horiz-adv-x="755" 
d="M377 684c49.333 0 92.999 -8.49902 130.999 -25.499s70.167 -40.667 96.5 -71s46.333 -66.833 60 -109.5s20.5 -89.667 20.5 -141c0 -50.667 -6.83301 -97.334 -20.5 -140.001s-33.5 -79.334 -59.5 -110.001s-58.167 -54.5 -96.5 -71.5s-82.166 -25.5 -131.499 -25.5
c-46 0 -87.833 7.83301 -125.5 23.5s-70 38.334 -97 68.001s-47.833 66 -62.5 109s-22 91.833 -22 146.5c0 54 7.16699 102.5 21.5 145.5s34.833 79.333 61.5 109s59 52.5 97 68.5s80.333 24 127 24zM151.999 337.001c0 -44 5.33203 -83.333 15.999 -118s25.667 -64 45 -88
s42.833 -42.333 70.5 -55s58.834 -19 93.501 -19c34 0 65 6.33301 93 19s51.833 31 71.5 55s34.834 53.333 45.501 88s16 74 16 118c0 45.333 -5.5 85.333 -16.5 120s-26.5 63.834 -46.5 87.501s-43.833 41.667 -71.5 54s-58.167 18.5 -91.5 18.5s-63.833 -6 -91.5 -18
s-51.334 -29.833 -71.001 -53.5s-35 -52.834 -46 -87.501s-16.5 -75 -16.5 -121z" />
    <glyph glyph-name="P" unicode="P" horiz-adv-x="564" 
d="M186 306c4.66699 -1.33301 13.167 -2.16797 25.5 -2.50098s25.166 -0.5 38.499 -0.5c62.667 0 109.167 14.5 139.5 43.5s45.5 67.5 45.5 115.5c0 48.667 -15.833 86.834 -47.5 114.501s-77.5 41.5 -137.5 41.5c-21.333 0 -36.666 -0.333008 -45.999 -1s-15.333 -1 -18 -1
v-310v0zM267 246.998c-5.33301 0 -12.167 0.166016 -20.5 0.499023l-24.5 1c-8 0.333008 -15.5 0.833008 -22.5 1.5s-11.5 1 -13.5 1v-251h-76v674h165c39.333 0 73.833 -5.5 103.5 -16.5s54.5 -25.833 74.5 -44.5s35.167 -40.667 45.5 -66s15.5 -52.333 15.5 -81
c0 -69.333 -21.667 -123.166 -65 -161.499s-104 -57.5 -182 -57.5z" />
    <glyph glyph-name="Q" unicode="Q" horiz-adv-x="755" 
d="M685 337c0 -42.667 -4.66504 -82.334 -13.998 -119.001s-23.333 -69.5 -42 -98.5s-41.334 -53.5 -68.001 -73.5s-57.667 -34.667 -93 -44l34 -116h-75l-32 105c-2.66699 0 -5.33398 -0.166992 -8.00098 -0.5s-5.66699 -0.5 -9 -0.5c-46 0 -88 7.83301 -126 23.5
s-70.5 38.334 -97.5 68.001s-47.833 66 -62.5 109s-22 91.833 -22 146.5c0 54 7.16699 102.333 21.5 145s35 79 62 109s59.5 53 97.5 69s80.333 24 127 24c49.333 0 93 -8.5 131 -25.5s70 -40.667 96 -71s45.833 -66.833 59.5 -109.5s20.5 -89.667 20.5 -141zM448.002 68
c48 15.333 85.834 46.002 113.501 92.002s41.5 105 41.5 177c0 45.333 -5.5 85.5 -16.5 120.5s-26.333 64.333 -46 88s-43.334 41.667 -71.001 54s-58.167 18.5 -91.5 18.5s-63.833 -6 -91.5 -18s-51.5 -29.833 -71.5 -53.5s-35.5 -53 -46.5 -88s-16.5 -75.5 -16.5 -121.5
c0 -88.667 20.167 -157.334 60.5 -206.001s94.833 -73.334 163.5 -74.001l-35 118h76l31 -107v0z" />
    <glyph glyph-name="R" unicode="R" horiz-adv-x="598" 
d="M186 340c2 0 6.66602 -0.169922 13.999 -0.50293s15.5 -0.666016 24.5 -0.999023l28 -1c9.66699 -0.333008 17.834 -0.5 24.501 -0.5c62 0 107.167 13 135.5 39s42.5 60.333 42.5 103s-14.667 76.167 -44 100.5s-74 36.5 -134 36.5c-8 0 -17 -0.166992 -27 -0.5
s-19.5 -0.666016 -28.5 -0.999023s-16.833 -0.666016 -23.5 -0.999023s-10.667 -0.5 -12 -0.5v-273v0zM319.999 279.997h-133.998v-280h-76v674h184c77.333 0 136.666 -17.667 177.999 -53s62 -83.333 62 -144c0 -35.333 -6.16699 -64.5 -18.5 -87.5
s-26.333 -41.167 -42 -54.5s-30.834 -23 -45.501 -29s-24.667 -9.66699 -30 -11l160 -295h-84z" />
    <glyph glyph-name="S" unicode="S" horiz-adv-x="512" 
d="M417 599c-8 3.33301 -23.334 7.16504 -46.001 11.498s-47.667 6.5 -75 6.5c-46.667 0 -84.5 -8.83301 -113.5 -26.5s-43.5 -45.5 -43.5 -83.5c0 -28 8.66699 -50.5 26 -67.5s37.666 -30.167 60.999 -39.5l68 -28c18.667 -8 37.334 -17.333 56.001 -28
s35.5 -23.5 50.5 -38.5s27.333 -32.667 37 -53s14.5 -43.5 14.5 -69.5c0 -26.667 -5 -51.667 -15 -75s-25 -43.666 -45 -60.999s-44.833 -31.166 -74.5 -41.499s-64.167 -15.5 -103.5 -15.5c-14.667 0 -29.334 0.5 -44.001 1.5s-28.667 2.33301 -42 4
s-25.166 3.33398 -35.499 5.00098s-18.5 3.5 -24.5 5.5l4 74c9.33301 -3.33301 25.833 -8 49.5 -14s51.834 -9 84.501 -9c54 0 95.333 11 124 33s43 51.667 43 89c0 17.333 -3.33301 32.333 -10 45s-15.5 24 -26.5 34s-23.333 18.667 -37 26s-27.834 14 -42.501 20l-63 26
c-18.667 8 -36.167 17 -52.5 27s-30.5 22 -42.5 36s-21.5 30.167 -28.5 48.5s-10.5 39.166 -10.5 62.499c0 26 4.83301 50 14.5 72s24.334 41.167 44.001 57.5s44.667 29 75 38s65.833 13.5 106.5 13.5c27.333 0 52.833 -2.16699 76.5 -6.5l46.5 -8.5z" />
    <glyph glyph-name="T" unicode="T" horiz-adv-x="482" 
d="M482 674v-62h-204v-612h-76v612h-202v62h482v0z" />
    <glyph glyph-name="U" unicode="U" horiz-adv-x="734" 
d="M624 265c0 -39.333 -4.66797 -75.8301 -14.001 -109.497s-24.166 -62.667 -44.499 -87s-46.833 -43.5 -79.5 -57.5s-72 -21 -118 -21c-48 0 -88.5 7.33301 -121.5 22s-59.5 34.5 -79.5 59.5s-34.5 54.167 -43.5 87.5s-13.5 68.666 -13.5 105.999v409h77v-409
c0 -68.667 14.333 -120.5 43 -155.5s74.667 -52.5 138 -52.5c34 0 62.5 5.16699 85.5 15.5s41.5 24.666 55.5 42.999s24 40.166 30 65.499s9 53.333 9 84v409h76v-409v0z" />
    <glyph glyph-name="V" unicode="V" horiz-adv-x="604" 
d="M10 674h88l203 -571h2l211 571h80l-253 -674h-85l-246 674v0z" />
    <glyph glyph-name="W" unicode="W" horiz-adv-x="917" 
d="M20 674h85l148 -574h2l159 574h96l163 -574h3l145 574h76l-177 -674h-98l-164 581h-2l-160 -581h-95l-181 674v0z" />
    <glyph glyph-name="X" unicode="X" horiz-adv-x="547" 
d="M18 674h93l161 -264l169 264h87l-212 -321l231 -353h-100l-181 288l-179 -288h-87l223 349l-205 325v0z" />
    <glyph glyph-name="Y" unicode="Y" horiz-adv-x="502" 
d="M210 0v248l-210 426h84l170 -342l168 342h80l-215 -426v-248h-77v0z" />
    <glyph glyph-name="Z" unicode="Z" horiz-adv-x="529" 
d="M40 0v66l359 547h-351v61h437v-65l-353 -545h357v-64h-449v0z" />
    <glyph glyph-name="bracketleft" unicode="[" horiz-adv-x="358" 
d="M318 674v-62h-141v-781h141v-62h-218v905h218v0z" />
    <glyph glyph-name="backslash" unicode="\" horiz-adv-x="392" 
d="M28 674h74l263 -674h-77l-260 674v0z" />
    <glyph glyph-name="bracketright" unicode="]" horiz-adv-x="358" 
d="M40 674h218v-905h-218v62h142v781h-142v62v0z" />
    <glyph glyph-name="asciicircum" unicode="^" horiz-adv-x="460" 
d="M25 390l167 284h70l165 -284h-73l-130 236l-131 -236h-68v0z" />
    <glyph glyph-name="underscore" unicode="_" horiz-adv-x="508" 
d="M510 -177v-54h-512v54h512z" />
    <glyph glyph-name="grave" unicode="`" horiz-adv-x="228" 
d="M163 527l-120 147h85l80 -147h-45v0z" />
    <glyph glyph-name="a" unicode="a" horiz-adv-x="515" 
d="M81 472c4 2 10.8359 4.66016 20.5029 7.99316s21.334 6.83301 35.001 10.5s29 6.83398 46 9.50098s34.833 4 53.5 4c66.667 0 116.834 -16.167 150.501 -48.5s50.5 -76.166 50.5 -131.499v-197c0 -22 0.833008 -44.5 2.5 -67.5s3.5 -42.833 5.5 -59.5h-60
c-8.66699 0 -13.834 2.16699 -15.501 6.5s-2.5 9.5 -2.5 15.5l-3 49h-2c-4 -6 -10.167 -13.5 -18.5 -22.5s-19.166 -17.833 -32.499 -26.5s-29.5 -16.167 -48.5 -22.5s-41.5 -9.5 -67.5 -9.5c-23.333 0 -44.5 4 -63.5 12s-35.333 19.167 -49 33.5s-24.167 31.333 -31.5 51
s-11 40.834 -11 63.501c0 29.333 7.16699 54.333 21.5 75s33.333 37.334 57 50.001s50.667 21.834 81 27.501s61.5 8.5 93.5 8.5h69v19c0 12.667 -2.33301 25.334 -7 38.001s-12.334 24.167 -23.001 34.5s-24.334 18.833 -41.001 25.5s-37 10 -61 10
c-14 0 -27.5 -1.16699 -40.5 -3.5s-24.833 -5 -35.5 -8s-19.834 -6.16699 -27.501 -9.5s-13.167 -5.66602 -16.5 -6.99902c-2 -1.33301 -4.83301 -2.83301 -8.5 -4.5s-6.83398 -2.5 -9.50098 -2.5c-4.66699 0 -7.16699 1.5 -7.5 4.5s-0.5 5.16699 -0.5 6.5
c-0.666992 9.33301 -1.33398 19.5 -2.00098 30.5s-1 20.167 -1 27.5zM287.003 249.993c-33.333 0 -61 -2.99805 -83 -8.99805s-39.5 -13.833 -52.5 -23.5s-22.167 -20.334 -27.5 -32.001s-8 -23.167 -8 -34.5c0 -27.333 9 -49.833 27 -67.5s43.667 -26.5 77 -26.5
c23.333 0 43.833 4.16699 61.5 12.5s32.5 19.666 44.5 33.999s21 31 27 50s9 38.833 9 59.5v37h-75v0z" />
    <glyph glyph-name="b" unicode="b" horiz-adv-x="558" 
d="M304 438c-40 0 -73.334 -18.002 -100.001 -54.002s-40 -90 -40 -162v-156c3.33301 -1.33301 11.333 -3.16602 24 -5.49902s30.334 -3.5 53.001 -3.5c26 0 50.5 4.83301 73.5 14.5s43.167 23.834 60.5 42.501s31 41.167 41 67.5s15 56.5 15 90.5
c0 19.333 -2.5 38.833 -7.5 58.5s-12.667 37.5 -23 53.5s-23.5 29 -39.5 39s-35 15 -57 15zM168.999 421.998c4 6.66699 9.66699 14.665 17 23.998s16.833 18.333 28.5 27s25.667 16 42 22s35.833 9 58.5 9c34 0 63.167 -6.66699 87.5 -20s44.333 -31 60 -53
s27.167 -47.167 34.5 -75.5s11 -57.166 11 -86.499c0 -36.667 -6.16699 -72 -18.5 -106s-30.5 -63.667 -54.5 -89s-53.833 -45.666 -89.5 -60.999s-77.167 -23 -124.5 -23c-30 0 -56.5 2.33301 -79.5 7s-40.167 8.66699 -51.5 12v708h74v-295h5z" />
    <glyph glyph-name="c" unicode="c" horiz-adv-x="453" 
d="M292 504c32.667 0 60.667 -3.83496 84 -11.502s38.666 -13.5 45.999 -17.5c0 -7.33301 -0.166992 -16.5 -0.5 -27.5s-0.833008 -19.5 -1.5 -25.5c0 -2 -0.333008 -4.83301 -1 -8.5s-3.33398 -5.5 -8.00098 -5.5c-2 0 -4.5 0.666992 -7.5 2s-5.5 2.66602 -7.5 3.99902
l-9.5 5.00098s-11.5 5.33398 -19.5 8.00098s-17.667 5.16699 -29 7.5s-24 3.5 -38 3.5c-27.333 0 -51.666 -5.16699 -72.999 -15.5s-39.5 -24.166 -54.5 -41.499s-26.333 -37.5 -34 -60.5s-11.5 -47.5 -11.5 -73.5c0 -26.667 4 -51.5 12 -74.5s19.5 -43.167 34.5 -60.5
s32.833 -31 53.5 -41s43.667 -15 69 -15c28 0 49.5 2.83301 64.5 8.5s25.167 10.167 30.5 13.5c10.667 5.33301 17.334 8 20.001 8c6 0 9 -3.66699 9 -11c0.666992 -6.66699 1.16699 -15.334 1.5 -26.001s0.833008 -20.667 1.5 -30c-4 -2 -10 -4.5 -18 -7.5
s-17.667 -6.16699 -29 -9.5s-24.166 -6.16602 -38.499 -8.49902s-29.833 -3.5 -46.5 -3.5c-37.333 0 -71 6 -101 18s-55.333 29.167 -76 51.5s-36.5 49.333 -47.5 81s-16.5 67.167 -16.5 106.5c0 36.667 5 70.667 15 102s25.167 58.5 45.5 81.5s45.666 41 75.999 54
s65.5 19.5 105.5 19.5z" />
    <glyph glyph-name="d" unicode="d" horiz-adv-x="564" 
d="M394 717l74.0029 -0.00292969v-566c0 -25.333 0.666992 -52 2 -80s2.66602 -51.667 3.99902 -71h-65c-8.66699 0 -13 4.33301 -13 13v36c0 8 -0.333008 16.667 -1 26h-3c-2 -4.66699 -6.33301 -11.667 -13 -21s-15.834 -18.666 -27.501 -27.999
s-25.667 -17.666 -42 -24.999s-35.5 -11 -57.5 -11c-35.333 0 -65.833 6.83301 -91.5 20.5s-46.667 31.334 -63 53.001s-28.333 46 -36 73s-11.5 53.833 -11.5 80.5c0 38.667 5.66699 75.334 17 110.001s28.333 65.167 51 91.5s50.5 47.166 83.5 62.499s71.167 23 114.5 23
c21.333 0 38.666 -1.83301 51.999 -5.5s22 -6.16699 26 -7.5v226zM314.003 437.997c-28 0 -53.668 -5.33105 -77.001 -15.998s-43.166 -25.334 -59.499 -44.001s-29 -40.834 -38 -66.501s-13.5 -53.5 -13.5 -83.5c0 -22 2.66699 -43.333 8 -64s13.5 -39 24.5 -55
s24.5 -28.833 40.5 -38.5s34.333 -14.5 55 -14.5c18.667 0 36.334 4.66699 53.001 14s31.5 23 44.5 41s23.333 40.333 31 67s11.5 57.667 11.5 93v154l-28.5 7.5c-13.667 3.66699 -30.834 5.5 -51.501 5.5z" />
    <glyph glyph-name="e" unicode="e" horiz-adv-x="535" 
d="M275 504c39.333 0 72.501 -6.66895 99.501 -20.002s48.667 -30.333 65 -51s28 -43.5 35 -68.5s10.5 -49.167 10.5 -72.5c0 -20 -0.5 -36.5 -1.5 -49.5s-1.83301 -20.5 -2.5 -22.5h-355c0.666992 -18 4.5 -36.667 11.5 -56s17.833 -37 32.5 -53s33.667 -29 57 -39
s51.333 -15 84 -15c30 0 55.333 3.33301 76 10s33.667 11.334 39 14.001c3.33301 1.33301 6.5 3 9.5 5s5.83301 3 8.5 3c6 0 9 -3.66699 9 -11c0.666992 -7.33301 1.16699 -16.666 1.5 -27.999s0.833008 -22.666 1.5 -33.999l-22 -6.5c-10 -3 -21.833 -6 -35.5 -9
s-28.667 -5.5 -45 -7.5s-33.166 -3 -50.499 -3c-42.667 0 -79.834 6 -111.501 18s-58 29 -79 51s-36.667 48.833 -47 80.5s-15.5 67.167 -15.5 106.5s5.16699 74.833 15.5 106.5s25.166 58.667 44.499 81s43 39.666 71 51.999s59.333 18.5 94 18.5zM409.001 279.998
l-0.000976562 14.999c0 14 -2 29.333 -6 46s-11 32.167 -21 46.5s-23.667 26.333 -41 36s-39.666 14.5 -66.999 14.5c-28.667 0 -52.5 -5.66699 -71.5 -17s-34.167 -25.166 -45.5 -41.499s-19.333 -33.5 -24 -51.5s-7 -34 -7 -48h283z" />
    <glyph glyph-name="f" unicode="f" horiz-adv-x="307" 
d="M278 736c20 0 36.833 -1.33203 50.5 -3.99902s23.167 -5 28.5 -7c-0.666992 -4.66699 -1 -9.66699 -1 -15c0 -4.66699 -0.333008 -9.33398 -1 -14.001c-0.666992 -5.33301 -1 -10.666 -1 -15.999c-0.666992 -8.66699 -4.33398 -13 -11.001 -13
c-4.66699 0 -11.667 1.16699 -21 3.5s-22.666 3.5 -39.999 3.5c-20.667 0 -38 -3.33301 -52 -10s-25.5 -15.834 -34.5 -27.501s-15.5 -25 -19.5 -40s-6 -30.833 -6 -47.5v-55h136v-63h-136v-431h-74v431h-86v63h86v52c0 61.333 16.667 108.333 50 141s77.333 49 132 49z" />
    <glyph glyph-name="g" unicode="g" horiz-adv-x="507" 
d="M254 504c20 0 38.333 -1.83594 55 -5.50293s28.667 -7.16699 36 -10.5h142c0 -4 -0.166992 -9.83301 -0.5 -17.5s-0.833008 -15.167 -1.5 -22.5c-0.666992 -6 -2 -10.667 -4 -14s-6.66699 -5 -14 -5h-50c4.66699 -6.66699 10.667 -17.5 18 -32.5s11 -36.5 11 -64.5
c0 -30 -4.66699 -56 -14 -78s-22.5 -40.167 -39.5 -54.5s-37.333 -25.166 -61 -32.499s-49.5 -11 -77.5 -11c-18.667 0 -33.667 1.33301 -45 4s-19.333 4.66699 -24 6c-6.66699 -1.33301 -15.167 -5.83301 -25.5 -13.5s-15.5 -18.167 -15.5 -31.5c0 -14 5.66699 -25 17 -33
s28.666 -12 51.999 -12h89c61.333 0 107 -12.333 137 -37s45 -58.334 45 -101.001c0 -27.333 -5.66699 -52.166 -17 -74.499s-27.833 -41.833 -49.5 -58.5s-47.834 -29.5 -78.501 -38.5s-65 -13.5 -103 -13.5c-34.667 0 -64.334 4.5 -89.001 13.5s-45 20.833 -61 35.5
s-27.667 31.334 -35 50.001s-11 37.667 -11 57c0 18.667 3.16699 34.834 9.5 48.501s13.833 25.334 22.5 35.001s17.334 17.334 26.001 23.001s15.334 9.5 20.001 11.5c-4.66699 2 -9.83398 5 -15.501 9s-11 9.16699 -16 15.5s-9.16699 13.666 -12.5 21.999
s-5 17.833 -5 28.5c0 13.333 2.5 24.833 7.5 34.5s11.167 17.834 18.5 24.501s14.833 12.167 22.5 16.5s13.834 7.5 18.501 9.5c-4 2 -10 6 -18 12s-16.167 14.667 -24.5 26s-15.666 25.666 -21.999 42.999s-9.5 38.666 -9.5 63.999c0 24.667 4 47.5 12 68.5
s20 39.167 36 54.5s36 27.333 60 36s52 13 84 13zM116 -83.0029c0 -28 10.333 -50.833 31 -68.5s53 -26.5 97 -26.5c28.667 0 53.334 3 74.001 9s37.667 13.833 51 23.5s23.166 20.667 29.499 33s9.5 24.833 9.5 37.5c0 10 -2 20 -6 30s-10.667 19 -20 27
s-21.666 14.5 -36.999 19.5s-34.333 7.5 -57 7.5h-66c-13.333 0 -23.833 0.166992 -31.5 0.5s-12.834 0.5 -15.501 0.5c-13.333 -5.33301 -26.5 -16 -39.5 -32s-19.5 -36.333 -19.5 -61zM136 326.997c0 -30.667 9.49805 -57.001 28.498 -79.001s48.833 -33 89.5 -33
c36.667 0 65.334 10 86.001 30s31 47.333 31 82c0 34 -10.167 61.5 -30.5 82.5s-49.166 31.5 -86.499 31.5c-39.333 0 -68.833 -10.667 -88.5 -32s-29.5 -48.666 -29.5 -81.999z" />
    <glyph glyph-name="h" unicode="h" horiz-adv-x="581" 
d="M90 717l74 0.000976562v-301h3c4 6.66699 9.66699 15 17 25s17.333 19.667 30 29s28.334 17.333 47.001 24s41 10 67 10c51.333 0 93 -15.333 125 -46s48 -74.334 48 -131.001v-327h-74v307c0 46 -10.5 79.333 -31.5 100s-46.833 31 -77.5 31
c-20.667 0 -40.334 -4.5 -59.001 -13.5s-35 -22 -49 -39s-25.167 -37.5 -33.5 -61.5s-12.5 -51 -12.5 -81v-243h-74v717z" />
    <glyph glyph-name="i" unicode="i" horiz-adv-x="238" 
d="M82 0v494h75v-494h-75v0zM80 701h78v-78h-78v78z" />
    <glyph glyph-name="j" unicode="j" horiz-adv-x="237" 
d="M76 -99v593.001h74v-567c0 -62 -13.333 -106.5 -40 -133.5s-67 -40.5 -121 -40.5c-18 0 -32.667 1.16699 -44 3.5s-19.666 4.83301 -24.999 7.5c0.666992 4.66699 1.16699 9.66699 1.5 15s0.833008 10.333 1.5 15c0.666992 5.33301 1 10.666 1 15.999
c0.666992 9.33301 4 14 10 14c4 0 10.167 -1.33301 18.5 -4s19.166 -4 32.499 -4c28.667 0 51 7 67 21s24 35.333 24 64zM72 701.001h78v-78h-78v78z" />
    <glyph glyph-name="k" unicode="k" horiz-adv-x="464" 
d="M164 0h-74v717h74v-442l208 219h84l-215 -226l233 -268h-91l-219 260v-260v0z" />
    <glyph glyph-name="l" unicode="l" horiz-adv-x="254" 
d="M164 0h-74v717h74v-717v0z" />
    <glyph glyph-name="m" unicode="m" horiz-adv-x="877" 
d="M141 494c7.33301 0 11.498 -1.50195 12.498 -4.50195s1.5 -6.16699 1.5 -9.5v-13c0 -7.33301 0.333008 -15 1 -23c0.666992 -9.33301 1 -19.666 1 -30.999h2c2 3.33301 5.66699 10 11 20s14 20.333 26 31s27.833 20 47.5 28s44.167 12 73.5 12
c22.667 0 42.5 -3.5 59.5 -10.5s31.333 -15.5 43 -25.5s20.834 -20.667 27.501 -32s11 -21.333 13 -30c4 8 10.167 17.667 18.5 29s19.166 22.166 32.499 32.499s29.833 19 49.5 26s42.5 10.5 68.5 10.5c23.333 0 45.333 -3.83301 66 -11.5s38.5 -18.667 53.5 -33
s26.833 -32.166 35.5 -53.499s13 -45.666 13 -72.999v-333h-74v297c0 19.333 -2 37.5 -6 54.5s-10.167 32 -18.5 45s-19.166 23.167 -32.499 30.5s-29.333 11 -48 11c-23.333 0 -43.666 -5.83301 -60.999 -17.5s-31.833 -27 -43.5 -46s-20.5 -40 -26.5 -63
s-9 -46.167 -9 -69.5v-242h-74v299c0 46.667 -9.66699 81.5 -29 104.5s-44 34.5 -74 34.5c-20.667 0 -39.667 -4.83301 -57 -14.5s-32.333 -23.5 -45 -41.5s-22.5 -39.333 -29.5 -64s-10.5 -52 -10.5 -82v-236h-74v345c0 28 -0.5 55.5 -1.5 82.5s-2.16699 49.167 -3.5 66.5
h61z" />
    <glyph glyph-name="n" unicode="n" horiz-adv-x="576" 
d="M85 343c0 25.333 -0.503906 52.0029 -1.50391 80.0029s-2.16699 51.667 -3.5 71h63c8.66699 0 13 -4.33301 13 -13c0.666992 -3.33301 1 -8.66602 1 -15.999v-23v-30h3c4.66699 7.33301 10.834 16.166 18.501 26.499s17.834 20.333 30.501 30s28.334 18 47.001 25
s41 10.5 67 10.5c24.667 0 47.5 -3.83301 68.5 -11.5s39.333 -18.834 55 -33.501s27.834 -32.834 36.501 -54.501s13 -46.5 13 -74.5v-330h-74v310c0 42 -10 73.833 -30 95.5s-46.333 32.5 -79 32.5c-19.333 0 -38.333 -4.33301 -57 -13s-35.167 -21.334 -49.5 -38.001
s-25.833 -37 -34.5 -61s-13 -51.333 -13 -82v-244h-74v343z" />
    <glyph glyph-name="o" unicode="o" horiz-adv-x="580" 
d="M290 438c-50 0 -89.8301 -16.166 -119.497 -48.499s-44.5 -79.833 -44.5 -142.5c0 -22 2.66699 -44.333 8 -67s14.166 -43.167 26.499 -61.5s29 -33.333 50 -45s47.5 -17.5 79.5 -17.5c51.333 0 91.5 16.667 120.5 50s43.5 80.333 43.5 141
c0 27.333 -3.33301 52.666 -10 75.999s-16.834 43.5 -30.501 60.5s-30.834 30.333 -51.501 40s-44.667 14.5 -72 14.5zM50.0029 247.001c0 32 4.16699 63.332 12.5 93.999s22 58.167 41 82.5s43.667 43.833 74 58.5s67.833 22 112.5 22c40.667 0 76 -6.5 106 -19.5
s55 -31 75 -54s34.833 -50.167 44.5 -81.5s14.5 -65.333 14.5 -102c0 -34 -4.5 -66.667 -13.5 -98s-23.167 -58.666 -42.5 -81.999s-44.166 -42 -74.499 -56s-66.833 -21 -109.5 -21c-74.667 0 -133.334 22.333 -176.001 67s-64 108 -64 190z" />
    <glyph glyph-name="p" unicode="p" horiz-adv-x="554" 
d="M159 -231l-74.0049 0.00195312v574c0 12.667 -0.166992 25.834 -0.5 39.501l-1 40.5c-0.333008 13.333 -0.833008 26.166 -1.5 38.499s-1.33398 23.166 -2.00098 32.499h64c8.66699 0 13 -4.33301 13 -13c0.666992 -3.33301 1 -8.33301 1 -15v-20v-27h3
c2 4.66699 6.33301 11.667 13 21s15.834 18.833 27.501 28.5s25.834 18 42.501 25s35.667 10.5 57 10.5c35.333 0 65.833 -6.83301 91.5 -20.5s46.834 -31.334 63.501 -53.001s28.834 -46 36.501 -73s11.5 -53.833 11.5 -80.5c0 -38.667 -5.83301 -75.334 -17.5 -110.001
s-28.667 -65.167 -51 -91.5s-50.166 -47.166 -83.499 -62.499s-71.666 -23 -114.999 -23c-21.333 0 -38.5 1.83301 -51.5 5.5l-26.5 7.5v-234zM239.995 56.002c28 0 53.501 5.33105 76.501 15.998s42.667 25.334 59 44.001s29 40.834 38 66.501s13.5 53.5 13.5 83.5
c0 22 -2.66699 43.333 -8 64s-13.333 39 -24 55s-24 28.833 -40 38.5s-34.667 14.5 -56 14.5c-18.667 0 -36.334 -4.66699 -53.001 -14s-31.5 -23 -44.5 -41s-23.333 -40.333 -31 -67s-11.5 -57.667 -11.5 -93v-154l28.5 -7.5c13.667 -3.66699 31.167 -5.5 52.5 -5.5z" />
    <glyph glyph-name="q" unicode="q" horiz-adv-x="558" 
d="M254 46c40 0 73.334 18.002 100.001 54.002s40 90 40 162v157c-3.33301 1.33301 -11.333 3.16602 -24 5.49902s-30.334 3.5 -53.001 3.5c-26 0 -50.5 -5 -73.5 -15s-43.167 -24.167 -60.5 -42.5s-31 -40.833 -41 -67.5s-15 -57 -15 -91
c0 -18.667 2.5 -37.834 7.5 -57.501s12.667 -37.5 23 -53.5s23.5 -29.167 39.5 -39.5s35 -15.5 57 -15.5zM389.001 62.002c-4 -6.66699 -9.66602 -14.665 -16.999 -23.998s-16.833 -18.333 -28.5 -27s-25.834 -16 -42.501 -22s-36 -9 -58 -9c-34 0 -63.167 6.66699 -87.5 20
s-44.333 31 -60 53s-27.167 47.167 -34.5 75.5s-11 57.166 -11 86.499c0 37.333 6.16699 72.833 18.5 106.5s30.5 63.167 54.5 88.5s54 45.666 90 60.999s77.333 23 124 23c30 0 56.5 -2.33301 79.5 -7s40.167 -8.66699 51.5 -12v-716h-74v303h-5z" />
    <glyph glyph-name="r" unicode="r" horiz-adv-x="371" 
d="M137 494c6.66699 0 10.4971 -1.33301 11.4971 -4s1.83301 -5.66699 2.5 -9v-13c0 -6 0.166992 -12.167 0.5 -18.5s0.5 -12.5 0.5 -18.5v-13h3c2.66699 5.33301 7.33398 12.833 14.001 22.5s15.834 19.167 27.501 28.5s26.5 17.5 44.5 24.5s40 10.5 66 10.5
c17.333 0 32 -1.66699 44 -5s18.667 -5.33301 20 -6c0 -9.33301 -0.166992 -18.833 -0.5 -28.5s-0.833008 -18.167 -1.5 -25.5c0 -6.66699 -2.66699 -10 -8 -10c-7.33301 0 -16 1.5 -26 4.5s-24.333 4.5 -43 4.5c-42 0 -74.5 -16.5 -97.5 -49.5s-34.5 -80.833 -34.5 -143.5
v-245h-74v355c0 25.333 -0.666992 51 -2 77s-2.66602 46.667 -3.99902 62h57z" />
    <glyph glyph-name="s" unicode="s" horiz-adv-x="393" 
d="M219 504c31.333 0 56.3291 -1.50488 74.9961 -4.50488s30.334 -5.16699 35.001 -6.5c0 -8 -0.166992 -15.833 -0.5 -23.5s-0.833008 -17.5 -1.5 -29.5c-0.666992 -8 -2 -13.5 -4 -16.5s-4.66699 -4.5 -8 -4.5s-7.33301 1 -12 3s-10.667 4.16699 -18 6.5
s-16.833 4.5 -28.5 6.5s-26.167 3 -43.5 3c-29.333 0 -53 -6.5 -71 -19.5s-27 -29.5 -27 -49.5c0 -19.333 6 -34.666 18 -45.999s31.667 -21.666 59 -30.999l48 -17c14 -4.66699 27.833 -11.167 41.5 -19.5s25.834 -18.166 36.501 -29.499s19.167 -24.166 25.5 -38.499
s9.5 -30.166 9.5 -47.499c0 -28.667 -5.33301 -52.5 -16 -71.5s-25.167 -34.333 -43.5 -46s-39.5 -20 -63.5 -25s-49.333 -7.5 -76 -7.5c-34.667 0 -60 1.5 -76 4.5s-26.667 5.16699 -32 6.5c0 8 0.333008 17.333 1 28s1.33398 20 2.00098 28c0 9.33301 4 14 12 14
c6 0 17 -2.33301 33 -7s40 -7 72 -7c32.667 0 59.5 6.16699 80.5 18.5s31.5 31.166 31.5 56.499c0 18.667 -7 34.167 -21 46.5s-35 23.5 -63 33.5l-34 13c-13.333 4.66699 -27.166 10.334 -41.499 17.001s-27.333 15.334 -39 26.001s-21.167 23.667 -28.5 39
s-11 33.666 -11 54.999c0 23.333 4.83301 43.833 14.5 61.5s22.667 32.5 39 44.5s35.333 21 57 27s44.5 9 68.5 9z" />
    <glyph glyph-name="t" unicode="t" horiz-adv-x="341" 
d="M253 -10c-53.333 0 -91.999 14.001 -115.999 42.001s-36 67.667 -36 119v280h-91v63h91v109h74v-109h150v-63h-150v-280c0 -35.333 6.66699 -60 20 -74s33.333 -21 60 -21c15.333 0 28.666 1.5 39.999 4.5s18.666 4.5 21.999 4.5c6.66699 0 10 -4.66699 10 -14
c0 -6 0.333008 -12 1 -18c0.666992 -5.33301 1.16699 -10.833 1.5 -16.5s0.833008 -10.834 1.5 -15.501c-5.33301 -2 -14.666 -4.33301 -27.999 -7s-30 -4 -50 -4z" />
    <glyph glyph-name="u" unicode="u" horiz-adv-x="576" 
d="M491 151c0 -24.667 0.504883 -51.1719 1.50488 -79.5049s2.16699 -52.166 3.5 -71.499h-64c-8 0 -12.333 4.66699 -13 14v68h-3c-4.66699 -7.33301 -10.834 -16.166 -18.501 -26.499s-17.834 -20.333 -30.501 -30s-28.334 -18 -47.001 -25s-41 -10.5 -67 -10.5
c-24.667 0 -47.5 3.83301 -68.5 11.5s-39.167 18.834 -54.5 33.501s-27.5 32.834 -36.5 54.501s-13.5 46.5 -13.5 74.5v330h74v-310c0 -42 10 -73.833 30 -95.5s46.333 -32.5 79 -32.5c19.333 0 38.166 4.33301 56.499 13s34.666 21.334 48.999 38.001s25.833 37 34.5 61
s13 51.333 13 82v244h75v-343z" />
    <glyph glyph-name="v" unicode="v" horiz-adv-x="482" 
d="M10 494h85l150 -393h4l145 393h78l-186 -494h-78l-198 494v0z" />
    <glyph glyph-name="w" unicode="w" horiz-adv-x="748" 
d="M20 494h77l106 -389h4l123 389h78l128 -389h4l111 389h77l-147 -494h-89l-122 372h-4l-120 -372h-91l-135 494v0z" />
    <glyph glyph-name="x" unicode="x" horiz-adv-x="453" 
d="M26 494h90l120 -178l117 178h80l-158 -235l178 -259h-89l-137 201l-144 -201h-83l189 256l-163 238v0z" />
    <glyph glyph-name="y" unicode="y" horiz-adv-x="457" 
d="M91 494l145.001 -386.998h3l140 387h78l-79 -217l-32.5 -88l-31.5 -86l-28 -75.5l-21 -57.5c-10.667 -29.333 -21.667 -57 -33 -83s-25 -49 -41 -69s-35.833 -35.833 -59.5 -47.5s-53.5 -17.5 -89.5 -17.5c-15.333 0 -30 1.5 -44 4.5s-23.333 5.16699 -28 6.5
c0 4 0.333008 8.66699 1 14c0.666992 4.66699 1.16699 10.167 1.5 16.5s1.16602 14.166 2.49902 23.499c0.666992 8 4 12 10 12c4 0 11.5 -1.16699 22.5 -3.5s23.167 -3.5 36.5 -3.5c28 0 52 6.66699 72 20s37.333 39.666 52 78.999l10 26.5l9 24.5
c2.66699 8.66699 5.66699 17 9 25l-194 496h89z" />
    <glyph glyph-name="z" unicode="z" horiz-adv-x="421" 
d="M44 494h343v-66l-268 -364h272v-64h-361v68l268 364h-254v62v0z" />
    <glyph glyph-name="braceleft" unicode="{" horiz-adv-x="389" 
d="M50 252c37.333 4.66699 63.666 17.498 78.999 38.498s23 47.167 23 78.5v124c0 32.667 4.16699 60.5 12.5 83.5s19.833 41.667 34.5 56s31.834 24.833 51.501 31.5s40.834 10 63.501 10h25v-62c-73.333 0 -110 -36.333 -110 -109v-128c0 -11.333 -1.33301 -24.5 -4 -39.5
s-7.83398 -29.667 -15.501 -44s-18.167 -27.666 -31.5 -39.999s-30.666 -21.833 -51.999 -28.5v-4c21.333 -6.66699 38.666 -16 51.999 -28s23.833 -25.333 31.5 -40s12.834 -29.334 15.501 -44.001s4 -27.667 4 -39v-128c0 -35.333 9.33301 -62.333 28 -81s46 -28 82 -28
v-62h-25c-22.667 0 -43.834 3.33301 -63.501 10s-36.834 17.334 -51.501 32.001s-26.167 33.5 -34.5 56.5s-12.5 50.833 -12.5 83.5v123c0 31.333 -7.66699 57.333 -23 78s-41.666 33.334 -78.999 38.001v62z" />
    <glyph glyph-name="bar" unicode="|" horiz-adv-x="258" 
d="M90 674h74v-905h-74v905z" />
    <glyph glyph-name="braceright" unicode="}" horiz-adv-x="389" 
d="M339 190c-37.333 -4.66699 -63.666 -17.332 -78.999 -37.999s-23 -46.667 -23 -78v-123c0 -32.667 -4.16699 -60.5 -12.5 -83.5s-19.833 -41.833 -34.5 -56.5s-31.834 -25.334 -51.501 -32.001s-40.834 -10 -63.501 -10h-25v62c36 0 63.333 9.33301 82 28
s28 45.667 28 81v128c0 11.333 1.33301 24.333 4 39s7.83398 29.334 15.501 44.001s18.167 28 31.5 40s30.666 21.333 51.999 28v4c-21.333 6.66699 -38.666 16.167 -51.999 28.5s-23.833 25.666 -31.5 39.999s-12.834 29 -15.501 44s-4 28.167 -4 39.5v128
c0 72.667 -36.667 109 -110 109v62h25c22.667 0 43.834 -3.33301 63.501 -10s36.834 -17.167 51.501 -31.5s26.167 -33 34.5 -56s12.5 -50.833 12.5 -83.5v-124c0 -31.333 7.66699 -57.5 23 -78.5s41.666 -33.833 78.999 -38.5v-62z" />
    <glyph glyph-name="asciitilde" unicode="~" horiz-adv-x="606" 
d="M61 307l21.4971 14c9 6 19.5 11.833 31.5 17.5s25.333 10.667 40 15s30.334 6.5 47.001 6.5c24 0 45 -3.16699 63 -9.5s35 -13.166 51 -20.499s32 -14.166 48 -20.499s34 -9.5 54 -9.5c12 0 23.333 1.5 34 4.5s20.334 6.5 29.001 10.5s16 8 22 12s10.333 7 13 9l26 -46
c-4.66699 -4 -11.5 -9 -20.5 -15s-19.5 -11.833 -31.5 -17.5s-25.333 -10.5 -40 -14.5s-30 -6 -46 -6c-23.333 0 -44.166 3.16699 -62.499 9.5s-35.666 13.166 -51.999 20.499s-32.333 14.166 -48 20.499s-32.834 9.5 -51.501 9.5c-12.667 0 -24.5 -1.5 -35.5 -4.5
s-20.833 -6.5 -29.5 -10.5s-16 -8 -22 -12s-10.667 -7 -14 -9l-27 46v0z" />
    <glyph glyph-name="nonbreakingspace" unicode="&#xa0;" horiz-adv-x="250" 
 />
    <glyph glyph-name="exclamdown" unicode="&#xa1;" horiz-adv-x="190" 
d="M99 263l11 -477h-80l11 477h58v0zM31 458h78v-78h-78v78z" />
    <glyph glyph-name="cent" unicode="&#xa2;" horiz-adv-x="493" 
d="M433 17c-6 -3.33301 -18.0029 -8.00684 -36.0029 -14.0068s-39.667 -10.333 -65 -13v-103h-74v104c-62.667 9.33301 -111.334 36.5 -146.001 81.5s-52 102.833 -52 173.5c0 32.667 4.16699 63.334 12.5 92.001s20.833 54.334 37.5 77.001s37.334 41.334 62.001 56.001
s53.334 24.334 86.001 29.001v105h74v-103c25.333 -2.66699 46.833 -7.16699 64.5 -13.5s29.834 -11.166 36.501 -14.499c0 -7.33301 -0.166992 -16.5 -0.5 -27.5s-0.833008 -19.5 -1.5 -25.5c0 -2.66699 -0.333008 -5.66699 -1 -9s-3.33398 -5 -8.00098 -5
c-2.66699 0 -5.33398 0.666992 -8.00098 2s-5 2.66602 -7 3.99902l-9.5 5.00098s-11.5 5.33398 -19.5 8.00098s-17.667 5.16699 -29 7.5s-24 3.5 -38 3.5c-27.333 0 -51.666 -5.16699 -72.999 -15.5s-39.5 -24.166 -54.5 -41.499s-26.333 -37.5 -34 -60.5
s-11.5 -47.5 -11.5 -73.5c0 -26.667 4 -51.5 12 -74.5s19.5 -43.167 34.5 -60.5s32.833 -31 53.5 -41s43.334 -15 68.001 -15c28.667 0 50.5 2.83301 65.5 8.5s25.167 9.83398 30.5 12.501c10.667 5.33301 17.334 8 20.001 8c6 0 9 -3.66699 9 -11
c0 -6.66699 0.333008 -15.334 1 -26.001s1 -20.667 1 -30z" />
    <glyph glyph-name="sterling" unicode="&#xa3;" horiz-adv-x="464" 
d="M412 610c-3.33301 0.666992 -12.001 2.16504 -26.001 4.49805s-31 3.5 -51 3.5c-43.333 0 -77.833 -11 -103.5 -33s-38.5 -52 -38.5 -90c0 -12 1.16699 -24.667 3.5 -38s5.16602 -25.833 8.49902 -37.5s6.5 -21.834 9.5 -30.501s4.83301 -14.667 5.5 -18h163v-62h-152
c0.666992 -3.33301 1 -7.33301 1 -12v-16c0 -32 -2.83301 -59.833 -8.5 -83.5s-13 -44.167 -22 -61.5s-19.167 -31.833 -30.5 -43.5s-22.333 -21.834 -33 -30.501h306v-62h-384v64c36.667 22 62 48.667 76 80s21 66 21 104c0 11.333 -0.5 23 -1.5 35
s-2.16699 20.667 -3.5 26h-90v62h78c-0.666992 3.33301 -2.5 9.33301 -5.5 18s-5.83301 19.334 -8.5 32.001s-5.16699 26.334 -7.5 41.001s-3.5 29 -3.5 43c0 27.333 5.16699 52 15.5 74s24.833 40.833 43.5 56.5s41.334 27.834 68.001 36.501s56.334 13 89.001 13
c17.333 0 35 -1.16699 53 -3.5s29.667 -4.16602 35 -5.49902z" />
    <glyph glyph-name="currency" unicode="&#xa4;" 
d="M546 82l-50.002 -49l-61 63c-33.333 -22 -70.666 -33 -111.999 -33c-22.667 0 -44.167 3.5 -64.5 10.5s-39.166 16.833 -56.499 29.5l-62 -59l-50 49l64 61c-22 33.333 -33 70.666 -33 111.999c0 22.667 3.5 44.167 10.5 64.5s16.833 39.166 29.5 56.499l-60 62l50 50
l60 -64c16.667 10.667 34.334 19 53.001 25s38.334 9 59.001 9c23.333 0 45.166 -3.5 65.499 -10.5s39.166 -17.167 56.499 -30.5l62 60l50 -50l-64 -60c22 -33.333 33 -70.666 33 -111.999c0 -23.333 -3.5 -45.166 -10.5 -65.499s-16.833 -38.833 -29.5 -55.5zM322.998 404
c-18.667 0 -36.5 -3.66699 -53.5 -11s-31.667 -17.166 -44 -29.499s-22.166 -26.833 -29.499 -43.5s-11 -34.667 -11 -54s3.66699 -37.5 11 -54.5s17.166 -31.667 29.499 -44s27 -22.166 44 -29.499s34.833 -11 53.5 -11c19.333 0 37.5 3.66699 54.5 11
s31.667 17.166 44 29.499s22.166 27 29.499 44s11 35.167 11 54.5s-3.66699 37.333 -11 54s-17.166 31.167 -29.499 43.5s-27 22.166 -44 29.499s-35.167 11 -54.5 11z" />
    <glyph glyph-name="yen" unicode="&#xa5;" 
d="M562 674l-185 -365h120v-62h-150v-63h150v-62h-150v-122h-77v122h-137v62h137v63h-137v62h106l-180 365h85l169 -342l169 342h80v0z" />
    <glyph glyph-name="brokenbar" unicode="&#xa6;" horiz-adv-x="259" 
d="M90 674h74v-403h-74v403zM90 164h74v-395h-74v395z" />
    <glyph glyph-name="section" unicode="&#xa7;" horiz-adv-x="477" 
d="M329 34c15.333 -16 29.166 -33.667 41.499 -53s18.5 -42.666 18.5 -69.999c0 -26 -4.83301 -48.667 -14.5 -68s-23 -35.5 -40 -48.5s-37 -22.667 -60 -29s-47.833 -9.5 -74.5 -9.5c-31.333 0 -58.833 2.83301 -82.5 8.5s-39.5 10.167 -47.5 13.5l11 70
c5.33301 -2 18.666 -6.66699 39.999 -14s47 -11 77 -11c34.667 0 62.334 7.66699 83.001 23s31 35.666 31 60.999c0 13.333 -3.16699 25.5 -9.5 36.5s-14.166 21 -23.499 30s-19.333 17.5 -30 25.5s-20.334 15.667 -29.001 23l-27 21.5l-29 22.5
c-14 11.333 -27.667 23 -41 35s-25.333 25 -36 39s-19.334 29.5 -26.001 46.5s-10 36.5 -10 58.5c0 20.667 3 39.167 9 55.5s13.667 31 23 44s19.666 24.5 30.999 34.5s22.333 19 33 27c-16 16 -30 33.667 -42 53s-18 42.666 -18 69.999c0 26 4.83301 48.667 14.5 68
s23 35.5 40 48.5s37 22.667 60 29s47.833 9.5 74.5 9.5c30.667 0 57.834 -2.83301 81.501 -8.5s39.834 -10.167 48.501 -13.5l-11 -70c-2.66699 1.33301 -7.5 3.33301 -14.5 6s-15.667 5.33398 -26 8.00098s-22 5.16699 -35 7.5s-26.833 3.5 -41.5 3.5
c-35.333 0 -63.166 -6.83301 -83.499 -20.5s-30.5 -33.834 -30.5 -60.501c0 -13.333 3.16699 -25.666 9.5 -36.999s14 -21.833 23 -31.5s19 -18.5 30 -26.5s20.833 -15.667 29.5 -23l27 -21.5l28 -22.5c14 -10.667 27.833 -22 41.5 -34s25.667 -25.167 36 -39.5
s18.833 -30 25.5 -47s10 -36.5 10 -58.5c0 -20.667 -3 -39 -9 -55s-13.667 -30.5 -23 -43.5s-19.5 -24.667 -30.5 -35s-21.833 -19.5 -32.5 -27.5zM277 75c8 7.33301 16.166 15.667 24.499 25s15.833 19 22.5 29s12 20 16 30s6 19.667 6 29s-0.833008 18.333 -2.5 27
s-5.16699 17.667 -10.5 27s-13.166 19.5 -23.499 30.5s-24.166 23.5 -41.499 37.5l-69 55c-17.333 -14 -33.166 -31.167 -47.499 -51.5s-21.5 -39.833 -21.5 -58.5c0 -8.66699 0.833008 -17.5 2.5 -26.5s5.16699 -18.5 10.5 -28.5s13.166 -20.667 23.499 -32
s24.166 -24 41.499 -38l69 -55v0z" />
    <glyph glyph-name="dieresis" unicode="&#xa8;" horiz-adv-x="356" 
d="M51 623h78v-78h-78v78zM236 623h78v-78h-78v78z" />
    <glyph glyph-name="copyright" unicode="&#xa9;" horiz-adv-x="793" 
d="M539 480c-6.66699 3.33301 -17.666 7.33301 -32.999 12s-33.666 7 -54.999 7c-18 0 -35.167 -3.16699 -51.5 -9.5s-30.833 -16.166 -43.5 -29.499s-22.834 -30.166 -30.501 -50.499s-11.5 -44.833 -11.5 -73.5c0 -22 2.83301 -43 8.5 -63s14.167 -37.333 25.5 -52
s25.666 -26.334 42.999 -35.001s37.666 -13 60.999 -13c10 0 19.833 0.833008 29.5 2.5s18.5 3.66699 26.5 6s14.667 4.66602 20 6.99902s9 3.83301 11 4.5l10 -42l-33.5 -9.5c-17.667 -5 -37.167 -7.5 -58.5 -7.5c-30.667 0 -58 5.16699 -82 15.5s-44 24.5 -60 42.5
s-28.167 39.333 -36.5 64s-12.5 51.334 -12.5 80.001c0 26 3.66699 51.167 11 75.5s18.833 45.833 34.5 64.5s35.5 33.667 59.5 45s52.667 17 86 17c10.667 0 20.834 -0.666992 30.501 -2s18.667 -3 27 -5s15.5 -3.83301 21.5 -5.5s10.333 -2.83398 13 -3.50098z
M447.001 683c48 0 93 -9 135 -27s78.667 -42.667 110 -74s56 -68 74 -110s27 -87 27 -135s-9 -93 -27 -135s-42.667 -78.833 -74 -110.5s-68 -56.5 -110 -74.5s-87 -27 -135 -27s-93 9 -135 27s-78.833 42.833 -110.5 74.5s-56.5 68.5 -74.5 110.5s-27 87 -27 135
s9 93 27 135s42.833 78.667 74.5 110s68.5 56 110.5 74s87 27 135 27zM746.001 337c0 41.333 -7.83301 80.166 -23.5 116.499s-37 68 -64 95s-58.667 48.333 -95 64s-75.166 23.5 -116.499 23.5s-80.333 -7.83301 -117 -23.5s-68.5 -37 -95.5 -64s-48.333 -58.667 -64 -95
s-23.5 -75.166 -23.5 -116.499s7.83301 -80.333 23.5 -117s37 -68.5 64 -95.5s58.833 -48.333 95.5 -64s75.667 -23.5 117 -23.5s80.166 7.83301 116.499 23.5s68 37 95 64s48.333 58.833 64 95.5s23.5 75.667 23.5 117z" />
    <glyph glyph-name="ordfeminine" unicode="&#xaa;" horiz-adv-x="387" 
d="M327 250h-264v49h264v-49zM87 663c5.33301 2.66699 17.1641 6.83398 35.4971 12.501s39.833 8.5 64.5 8.5c44 0 76.833 -10.667 98.5 -32s32.5 -50 32.5 -86v-128c0 -14 0.5 -28.333 1.5 -43s2.5 -27.667 4.5 -39h-40c-5.33301 0 -8.5 1.33301 -9.5 4s-1.83301 6 -2.5 10
l-1 32h-2c-2.66699 -4 -6.66699 -9 -12 -15s-12.333 -11.833 -21 -17.5s-19.167 -10.5 -31.5 -14.5s-26.833 -6 -43.5 -6c-30.667 0 -55.167 9.83301 -73.5 29.5s-27.5 44.5 -27.5 74.5c0 19.333 4.66699 35.666 14 48.999s21.666 24.166 36.999 32.499
s32.833 14.333 52.5 18s39.834 5.5 60.501 5.5h46v12c0 8 -1.5 16.333 -4.5 25s-8 16.334 -15 23.001s-16 12.167 -27 16.5s-24.167 6.5 -39.5 6.5c-18.667 0 -35.167 -2.66699 -49.5 -8l-29.5 -11c-1.33301 -0.666992 -3.16602 -1.5 -5.49902 -2.5
s-4.16602 -1.5 -5.49902 -1.5c-3.33301 0 -5.16602 1 -5.49902 3s-0.5 3.33301 -0.5 4c0 6 -0.166992 12.5 -0.5 19.5s-0.5 13.167 -0.5 18.5zM220.998 519c-22 0 -40.168 -2 -54.501 -6s-25.833 -9.16699 -34.5 -15.5s-14.667 -13.333 -18 -21s-5 -15.167 -5 -22.5
c0 -17.333 6 -31.833 18 -43.5s28.667 -17.5 50 -17.5c30.667 0 53.834 9.83301 69.501 29.5s23.5 43.5 23.5 71.5v25h-49v0z" />
    <glyph glyph-name="guillemotleft" unicode="&#xab;" horiz-adv-x="511" 
d="M279 404l-137 -167l137 -168l-46 -35l-168 203l169 202zM446 404l-137 -167l137 -168l-46 -35l-168 203l169 202z" />
    <glyph glyph-name="logicalnot" unicode="&#xac;" 
d="M55 333h512v-280h-77v218h-435v62v0z" />
    <glyph glyph-name="uni00AD" unicode="&#xad;" horiz-adv-x="401" 
d="M321 211h-241v62h241v-62z" />
    <glyph glyph-name="registered" unicode="&#xae;" horiz-adv-x="426" 
d="M195 541c0.666992 0 2.00098 -0.166992 4.00098 -0.5s4.33301 -0.5 7 -0.5c22.667 0 34 8.66699 34 26c0 16.667 -11.333 25 -34 25c-3.33301 0 -5.83301 -0.166992 -7.5 -0.5s-2.83398 -0.5 -3.50098 -0.5v-49v0zM209.001 521l-14.001 -0.000976562v-63h-27v152h45
c17.333 0 30.666 -4.16699 39.999 -12.5s14 -19.166 14 -32.499c0 -8 -1.33301 -14.5 -4 -19.5s-5.66699 -9 -9 -12s-6.66602 -5.16699 -9.99902 -6.5s-5.66602 -2 -6.99902 -2l37 -67h-31zM213 683.999c21.333 0 41.333 -4 60 -12s34.834 -19 48.501 -33
s24.5 -30.167 32.5 -48.5s12 -38.166 12 -59.499s-4 -41.333 -12 -60s-18.833 -34.834 -32.5 -48.501s-29.834 -24.5 -48.501 -32.5s-38.667 -12 -60 -12s-41.333 4 -60 12s-34.834 18.833 -48.501 32.5s-24.5 29.834 -32.5 48.501s-12 38.667 -12 60s4 41.166 12 59.499
s18.833 34.5 32.5 48.5s29.834 25 48.501 33s38.667 12 60 12zM213 653.999c-16.667 0 -32.5 -3.16699 -47.5 -9.5s-28.167 -15.166 -39.5 -26.499s-20.166 -24.333 -26.499 -39s-9.5 -30.667 -9.5 -48c0 -16.667 3.16699 -32.5 9.5 -47.5s15.166 -28.167 26.499 -39.5
s24.5 -20.166 39.5 -26.499s30.833 -9.5 47.5 -9.5c17.333 0 33.333 3.16699 48 9.5s27.667 15.166 39 26.499s20.166 24.5 26.499 39.5s9.5 30.833 9.5 47.5c0 17.333 -3.16699 33.333 -9.5 48s-15.166 27.667 -26.499 39s-24.333 20.166 -39 26.499s-30.667 9.5 -48 9.5z
" />
    <glyph glyph-name="macron" unicode="&#xaf;" horiz-adv-x="261" 
d="M241 674v-52h-221v52h221v0z" />
    <glyph glyph-name="degree" unicode="&#xb0;" horiz-adv-x="349" 
d="M309 549c0 -18.667 -3.5 -36.167 -10.5 -52.5s-16.5 -30.666 -28.5 -42.999s-26.167 -22 -42.5 -29s-33.833 -10.5 -52.5 -10.5s-36.167 3.5 -52.5 10.5s-30.666 16.667 -42.999 29s-22 26.666 -29 42.999s-10.5 33.833 -10.5 52.5s3.5 36.167 10.5 52.5
s16.667 30.666 29 42.999s26.666 22 42.999 29s33.833 10.5 52.5 10.5s36.167 -3.5 52.5 -10.5s30.5 -16.667 42.5 -29s21.5 -26.666 28.5 -42.999s10.5 -33.833 10.5 -52.5zM175 639c-25.333 0 -46.666 -8.66699 -63.999 -26s-26 -38.666 -26 -63.999
s8.66699 -46.666 26 -63.999s38.666 -26 63.999 -26c24.667 0 45.834 8.66699 63.501 26s26.5 38.666 26.5 63.999s-8.83301 46.666 -26.5 63.999s-38.834 26 -63.501 26z" />
    <glyph glyph-name="plusminus" unicode="&#xb1;" 
d="M54 0v61h513v-61h-513v0zM348 368h219v-62h-219v-180h-77v180h-217v62h217v178h77v-178v0z" />
    <glyph glyph-name="twosuperior" unicode="&#xb2;" horiz-adv-x="259" 
d="M38 370l38.999 42.0029l29 31.5c9.33301 9.66699 15.333 16.167 18 19.5l28.5 34.5c7.66699 9.66699 14.167 18.667 19.5 27s9.16602 16.833 11.499 25.5s3.5 18 3.5 28c0 17.333 -6.16699 32.833 -18.5 46.5s-30.166 20.5 -53.499 20.5c-16 0 -30 -2.66699 -42 -8
s-20 -9.33301 -24 -12l-13 32l23 11.5c14 7 32.667 10.5 56 10.5c18.667 0 35 -2.83301 49 -8.5s25.667 -13.334 35 -23.001s16.333 -20.334 21 -32.001s7 -23.5 7 -35.5c0 -23.333 -6.16699 -44.833 -18.5 -64.5s-27.166 -39.834 -44.499 -60.501l-18.5 -21.5l-25.5 -28.5
l-32 -36h143v-32h-193v33v0z" />
    <glyph glyph-name="threesuperior" unicode="&#xb3;" horiz-adv-x="252" 
d="M35 664c7.33301 3.33301 16.834 6.66504 28.501 9.99805s27.167 5 46.5 5c32 0 56.667 -8.5 74 -25.5s26 -37.833 26 -62.5c0 -13.333 -2.33301 -24.666 -7 -33.999s-10.334 -17 -17.001 -23s-13.334 -10.833 -20.001 -14.5s-11.667 -6.16699 -15 -7.5v-1
c5.33301 -0.666992 11.666 -2.66699 18.999 -6s14.333 -8.33301 21 -15s12.334 -15.167 17.001 -25.5s7 -22.5 7 -36.5c0 -28 -11.5 -51 -34.5 -69s-53.5 -27 -91.5 -27c-13.333 0 -24 0.666992 -32 2s-13 2.33301 -15 3l-3 33c3.33301 -0.666992 9.33301 -1.66699 18 -3
s18.667 -2 30 -2c29.333 0 51.5 6.5 66.5 19.5s22.5 28.5 22.5 46.5c0 15.333 -6 29.833 -18 43.5s-32 20.5 -60 20.5h-34v31h32c21.333 0 39 5.66699 53 17s21 25.666 21 42.999c0 14.667 -5.16699 28.334 -15.5 41.001s-28.166 19 -53.499 19
c-13.333 0 -25.5 -2.16699 -36.5 -6.5s-17.5 -7.16602 -19.5 -8.49902l-10 33v0z" />
    <glyph glyph-name="acute" unicode="&#xb4;" horiz-adv-x="228" 
d="M20 527l80 147h86l-120 -147h-46v0z" />
    <glyph glyph-name="mu" unicode="&#xb5;" 
d="M514 151c0 -24.667 0.670898 -51.1699 2.00391 -79.5029s2.33301 -52.166 3 -71.499h-63c-8.66699 0 -13 4.66699 -13 14v38c0 9.33301 -0.333008 19.333 -1 30h-3c-4.66699 -7.33301 -10.834 -16.166 -18.501 -26.499s-17.834 -20.333 -30.501 -30
s-28.334 -18 -47.001 -25s-41 -10.5 -67 -10.5c-37.333 0 -70.333 8.66699 -99 26v-264h-74v743h74v-311c0 -42 10 -73.833 30 -95.5s46.333 -32.5 79 -32.5c20 0 39.167 4.33301 57.5 13s34.666 21.334 48.999 38.001s25.833 37 34.5 61s13 51.333 13 82v245h74v-344v0z
" />
    <glyph glyph-name="paragraph" unicode="&#xb6;" horiz-adv-x="575" 
d="M380 -173v790.001h-96v-790h-71v483c-12.667 1.33301 -27.334 5.33301 -44.001 12s-32.167 16.667 -46.5 30s-26.5 30.333 -36.5 51s-15 46 -15 76c0 59.333 20.333 106.666 61 141.999s97.334 53 170.001 53h213v-57h-64v-790h-71z" />
    <glyph glyph-name="periodcentered" unicode="&#xb7;" horiz-adv-x="302" 
d="M112 340h78v-78h-78v78z" />
    <glyph glyph-name="cedilla" unicode="&#xb8;" horiz-adv-x="203" 
d="M111 0l-23 -51.0039c2 0.666992 4.83301 1.33398 8.5 2.00098s9.16699 1 16.5 1c23.333 0 41 -7.16699 53 -21.5s18 -31.166 18 -50.499c0 -16.667 -3.83301 -32.167 -11.5 -46.5s-17.834 -27.166 -30.501 -38.499s-27.167 -20.833 -43.5 -28.5
s-33.166 -12.5 -50.499 -14.5l-24 29c10 2 21 5.33301 33 10s23.167 10.667 33.5 18s19 15.833 26 25.5s10.5 20.5 10.5 32.5c0 16 -6.5 28.833 -19.5 38.5s-36.5 12.834 -70.5 9.50098l24 85h50z" />
    <glyph glyph-name="onesuperior" unicode="&#xb9;" horiz-adv-x="188" 
d="M92 337v296c-7.33301 -4.66699 -17.5 -9.16699 -30.5 -13.5s-28.167 -7.5 -45.5 -9.5l-6 27c18 2 35 7 51 15s27.333 17 34 27h36v-342h-39z" />
    <glyph glyph-name="ordmasculine" unicode="&#xba;" horiz-adv-x="432" 
d="M357 250h-273v49h273v-49zM216 641c-32 0 -57.833 -10.666 -77.5 -31.999s-29.5 -52 -29.5 -92c0 -14.667 1.66699 -29.334 5 -44.001s9.16602 -28 17.499 -40s19.333 -21.667 33 -29s30.834 -11 51.501 -11c33.333 0 59.5 10.833 78.5 32.5s28.5 52.167 28.5 91.5
c0 36 -8.83301 65.667 -26.5 89s-44.5 35 -80.5 35zM60 517.001c0 20.667 2.66895 40.998 8.00195 60.998s14.166 37.833 26.499 53.5s28.5 28.334 48.5 38.001s44.333 14.5 73 14.5c26 0 48.833 -4.33301 68.5 -13s36 -20.5 49 -35.5s22.667 -32.667 29 -53
s9.5 -42.166 9.5 -65.499c0 -22.667 -3 -44.167 -9 -64.5s-15.167 -38.166 -27.5 -53.499s-28.333 -27.5 -48 -36.5s-43.5 -13.5 -71.5 -13.5c-48.667 0 -86.834 14.667 -114.501 44s-41.5 70.666 -41.5 123.999z" />
    <glyph glyph-name="guillemotright" unicode="&#xbb;" horiz-adv-x="511" 
d="M278 34l-46 35l137 168l-137 167l44 35l170 -202zM111 34l-46 35l137 168l-137 167l44 35l170 -202z" />
    <glyph glyph-name="onequarter" unicode="&#xbc;" horiz-adv-x="653" 
d="M482 674h49l-403 -674h-49zM108 337v296c-7.33301 -4.66699 -17.5 -9.16699 -30.5 -13.5s-28.167 -7.5 -45.5 -9.5l-6 27c18 2 35 7 51 15s27.333 17 34 27h36v-342h-39zM613 124v-31h-61v-93h-39v93h-130l-11 37l122 207h58v-213h61zM513 300h-2l-104 -176h106v176z" />
    <glyph glyph-name="onehalf" unicode="&#xbd;" horiz-adv-x="699" 
d="M515 674h49l-403 -674h-48zM142 337v296c-7.33301 -4.66699 -17.5 -9.16699 -30.5 -13.5s-28.167 -7.5 -45.5 -9.5l-6 27c18 2 35 7 51 15s27.333 17 34 27h36v-342h-39zM466 33l38.999 42.0029l29 31.5c9.33301 9.66699 15.333 16.167 18 19.5l28.5 34.5
c7.66699 9.66699 14.167 18.667 19.5 27s9.16602 16.833 11.499 25.5s3.5 18 3.5 28c0 17.333 -6.16699 32.833 -18.5 46.5s-30.166 20.5 -53.499 20.5c-16 0 -30 -2.66699 -42 -8s-20 -9.33301 -24 -12l-13 32l23 11.5c14 7 32.667 10.5 56 10.5
c18.667 0 35 -2.83301 49 -8.5s25.667 -13.334 35 -23.001s16.333 -20.5 21 -32.5s7 -24 7 -36c0 -22.667 -6.16699 -43.834 -18.5 -63.501s-27.166 -39.834 -44.499 -60.501l-18.5 -21.5l-25.5 -28.5l-32 -36h143v-32h-193v33v0z" />
    <glyph glyph-name="threequarters" unicode="&#xbe;" horiz-adv-x="703" 
d="M536 674h49l-403 -674h-49zM60 664c6.66699 3.33301 15.999 6.66504 27.999 9.99805s27.333 5 46 5c32 0 56.667 -8.5 74 -25.5s26 -37.833 26 -62.5c0 -13.333 -2.33301 -24.666 -7 -33.999s-10.334 -17 -17.001 -23s-13.167 -10.833 -19.5 -14.5
s-11.166 -6.16699 -14.499 -7.5v-1c5.33301 -0.666992 11.5 -2.66699 18.5 -6s14 -8.33301 21 -15s12.833 -15.167 17.5 -25.5s7 -22.5 7 -36.5c0 -28 -11.667 -51 -35 -69s-54 -27 -92 -27c-13.333 0 -24 0.666992 -32 2s-13 2.33301 -15 3l-3 33
c4 -0.666992 10.333 -1.66699 19 -3s18.667 -2 30 -2c29.333 0 51.333 6.5 66 19.5s22 28.5 22 46.5c0 15.333 -6 29.833 -18 43.5s-32 20.5 -60 20.5h-33v31h32c21.333 0 39 5.66699 53 17s21 25.666 21 42.999c0 14.667 -5.16699 28.334 -15.5 41.001
s-28.166 19 -53.499 19c-13.333 0 -25.5 -2.16699 -36.5 -6.5s-17.833 -7.16602 -20.5 -8.49902zM662.999 123.999v-31h-61v-93h-39v93h-129l-12 37l123 207h57v-213h61zM562.999 299.999h-1l-105 -176h106v176z" />
    <glyph glyph-name="questiondown" unicode="&#xbf;" horiz-adv-x="349" 
d="M330 -204c-11.333 -3.33301 -29.165 -7.50195 -53.498 -12.502s-51.5 -7.5 -81.5 -7.5c-32.667 0 -61.334 4.5 -86.001 13.5s-45 21 -61 36s-28 32 -36 51s-12 38.167 -12 57.5c0 20.667 2.5 39.334 7.5 56.001s11.667 31.834 20 45.501s17.666 26.334 27.999 38.001
s20.833 22.834 31.5 33.501l29 30.5c9.33301 9.66699 17.5 19.834 24.5 30.501s12.5 22.167 16.5 34.5s6 26.166 6 41.499v19h77v-20c0 -22.667 -2.83301 -43.334 -8.5 -62.001s-12.667 -35.167 -21 -49.5s-17 -26.5 -26 -36.5s-16.833 -18.333 -23.5 -25l-29.5 -28.5
c-9.66699 -9 -18.334 -18.5 -26.001 -28.5s-13.834 -20.667 -18.501 -32s-7 -24.333 -7 -39c0 -27.333 11.667 -50.5 35 -69.5s59.666 -28.5 108.999 -28.5c10.667 0 21.834 0.833008 33.501 2.5s22.834 3.66699 33.501 6s20.334 4.66602 29.001 6.99902s15 4.5 19 6.5z
M161.001 458.998h78v-78h-78v78z" />
    <glyph glyph-name="Agrave" unicode="&#xc0;" horiz-adv-x="605" 
d="M343 674l252 -674h-87l-58 164h-301l-59 -164h-80l254 674h79zM171 227h256l-127 356h-3zM158 883h86l80 -147h-46z" />
    <glyph glyph-name="Aacute" unicode="&#xc1;" horiz-adv-x="605" 
d="M343 674l252 -674h-87l-59 164h-300l-60 -164h-79l254 674h79zM171 227h256l-127 356h-3zM351 883h86l-120 -147h-46z" />
    <glyph glyph-name="Acircumflex" unicode="&#xc2;" horiz-adv-x="604" 
d="M264 674h79l251 -674h-86l-59 164h-300l-60 -164h-79l254 674v0zM297 584l-126 -357h256l-128 357h-2v0zM431 736h-46l-82 94l-83 -94h-45l89 147h78l89 -147v0z" />
    <glyph glyph-name="Atilde" unicode="&#xc3;" horiz-adv-x="604" 
d="M343 674l251 -674h-86l-59 164h-300l-60 -164h-79l254 674h79zM171 227h256l-128 357h-2zM132 805c2 2.66699 5.83301 6.83203 11.5 12.499s13 11.5 22 17.5s19.333 11.167 31 15.5s24.5 6.5 38.5 6.5c15.333 0 28.5 -1.83301 39.5 -5.5s21.5 -7.83398 31.5 -12.501
s20.167 -8.83398 30.5 -12.501s22.5 -5.5 36.5 -5.5c14.667 0 27.334 4 38.001 12s18 13.667 22 17l27 -30c-4 -4.66699 -9.33301 -10 -16 -16s-14.5 -11.667 -23.5 -17s-19 -9.83301 -30 -13.5s-22.5 -5.5 -34.5 -5.5c-16 0 -29.333 1.83301 -40 5.5
s-20.834 7.83398 -30.501 12.501s-19.667 8.83398 -30 12.501s-22.833 5.5 -37.5 5.5c-14 0 -26 -3.66699 -36 -11s-17.667 -13.666 -23 -18.999l-27 31v0z" />
    <glyph glyph-name="Adieresis" unicode="&#xc4;" horiz-adv-x="604" 
d="M264 674h78l252 -674h-87l-58 164h-300l-60 -164h-79l254 674v0zM297 584l-127 -357h257l-128 357h-2v0zM159 858h78v-78h-78v78zM344 858h78v-78h-78v78z" />
    <glyph glyph-name="Aring" unicode="&#xc5;" horiz-adv-x="604" 
d="M343 674l251 -674h-86l-59 164h-300l-60 -164h-79l254 674h79zM171 227h256l-127 357h-3zM397 789c0 -27.333 -9.66797 -50.333 -29.001 -69s-42.666 -28 -69.999 -28c-14 0 -27 2.5 -39 7.5s-22.5 11.833 -31.5 20.5s-16.167 19 -21.5 31s-8 24.667 -8 38
s2.66699 25.833 8 37.5s12.5 22 21.5 31s19.5 16 31.5 21s25 7.5 39 7.5c13.333 0 26 -2.5 38 -7.5s22.5 -12 31.5 -21s16.167 -19.333 21.5 -31s8 -24.167 8 -37.5zM297.999 840c-14 0 -26 -5 -36 -15s-15 -22 -15 -36s5 -26 15 -36s22 -15 36 -15s26 5 36 15s15 22 15 36
s-5 26 -15 36s-22 15 -36 15z" />
    <glyph glyph-name="AE" unicode="&#xc6;" horiz-adv-x="845" 
d="M201 227h243v357h-3zM783 612h-262v-234h249v-62h-249v-252h264v-64h-341v164h-285l-111 -164h-88l463 674h360v-62z" />
    <glyph glyph-name="Ccedilla" unicode="&#xc7;" horiz-adv-x="585" 
d="M421 -47c24 0 42.002 -7.33691 54.002 -22.0039s18 -31.667 18 -51c0 -16 -3.83301 -31.333 -11.5 -46s-17.834 -27.667 -30.501 -39s-27.334 -20.666 -44.001 -27.999s-33.667 -12 -51 -14l-23 29c10 2 21 5.33301 33 10s23 10.5 33 17.5s18.5 15.333 25.5 25
s10.5 20.5 10.5 32.5s-3.83301 23.167 -11.5 33.5s-22.167 15.5 -43.5 15.5h-34l21 75c-48.667 3.33301 -91.5 14.5 -128.5 33.5s-68 43.833 -93 74.5s-43.833 66.334 -56.5 107.001s-19 84.334 -19 131.001c0 44.667 6.33301 87.834 19 129.501s32.334 78.667 59.001 111
s60.5 58.166 101.5 77.499s89.833 29 146.5 29c18 0 35.667 -1.16699 53 -3.5s33 -5.16602 47 -8.49902s26.167 -6.5 36.5 -9.5s17.833 -5.5 22.5 -7.5l-17 -70c-11.333 4.66699 -30 11.167 -56 19.5s-57.667 12.5 -95 12.5c-30.667 0 -60.167 -5.5 -88.5 -16.5
s-53.333 -27.833 -75 -50.5s-39 -51.667 -52 -87s-19.5 -77.333 -19.5 -126c0 -38 4.83301 -74 14.5 -108s24.167 -63.833 43.5 -89.5s44 -45.834 74 -60.501s65 -22 105 -22c18.667 0 36.334 1.5 53.001 4.5s31.667 6.33301 45 10s24.5 7.33398 33.5 11.001
s14.833 6.16699 17.5 7.5l17 -71c-3.33301 -1.33301 -9.33301 -3.33301 -18 -6s-19.334 -5.5 -32.001 -8.5s-26.667 -5.83301 -42 -8.5s-31.333 -4.33398 -48 -5.00098l-19 -41c2.66699 0.666992 5.66699 1.33398 9 2.00098s8.66602 1 15.999 1z" />
    <glyph glyph-name="Egrave" unicode="&#xc8;" horiz-adv-x="511" 
d="M110 674h339v-62h-263v-234h250v-62h-250v-254h265v-62h-341v674v0zM345 736h-46l-120 147h85l81 -147v0z" />
    <glyph glyph-name="Eacute" unicode="&#xc9;" horiz-adv-x="511" 
d="M319 736h-45l80 147h85l-120 -147v0zM110 674h339v-62h-263v-234h250v-62h-250v-254h265v-62h-341v674z" />
    <glyph glyph-name="Ecircumflex" unicode="&#xca;" horiz-adv-x="511" 
d="M404 736h-46l-82 94l-83 -94h-45l89 147h77l90 -147v0zM110 674h339v-62h-263v-234h250v-62h-250v-254h265v-62h-341v674z" />
    <glyph glyph-name="Edieresis" unicode="&#xcb;" horiz-adv-x="511" 
d="M159 858h78v-78h-78v78zM344 858h78v-78h-78v78zM110 674h339v-62h-263v-234h250v-62h-250v-254h265v-62h-341v674z" />
    <glyph glyph-name="Igrave" unicode="&#xcc;" horiz-adv-x="296" 
d="M122 674h76v-674h-76v674v0zM196 736h-46l-120 147h85l81 -147v0z" />
    <glyph glyph-name="Iacute" unicode="&#xcd;" horiz-adv-x="296" 
d="M113 674h77v-674h-77v674v0zM156 736h-46l80 147h86l-120 -147v0z" />
    <glyph glyph-name="Icircumflex" unicode="&#xce;" horiz-adv-x="296" 
d="M114 674h77v-674h-77v674v0zM230 736l-83 95l-82 -95h-45l89 147h77l89 -147h-45z" />
    <glyph glyph-name="Idieresis" unicode="&#xcf;" horiz-adv-x="296" 
d="M108 674h77v-674h-77v674v0zM16 858h78v-78h-78v78zM201 858h78v-78h-78v78z" />
    <glyph glyph-name="Eth" unicode="&#xd0;" horiz-adv-x="721" 
d="M317 674c52 0 98.5 -7.5 139.5 -22.5s76 -36.833 105 -65.5s51.167 -64 66.5 -106s23 -89.667 23 -143c0 -46.667 -6.5 -90.5 -19.5 -131.5s-33.167 -76.833 -60.5 -107.5s-62 -54.667 -104 -72s-92 -26 -150 -26h-207v316h-55v62h55v296h207v0zM304 61
c88.667 0 155.337 23.6689 200.004 71.002s67 115.666 67 204.999c0 93.333 -23.833 162.666 -71.5 207.999s-112.834 68 -195.501 68c-10.667 0 -22.167 -0.166992 -34.5 -0.5l-36 -1c-11.667 -0.333008 -21.834 -0.833008 -30.501 -1.5s-14.334 -1.33398 -17.001 -2.00098
v-230h201v-62h-201v-251c1.33301 0 5.66602 -0.333008 12.999 -1s16.5 -1.16699 27.5 -1.5s23.167 -0.666016 36.5 -0.999023s27 -0.5 41 -0.5z" />
    <glyph glyph-name="Ntilde" unicode="&#xd1;" horiz-adv-x="748" 
d="M110 0v674h100l348 -551h5v551h75v-674h-104l-346 563h-4v-563h-74zM205 805c2 2.66699 6.00098 6.83203 12.001 12.499s13.5 11.5 22.5 17.5s19.333 11.167 31 15.5s24.5 6.5 38.5 6.5c15.333 0 28.5 -2 39.5 -6s21.5 -8.16699 31.5 -12.5s20.167 -8.5 30.5 -12.5
s22.5 -6 36.5 -6c7.33301 0 14.166 1.16699 20.499 3.5s12 5.16602 17 8.49902s9.33301 6.66602 13 9.99902s6.5 6 8.5 8l28 -30c-4 -4.66699 -9.33301 -10 -16 -16s-14.5 -11.667 -23.5 -17s-19 -9.83301 -30 -13.5s-22.5 -5.5 -34.5 -5.5c-16 0 -29.5 1.83301 -40.5 5.5
s-21.333 7.83398 -31 12.501s-19.667 8.83398 -30 12.501s-22.833 5.5 -37.5 5.5c-13.333 0 -25 -3.66699 -35 -11s-18 -13.666 -24 -18.999z" />
    <glyph glyph-name="Ograve" unicode="&#xd2;" horiz-adv-x="755" 
d="M378 684c48.667 0 92 -8.50098 130 -25.501s70.167 -40.667 96.5 -71s46.333 -66.833 60 -109.5s20.5 -89.667 20.5 -141s-6.83301 -98.333 -20.5 -141s-33.5 -79.167 -59.5 -109.5s-58 -54 -96 -71s-81.667 -25.5 -131 -25.5c-46 0 -88 7.83301 -126 23.5
s-70.5 38.334 -97.5 68.001s-47.833 66 -62.5 109s-22 91.833 -22 146.5c0 54 7.16699 102.333 21.5 145s35 79 62 109s59.5 53 97.5 69s80.333 24 127 24zM152 336.999c0 -44 5.33203 -83.334 15.999 -118.001s25.667 -64 45 -88s42.833 -42.333 70.5 -55
s58.834 -19 93.501 -19c34 0 65 6.33301 93 19s51.833 31 71.5 55s34.834 53.333 45.501 88s16 74 16 118c0 45.333 -5.5 85.333 -16.5 120s-26.5 63.834 -46.5 87.501s-43.833 41.667 -71.5 54s-58.167 18.5 -91.5 18.5s-63.833 -6 -91.5 -18
s-51.334 -29.833 -71.001 -53.5s-35 -53 -46 -88s-16.5 -75.167 -16.5 -120.5zM232.999 882.998h85l81 -147h-46z" />
    <glyph glyph-name="Oacute" unicode="&#xd3;" horiz-adv-x="755" 
d="M378 684c49.333 0 93 -8.50098 131 -25.501s70 -40.667 96 -71s45.833 -66.833 59.5 -109.5s20.5 -89.667 20.5 -141s-6.83301 -98.333 -20.5 -141s-33.5 -79.167 -59.5 -109.5s-58 -54 -96 -71s-81.667 -25.5 -131 -25.5c-46 0 -88 7.83301 -126 23.5
s-70.5 38.334 -97.5 68.001s-47.833 66 -62.5 109s-22 91.833 -22 146.5c0 54 7.16699 102.333 21.5 145s35 79 62 109s59.5 53 97.5 69s80.333 24 127 24zM152 336.999c0 -89.333 20.166 -158.334 60.499 -207.001s95.5 -73 165.5 -73c34 0 64.833 6.33301 92.5 19
s51.334 31 71.001 55s34.834 53.333 45.501 88s16 74 16 118c0 45.333 -5.5 85.333 -16.5 120s-26.333 63.834 -46 87.501s-43.334 41.667 -71.001 54s-58.167 18.5 -91.5 18.5s-63.833 -6 -91.5 -18s-51.5 -29.833 -71.5 -53.5s-35.5 -53 -46.5 -88
s-16.5 -75.167 -16.5 -120.5zM348.999 735.998l80 147h85l-120 -147h-45z" />
    <glyph glyph-name="Ocircumflex" unicode="&#xd4;" horiz-adv-x="755" 
d="M378 684c48.667 0 92 -8.50098 130 -25.501s70.167 -40.667 96.5 -71s46.333 -66.833 60 -109.5s20.5 -89.667 20.5 -141s-6.83301 -98.333 -20.5 -141s-33.5 -79.167 -59.5 -109.5s-58 -54 -96 -71s-81.667 -25.5 -131 -25.5c-46 0 -88 7.83301 -126 23.5
s-70.5 38.334 -97.5 68.001s-47.833 66 -62.5 109s-22 91.833 -22 146.5c0 54 7.16699 102.333 21.5 145s35 79 62 109s59.5 53 97.5 69s80.333 24 127 24zM152 336.999c0 -44 5.33203 -83.334 15.999 -118.001s25.667 -64 45 -88s42.833 -42.333 70.5 -55
s58.834 -19 93.501 -19c34 0 65 6.33301 93 19s51.833 31 71.5 55s34.834 53.333 45.501 88s16 74 16 118c0 45.333 -5.5 85.333 -16.5 120s-26.5 63.834 -46.5 87.501s-43.833 41.667 -71.5 54s-58.167 18.5 -91.5 18.5s-63.833 -6 -91.5 -18
s-51.334 -29.833 -71.001 -53.5s-35 -53 -46 -88s-16.5 -75.167 -16.5 -120.5zM458.999 735.998l-83 94l-82 -94h-46l90 147h77l89 -147h-45z" />
    <glyph glyph-name="Otilde" unicode="&#xd5;" horiz-adv-x="755" 
d="M378 684c48.667 0 92 -8.50098 130 -25.501s70.167 -40.667 96.5 -71s46.333 -66.833 60 -109.5s20.5 -89.667 20.5 -141s-6.83301 -98.333 -20.5 -141s-33.5 -79.167 -59.5 -109.5s-58 -54 -96 -71s-81.667 -25.5 -131 -25.5c-46 0 -88 7.83301 -126 23.5
s-70.5 38.334 -97.5 68.001s-47.833 66 -62.5 109s-22 91.833 -22 146.5c0 54 7.16699 102.333 21.5 145s35 79 62 109s59.5 53 97.5 69s80.333 24 127 24zM152 336.999c0 -44 5.33203 -83.334 15.999 -118.001s25.667 -64 45 -88s42.833 -42.333 70.5 -55
s58.834 -19 93.501 -19c34 0 65 6.33301 93 19s51.833 31 71.5 55s34.834 53.333 45.501 88s16 74 16 118c0 45.333 -5.5 85.333 -16.5 120s-26.5 63.834 -46.5 87.501s-43.833 41.667 -71.5 54s-58.167 18.5 -91.5 18.5s-63.833 -6 -91.5 -18
s-51.334 -29.833 -71.001 -53.5s-35 -53 -46 -88s-16.5 -75.167 -16.5 -120.5zM200.999 804.998c2 2.66699 5.99805 6.83203 11.998 12.499s13.5 11.5 22.5 17.5s19.333 11.167 31 15.5s24.167 6.5 37.5 6.5c15.333 0 28.5 -1.83301 39.5 -5.5s21.5 -7.83398 31.5 -12.501
s20.167 -8.83398 30.5 -12.501s22.5 -5.5 36.5 -5.5c14.667 0 27.334 4 38.001 12s18 13.667 22 17l27 -30c-4 -4.66699 -9.33301 -10 -16 -16s-14.334 -11.667 -23.001 -17s-18.5 -9.83301 -29.5 -13.5s-22.5 -5.5 -34.5 -5.5c-16 0 -29.5 1.83301 -40.5 5.5
s-21.333 7.83398 -31 12.501s-19.667 8.83398 -30 12.501s-22.833 5.5 -37.5 5.5c-13.333 0 -25.166 -3.66699 -35.499 -11s-18.166 -13.666 -23.499 -18.999l-27 31v0z" />
    <glyph glyph-name="Odieresis" unicode="&#xd6;" horiz-adv-x="755" 
d="M378 684c48.667 0 92 -8.50098 130 -25.501s70.167 -40.667 96.5 -71s46.333 -66.833 60 -109.5s20.5 -89.667 20.5 -141s-6.83301 -98.333 -20.5 -141s-33.5 -79.167 -59.5 -109.5s-58 -54 -96 -71s-81.667 -25.5 -131 -25.5c-46 0 -88 7.83301 -126 23.5
s-70.5 38.334 -97.5 68.001s-47.833 66 -62.5 109s-22 91.833 -22 146.5c0 54 7.16699 102.333 21.5 145s35 79 62 109s59.5 53 97.5 69s80.333 24 127 24zM152 336.999c0 -44 5.33203 -83.334 15.999 -118.001s25.667 -64 45 -88s42.833 -42.333 70.5 -55
s58.834 -19 93.501 -19c34 0 65 6.33301 93 19s51.833 31 71.5 55s34.834 53.333 45.501 88s16 74 16 118c0 45.333 -5.5 85.333 -16.5 120s-26.5 63.834 -46.5 87.501s-43.833 41.667 -71.5 54s-58.167 18.5 -91.5 18.5s-63.833 -6 -91.5 -18
s-51.334 -29.833 -71.001 -53.5s-35 -53 -46 -88s-16.5 -75.167 -16.5 -120.5zM248.999 857.998h78v-78h-78v78zM433.999 857.998h78v-78h-78v78z" />
    <glyph glyph-name="multiply" unicode="&#xd7;" horiz-adv-x="528" 
d="M422 501l44 -44l-151 -152l153 -152l-55 -55l-153 153l-156 -156l-44 43l157 157l-153 152l54 55l153 -153z" />
    <glyph glyph-name="Oslash" unicode="&#xd8;" horiz-adv-x="754" 
d="M684 337c0 -50.667 -6.83105 -97.334 -20.498 -140.001s-33.5 -79.334 -59.5 -110.001s-58 -54.5 -96 -71.5s-81.667 -25.5 -131 -25.5c-15.333 0 -29.833 0.833008 -43.5 2.5s-27.167 4.16699 -40.5 7.5l-36 -101l-65 22l37 104c-50 25.333 -89 64.5 -117 117.5
s-42 117.833 -42 194.5c0 54 7.16699 102.5 21.5 145.5s34.833 79.5 61.5 109.5s59 53 97 69s80.333 24 127 24c15.333 0 29.666 -0.833008 42.999 -2.5s26.666 -4.16699 39.999 -7.5l35 100l66 -22l-36 -102c52 -27.333 91.5 -68.166 118.5 -122.499
s40.5 -118.166 40.5 -191.499zM438.002 610c-20 5.33301 -40.333 8 -61 8c-33.333 0 -63.833 -6 -91.5 -18s-51.334 -29.833 -71.001 -53.5s-35 -53 -46 -88s-16.5 -75.5 -16.5 -121.5c0 -58.667 8.83301 -108.5 26.5 -149.5s42.834 -72.5 75.501 -94.5zM314.002 65
c21.333 -5.33301 42.332 -8 62.999 -8c34 0 65 6.33301 93 19s51.833 31 71.5 55s34.834 53.333 45.501 88s16 74 16 118c0 60 -9.33301 110.5 -28 151.5s-44 72.5 -76 94.5z" />
    <glyph glyph-name="Ugrave" unicode="&#xd9;" horiz-adv-x="734" 
d="M368 -10c-48 0 -88.501 7.16992 -121.501 21.5029s-59.5 34 -79.5 59s-34.5 54.167 -43.5 87.5s-13.5 68.666 -13.5 105.999v410h77v-410c0 -68 14.333 -119.5 43 -154.5s74.667 -52.5 138 -52.5c34 0 62.5 5.16699 85.5 15.5s41.333 24.666 55 42.999
s23.5 40.166 29.5 65.499s9 53 9 83v410h77v-410c0 -39.333 -4.66699 -75.666 -14 -108.999s-24.166 -62.333 -44.499 -87s-46.833 -43.834 -79.5 -57.501s-72 -20.5 -118 -20.5zM227.999 883.003h85l80 -147h-45z" />
    <glyph glyph-name="Uacute" unicode="&#xda;" horiz-adv-x="734" 
d="M368 -10c-48 0 -88.5 7.1709 -121.5 21.5039s-59.5 34 -79.5 59s-34.5 54.167 -43.5 87.5s-13.5 68.666 -13.5 105.999v410h77v-410c0 -68 14.333 -119.5 43 -154.5s74.667 -52.5 138 -52.5c34 0 62.5 5.16699 85.5 15.5s41.333 24.666 55 42.999
s23.5 40.166 29.5 65.499s9 53 9 83v410h77v-410c0 -38.667 -4.66699 -74.834 -14 -108.501s-24.333 -62.667 -45 -87s-47.167 -43.5 -79.5 -57.5s-71.5 -21 -117.5 -21zM421 882.004h85l-120 -146h-45z" />
    <glyph glyph-name="Ucircumflex" unicode="&#xdb;" horiz-adv-x="734" 
d="M368 -10c-48 0 -88.5 7.16992 -121.5 21.5029s-59.5 34 -79.5 59s-34.5 54.167 -43.5 87.5s-13.5 68.666 -13.5 105.999v410h77v-410c0 -68 14.333 -119.5 43 -154.5s74.667 -52.5 138 -52.5c34 0 62.5 5.16699 85.5 15.5s41.333 24.666 55 42.999
s23.5 40.166 29.5 65.499s9 53 9 83v410h77v-410c0 -39.333 -4.66699 -75.666 -14 -108.999s-24.333 -62.333 -45 -87s-47.167 -43.834 -79.5 -57.501s-71.5 -20.5 -117.5 -20.5zM372 830.003l-82 -94h-46l90 147h77l89 -147h-45z" />
    <glyph glyph-name="Udieresis" unicode="&#xdc;" horiz-adv-x="734" 
d="M368 -10c-48 0 -88.501 7.16992 -121.501 21.5029s-59.5 34 -79.5 59s-34.5 54.167 -43.5 87.5s-13.5 68.666 -13.5 105.999v410h77v-410c0 -68 14.333 -119.5 43 -154.5s74.667 -52.5 138 -52.5c34 0 62.5 5.16699 85.5 15.5s41.333 24.666 55 42.999
s23.5 40.166 29.5 65.499s9 53 9 83v410h77v-410c0 -39.333 -4.66699 -75.666 -14 -108.999s-24.166 -62.333 -44.499 -87s-46.833 -43.834 -79.5 -57.501s-72 -20.5 -118 -20.5zM228.999 858.003h78v-78h-78v78zM413.999 858.003h78v-78h-78v78z" />
    <glyph glyph-name="Yacute" unicode="&#xdd;" horiz-adv-x="502" 
d="M210 247l-210 427h84l170 -343l168 343h80l-215 -427v-247h-77v247zM209 736l80 147h86l-120 -147h-46z" />
    <glyph glyph-name="Thorn" unicode="&#xde;" horiz-adv-x="586" 
d="M187 180c4.66699 -0.666992 12.999 -1.16602 24.999 -1.49902s24.667 -0.5 38 -0.5c62.667 0 109.334 14.5 140.001 43.5s46 67.5 46 115.5s-16 86.167 -48 114.5s-78 42.5 -138 42.5c-21.333 0 -36.5 -0.333008 -45.5 -1s-14.833 -1.33398 -17.5 -2.00098v-311v0z
M266.999 122.001c-5.33301 0 -11.999 0.166016 -19.999 0.499023l-24.5 1c-8.33301 0.333008 -15.833 0.833008 -22.5 1.5s-11 1 -13 1v-126h-77v674h77v-125h88c39.333 0 73.833 -5.5 103.5 -16.5s54.667 -25.833 75 -44.5s35.666 -40.667 45.999 -66
s15.5 -52.333 15.5 -81c0 -69.333 -21.833 -123.166 -65.5 -161.499s-104.5 -57.5 -182.5 -57.5z" />
    <glyph glyph-name="germandbls" unicode="&#xdf;" horiz-adv-x="589" 
d="M90 499c0 40.667 5.49805 75.832 16.498 105.499s26 54.334 45 74.001s41.5 34.167 67.5 43.5s53.667 14 83 14c30.667 0 57.5 -4.16699 80.5 -12.5s42.333 -19.166 58 -32.499s27.334 -28.333 35.001 -45s11.5 -33.334 11.5 -50.001c0 -16 -2 -29.833 -6 -41.5
s-9.33301 -22.334 -16 -32.001s-14.167 -18.5 -22.5 -26.5l-25.5 -24c-2 -2 -4.16699 -4 -6.5 -6s-4.83301 -4 -7.5 -6c-12.667 -10.667 -23.667 -21.334 -33 -32.001s-14 -24.667 -14 -42c0 -14.667 3.83301 -27.167 11.5 -37.5s20.167 -21.166 37.5 -32.499l54 -34
c34 -21.333 57.5 -43 70.5 -65s19.5 -44.667 19.5 -68c0 -26.667 -4.83301 -50 -14.5 -70s-23 -36.5 -40 -49.5s-37 -22.833 -60 -29.5s-48.167 -10 -75.5 -10c-25.333 0 -47.166 1.5 -65.499 4.5s-30.166 5.5 -35.499 7.5v30c0 10.667 0.333008 20.667 1 30
c0 8 2.33301 12 7 12c5.33301 0 14.666 -2.83301 27.999 -8.5s33.666 -8.5 60.999 -8.5c40.667 0 70.667 8 90 24s29 35.667 29 59c0 17.333 -4.83301 32.166 -14.5 44.499s-24.5 24.833 -44.5 37.5l-48 30l-27 18.5c-10 7 -19.5 15.5 -28.5 25.5s-16.5 21.833 -22.5 35.5
s-9 29.5 -9 47.5c0 17.333 2.16699 32.666 6.5 45.999s9.83301 25 16.5 35s14.334 19.167 23.001 27.5l25 23.5c3.33301 2.66699 5.83301 4.83398 7.5 6.50098s4.16699 3.83398 7.5 6.50098c13.333 12.667 24.333 24.334 33 35.001s13 24.667 13 42
c0 19.333 -9.33301 36.5 -28 51.5s-46.667 22.5 -84 22.5c-19.333 0 -37.333 -3.66699 -54 -11s-31 -18 -43 -32s-21.5 -31.167 -28.5 -51.5s-10.5 -43.5 -10.5 -69.5v-511h-74v499v0z" />
    <glyph glyph-name="agrave" unicode="&#xe0;" horiz-adv-x="515" 
d="M94 741h85l80 -147h-45zM83 415c0 8.66699 -0.331055 18.4961 -0.998047 29.4961s-1 20.167 -1 27.5c4 2 10.833 4.83301 20.5 8.5s21.167 7.33398 34.5 11.001s28.5 6.83398 45.5 9.50098s35.167 4 54.5 4c66.667 0 116.667 -16.333 150 -49s50 -76.667 50 -132v-197
c0 -21.333 0.833008 -43.5 2.5 -66.5s3.83398 -43.167 6.50098 -60.5h-60c-8.66699 0 -13.834 2.33301 -15.501 7s-2.5 9.66699 -2.5 15l-3 50h-2c-4 -6 -10.167 -13.5 -18.5 -22.5s-19.166 -17.833 -32.499 -26.5s-29.5 -16.167 -48.5 -22.5s-41.5 -9.5 -67.5 -9.5
c-23.333 0 -44.5 4 -63.5 12s-35.333 19.167 -49 33.5s-24.167 31.333 -31.5 51s-11 40.834 -11 63.501c0 29.333 7.16699 54.166 21.5 74.499s33.333 37 57 50s50.667 22.333 81 28s61.5 8.5 93.5 8.5h69v19c0 12 -2.33301 24.333 -7 37s-12.334 24.167 -23.001 34.5
s-24.334 18.833 -41.001 25.5s-37 10 -61 10c-14 0 -27.5 -1.16699 -40.5 -3.5s-24.833 -5 -35.5 -8s-19.834 -6.16699 -27.501 -9.5s-13.167 -5.66602 -16.5 -6.99902c-2.66699 -1.33301 -5.66699 -2.66602 -9 -3.99902s-6.33301 -2 -9 -2
c-4.66699 0 -7.16699 1.5 -7.5 4.5s-0.833008 5.16699 -1.5 6.5zM287.002 250.996c-33.333 0 -61 -3.16797 -83 -9.50098s-39.5 -14.166 -52.5 -23.499s-22.167 -19.833 -27.5 -31.5s-8 -23.167 -8 -34.5c0 -27.333 9 -49.833 27 -67.5s43.667 -26.5 77 -26.5
c23.333 0 43.833 4.16699 61.5 12.5s32.5 19.5 44.5 33.5s21 30.5 27 49.5s9 39.167 9 60.5v37h-75z" />
    <glyph glyph-name="aacute" unicode="&#xe1;" horiz-adv-x="515" 
d="M290 741h85l-119 -147h-46zM83 415c-0.666992 8.66699 -1.16211 18.4961 -1.49512 29.4961s-0.5 20.167 -0.5 27.5c4 2 10.833 4.83301 20.5 8.5s21.167 7.33398 34.5 11.001s28.5 6.83398 45.5 9.50098s35.167 4 54.5 4c66.667 0 116.667 -16.333 150 -49
s50 -76.667 50 -132v-197c0 -21.333 0.833008 -43.5 2.5 -66.5s3.83398 -43.167 6.50098 -60.5h-61c-8 0 -12.833 2.33301 -14.5 7s-2.83398 9.66699 -3.50098 15l-3 50h-2c-4 -6 -10 -13.5 -18 -22.5s-18.667 -17.833 -32 -26.5s-29.5 -16.167 -48.5 -22.5
s-41.5 -9.5 -67.5 -9.5c-23.333 0 -44.5 4 -63.5 12s-35.333 19.167 -49 33.5s-24.167 31.333 -31.5 51s-11 40.834 -11 63.501c0 29.333 7.16699 54.166 21.5 74.499s33.166 37 56.499 50s50.333 22.333 81 28s62 8.5 94 8.5h69v19c0 12 -2.33301 24.333 -7 37
s-12.334 24.167 -23.001 34.5s-24.334 18.833 -41.001 25.5s-37 10 -61 10c-14 0 -27.5 -1.16699 -40.5 -3.5s-24.833 -5 -35.5 -8s-19.834 -6.16699 -27.501 -9.5s-13.167 -5.66602 -16.5 -6.99902c-2.66699 -1.33301 -5.66699 -2.66602 -9 -3.99902s-6.33301 -2 -9 -2
c-4.66699 0 -7.33398 1.5 -8.00098 4.5s-1 5.16699 -1 6.5zM287.005 250.996c-33.333 0 -61 -3.16797 -83 -9.50098s-39.5 -14.166 -52.5 -23.499s-22.167 -19.833 -27.5 -31.5s-8 -23.167 -8 -34.5c0 -27.333 8.83301 -49.833 26.5 -67.5s43.5 -26.5 77.5 -26.5
c23.333 0 43.833 4.16699 61.5 12.5s32.5 19.5 44.5 33.5s21 30.5 27 49.5s9 39.167 9 60.5v37h-75z" />
    <glyph glyph-name="acircumflex" unicode="&#xe2;" horiz-adv-x="515" 
d="M235 689l-82 -95h-46l89 147h78l89 -147h-45zM83 415c-0.666992 8.66699 -1.16309 18.4961 -1.49609 29.4961s-0.5 20.167 -0.5 27.5c4 2 10.833 4.83301 20.5 8.5s21.167 7.33398 34.5 11.001s28.5 6.83398 45.5 9.50098s35.167 4 54.5 4
c66.667 0 116.667 -16.333 150 -49s50 -76.667 50 -132v-197c0 -21.333 0.833008 -43.5 2.5 -66.5s3.83398 -43.167 6.50098 -60.5h-60c-8.66699 0 -13.834 2.33301 -15.501 7s-2.83398 9.66699 -3.50098 15l-2 50h-3c-4 -6 -10 -13.5 -18 -22.5s-18.667 -17.833 -32 -26.5
s-29.5 -16.167 -48.5 -22.5s-41.5 -9.5 -67.5 -9.5c-23.333 0 -44.5 4 -63.5 12s-35.333 19.167 -49 33.5s-24.167 31.333 -31.5 51s-11 40.834 -11 63.501c0 29.333 7.16699 54.166 21.5 74.499s33.333 37 57 50s50.667 22.333 81 28s61.5 8.5 93.5 8.5h69v19
c0 12 -2.33301 24.333 -7 37s-12.334 24.167 -23.001 34.5s-24.334 18.833 -41.001 25.5s-37 10 -61 10c-14 0 -27.5 -1.16699 -40.5 -3.5s-24.833 -5 -35.5 -8s-19.834 -6.16699 -27.501 -9.5s-13.167 -5.66602 -16.5 -6.99902
c-2.66699 -1.33301 -5.66699 -2.66602 -9 -3.99902s-6.33301 -2 -9 -2c-4.66699 0 -7.16699 1.5 -7.5 4.5s-0.833008 5.16699 -1.5 6.5zM287.004 250.996c-33.333 0 -61 -3.16797 -83 -9.50098s-39.5 -14.166 -52.5 -23.499s-22.167 -19.833 -27.5 -31.5
s-8 -23.167 -8 -34.5c0 -27.333 9 -49.833 27 -67.5s43.667 -26.5 77 -26.5c23.333 0 43.833 4.16699 61.5 12.5s32.5 19.5 44.5 33.5s21 30.5 27 49.5s9 39.167 9 60.5v37h-75z" />
    <glyph glyph-name="atilde" unicode="&#xe3;" horiz-adv-x="515" 
d="M67 655c2 2.66699 6.00098 7.00293 12.001 13.0029s13.5 12 22.5 18s19.333 11.167 31 15.5s24.5 6.5 38.5 6.5c15.333 0 28.5 -2 39.5 -6s21.5 -8.16699 31.5 -12.5s20.167 -8.5 30.5 -12.5s22.5 -6 36.5 -6c7.33301 0 14.166 1.16699 20.499 3.5s12 5.16602 17 8.49902
s9.33301 6.66602 13 9.99902s6.5 6 8.5 8l28 -31c-4 -4.66699 -9.33301 -10 -16 -16s-14.5 -11.667 -23.5 -17s-19 -9.83301 -30 -13.5s-22.5 -5.5 -34.5 -5.5c-16 0 -29.333 2 -40 6s-21 8.16699 -31 12.5s-20.167 8.5 -30.5 12.5s-22.833 6 -37.5 6
c-13.333 0 -25 -3.83301 -35 -11.5s-17.667 -13.834 -23 -18.501l-28 30v0zM83.001 415.003c-0.666992 8.66699 -1.16113 18.4961 -1.49414 29.4961s-0.5 20.167 -0.5 27.5c4 2 10.833 4.83301 20.5 8.5s21.167 7.33398 34.5 11.001s28.5 6.83398 45.5 9.50098
s35.167 4 54.5 4c66.667 0 116.667 -16.333 150 -49s50 -76.667 50 -132v-197c0 -21.333 0.833008 -43.5 2.5 -66.5s3.83398 -43.167 6.50098 -60.5h-60c-8.66699 0 -13.834 2.33301 -15.501 7s-2.83398 9.66699 -3.50098 15l-2 50h-3c-4 -6 -10 -13.5 -18 -22.5
s-18.667 -17.833 -32 -26.5s-29.5 -16.167 -48.5 -22.5s-41.5 -9.5 -67.5 -9.5c-23.333 0 -44.5 4 -63.5 12s-35.333 19.167 -49 33.5s-24.167 31.333 -31.5 51s-11 40.834 -11 63.501c0 29.333 7.16699 54.166 21.5 74.499s33.166 37 56.499 50s50.333 22.333 81 28
s62 8.5 94 8.5h69v19c0 12 -2.33301 24.333 -7 37s-12.334 24.167 -23.001 34.5s-24.334 18.833 -41.001 25.5s-37 10 -61 10c-14 0 -27.5 -1.16699 -40.5 -3.5s-24.833 -5 -35.5 -8s-19.834 -6.16699 -27.501 -9.5s-13.167 -5.66602 -16.5 -6.99902
c-2.66699 -1.33301 -5.66699 -2.66602 -9 -3.99902s-6.33301 -2 -9 -2c-4.66699 0 -7.33398 1.5 -8.00098 4.5s-1 5.16699 -1 6.5zM287.007 250.999c-33.333 0 -61 -3.16797 -83 -9.50098s-39.5 -14.166 -52.5 -23.499s-22.167 -19.833 -27.5 -31.5s-8 -23.167 -8 -34.5
c0 -27.333 9 -49.833 27 -67.5s43.667 -26.5 77 -26.5c23.333 0 43.833 4.16699 61.5 12.5s32.5 19.5 44.5 33.5s21 30.5 27 49.5s9 39.167 9 60.5v37h-75z" />
    <glyph glyph-name="adieresis" unicode="&#xe4;" horiz-adv-x="515" 
d="M83 415c-0.666992 8.66699 -1.16504 18.4961 -1.49805 29.4961s-0.5 20.167 -0.5 27.5c4 2 10.833 4.83301 20.5 8.5s21.167 7.33398 34.5 11.001s28.5 6.83398 45.5 9.50098s35.167 4 54.5 4c66.667 0 116.667 -16.333 150 -49s50 -76.667 50 -132v-197
c0 -21.333 0.833008 -43.5 2.5 -66.5s3.83398 -43.167 6.50098 -60.5h-60c-8.66699 0 -13.834 2.33301 -15.501 7s-2.5 9.66699 -2.5 15l-3 50h-2c-4 -6 -10.167 -13.5 -18.5 -22.5s-19.166 -17.833 -32.499 -26.5s-29.5 -16.167 -48.5 -22.5s-41.5 -9.5 -67.5 -9.5
c-23.333 0 -44.5 4 -63.5 12s-35.333 19.167 -49 33.5s-24.167 31.333 -31.5 51s-11 40.834 -11 63.501c0 29.333 7.16699 54.166 21.5 74.499s33.333 37 57 50s50.667 22.333 81 28s61.5 8.5 93.5 8.5h69v19c0 12 -2.33301 24.333 -7 37s-12.334 24.167 -23.001 34.5
s-24.334 18.833 -41.001 25.5s-37 10 -61 10c-14 0 -27.5 -1.16699 -40.5 -3.5s-24.833 -5 -35.5 -8s-19.834 -6.16699 -27.501 -9.5s-13.167 -5.66602 -16.5 -6.99902c-2.66699 -1.33301 -5.66699 -2.66602 -9 -3.99902s-6.33301 -2 -9 -2
c-4.66699 0 -7.16699 1.5 -7.5 4.5s-0.833008 5.16699 -1.5 6.5zM287.002 250.996c-33.333 0 -61 -3.16797 -83 -9.50098s-39.5 -14.166 -52.5 -23.499s-22.167 -19.833 -27.5 -31.5s-8 -23.167 -8 -34.5c0 -27.333 9 -49.833 27 -67.5s43.667 -26.5 77 -26.5
c23.333 0 43.833 4.16699 61.5 12.5s32.5 19.5 44.5 33.5s21 30.5 27 49.5s9 39.167 9 60.5v37h-75zM102.002 700.995h78v-78h-78v78zM287.002 700.995h78v-78h-78v78z" />
    <glyph glyph-name="aring" unicode="&#xe5;" horiz-adv-x="516" 
d="M334 670c0 -27.333 -9.5 -50.333 -28.5 -69s-42.5 -28 -70.5 -28s-51.5 9.33301 -70.5 28s-28.5 41.667 -28.5 69s9.5 50.333 28.5 69s42.5 28 70.5 28s51.5 -9.33301 70.5 -28s28.5 -41.667 28.5 -69zM235 721c-14 0 -26 -5 -36 -15s-15 -22 -15 -36s5 -26 15 -36
s22 -15 36 -15s26 5 36 15s15 22 15 36s-5 26 -15 36s-22 15 -36 15zM84 414c-0.666992 9.33301 -1.33301 19.4961 -2 30.4961s-1 20.167 -1 27.5c4.66699 2 11.834 4.66699 21.501 8s21.167 6.83301 34.5 10.5s28.5 6.83398 45.5 9.50098s34.833 4 53.5 4
c66.667 0 116.834 -16.333 150.501 -49s50.5 -76.334 50.5 -131.001v-197c0 -22 0.833008 -44.5 2.5 -67.5s3.83398 -42.833 6.50098 -59.5h-61c-8 0 -12.833 2.16699 -14.5 6.5s-2.83398 9.5 -3.50098 15.5l-3 49h-2c-4 -6 -10.167 -13.5 -18.5 -22.5
s-19.166 -17.833 -32.499 -26.5s-29.5 -16.167 -48.5 -22.5s-41.5 -9.5 -67.5 -9.5c-23.333 0 -44.5 4 -63.5 12s-35.333 19.167 -49 33.5s-24.167 31.333 -31.5 51s-11 40.834 -11 63.501c0 29.333 7.16699 54.333 21.5 75s33.333 37.334 57 50.001
s50.667 21.834 81 27.501s61.5 8.5 93.5 8.5h70v19c0 12.667 -2.33301 25.334 -7 38.001s-12.334 24.167 -23.001 34.5s-24.5 18.833 -41.5 25.5s-37.5 10 -61.5 10c-14 0 -27.5 -1.16699 -40.5 -3.5s-24.833 -5.16602 -35.5 -8.49902s-19.834 -6.5 -27.501 -9.5
s-13.167 -5.5 -16.5 -7.5c-2 -0.666992 -4.83301 -1.83398 -8.5 -3.50098s-6.83398 -2.5 -9.50098 -2.5c-4.66699 0 -7.16699 1.5 -7.5 4.5s-0.5 5.16699 -0.5 6.5zM287.001 249.996c-33.333 0 -61 -2.99805 -83 -8.99805s-39.5 -13.833 -52.5 -23.5
s-22.167 -20.334 -27.5 -32.001s-8 -23.167 -8 -34.5c0 -27.333 9 -49.833 27 -67.5s43.667 -26.5 77 -26.5c23.333 0 44 4.16699 62 12.5s33 19.666 45 33.999s21 31 27 50s9 38.833 9 59.5v37h-76z" />
    <glyph glyph-name="ae" unicode="&#xe6;" horiz-adv-x="845" 
d="M235 227c-22.667 0 -41.667 -2.66504 -57 -7.99805s-27.5 -12 -36.5 -20s-15.5 -16.833 -19.5 -26.5s-6 -19.167 -6 -28.5c0 -26.667 9.66699 -47.834 29 -63.501s46 -23.5 80 -23.5c23.333 0 43.5 4.16699 60.5 12.5s31.167 19.666 42.5 33.999s19.833 31 25.5 50
s8.5 38.833 8.5 59.5v14h-127v0zM412 416.002c6.66699 11.333 15.1729 22.3232 25.5059 32.9902s22.666 20 36.999 28s30.666 14.5 48.999 19.5s39.166 7.5 62.499 7.5c39.333 0 72.333 -6.16699 99 -18.5s48.167 -28.333 64.5 -48s28 -41.667 35 -66
s10.5 -48.166 10.5 -71.499c0 -20 -0.5 -36.667 -1.5 -50s-1.83301 -21 -2.5 -23h-354c0.666992 -18 4.5 -37 11.5 -57s17.667 -38.333 32 -55s33.166 -30.5 56.499 -41.5s51.333 -16.5 84 -16.5c30 0 55.333 3.33301 76 10s33.667 11.334 39 14.001
c3.33301 2 6.66602 3.83301 9.99902 5.5s6.33301 2.5 9 2.5c5.33301 0 8.33301 -3.66699 9 -11s1.16699 -16.666 1.5 -27.999s0.5 -22.666 0.5 -33.999l-22 -6.5c-10 -3 -21.833 -6 -35.5 -9s-28.667 -5.5 -45 -7.5s-33.166 -3 -50.499 -3
c-54 0 -98.833 9.16699 -134.5 27.5s-63.167 44.5 -82.5 78.5h-2l-18.5 -30.5c-7.66699 -12.333 -18.667 -24 -33 -35s-32.333 -20.5 -54 -28.5s-48.834 -12 -81.501 -12c-25.333 0 -48.333 4 -69 12s-38.167 18.667 -52.5 32s-25.5 29.333 -33.5 48s-12 38.334 -12 59.001
c0 20 3.83301 38.833 11.5 56.5s19.5 33.167 35.5 46.5s36.167 24 60.5 32s52.833 12 85.5 12h129v42c0 12.667 -2.33301 25.334 -7 38.001s-12.334 24.167 -23.001 34.5s-24.334 18.833 -41.001 25.5s-37 10 -61 10c-14 0 -27.5 -1.16699 -40.5 -3.5s-24.833 -5 -35.5 -8
s-19.834 -6.16699 -27.501 -9.5s-13.167 -5.66602 -16.5 -6.99902l-9 -4.5c-3.33301 -1.66699 -6.33301 -2.5 -9 -2.5c-4.66699 0 -7.16699 1.5 -7.5 4.5s-0.5 5.16699 -0.5 6.5c-0.666992 9.33301 -1.33398 19.5 -2.00098 30.5s-1 20.167 -1 27.5
c4 2 10.833 4.66699 20.5 8s21.334 6.83301 35.001 10.5s29 6.83398 46 9.50098s34.833 4 53.5 4c27.333 0 50.833 -2.66699 70.5 -8s36.334 -12.166 50.001 -20.499s24.834 -17.666 33.501 -27.999s16 -20.833 22 -31.5zM719.006 287.992
c0 1.33301 0.166016 3.49609 0.499023 6.49609s0.5 5.83301 0.5 8.5c0 14 -2 28.833 -6 44.5s-11.167 30.334 -21.5 44.001s-24.166 24.834 -41.499 33.501s-39.666 13 -66.999 13c-28.667 0 -52.334 -5.33301 -71.001 -16s-33.667 -23.667 -45 -39
s-19.333 -31.666 -24 -48.999s-7 -32.666 -7 -45.999h282z" />
    <glyph glyph-name="ccedilla" unicode="&#xe7;" horiz-adv-x="453" 
d="M316 -48c23.333 0 40.999 -7.33398 52.999 -22.001s18 -31.667 18 -51c0 -16 -3.83301 -31.333 -11.5 -46s-17.834 -27.667 -30.501 -39s-27.167 -20.666 -43.5 -27.999s-33.166 -12 -50.499 -14l-24 28c10 2 21 5.33301 33 10s23.167 10.667 33.5 18s19 15.833 26 25.5
s10.5 20.5 10.5 32.5s-3.83301 23 -11.5 33s-22.167 15 -43.5 15h-35l22 77c-66.667 6 -118.667 31.667 -156 77s-56 105 -56 179c0 36 5.16699 69.667 15.5 101s25.5 58.5 45.5 81.5s45.167 41.167 75.5 54.5s65.5 20 105.5 20c16 0 31.167 -1.16699 45.5 -3.5
s27.166 -5.16602 38.499 -8.49902s20.833 -6.5 28.5 -9.5s13.5 -5.5 17.5 -7.5c0 -8 -0.166992 -17.333 -0.5 -28s-0.833008 -19.334 -1.5 -26.001c0 -2 -0.333008 -4.66699 -1 -8s-3.33398 -5 -8.00098 -5c-2 0 -4.5 0.5 -7.5 1.5s-5.5 2.16699 -7.5 3.5
c-3.33301 2 -13.166 6.5 -29.499 13.5s-38.5 10.5 -66.5 10.5c-27.333 0 -51.666 -5 -72.999 -15s-39.5 -23.667 -54.5 -41s-26.333 -37.5 -34 -60.5s-11.5 -47.5 -11.5 -73.5c0 -26.667 4 -51.5 12 -74.5s19.5 -43.167 34.5 -60.5s32.833 -31 53.5 -41s43.667 -15 69 -15
c28.667 0 50.334 2.83301 65.001 8.5s24.667 9.83398 30 12.501c10.667 5.33301 17.334 8 20.001 8c6 0 9 -3.66699 9 -11c0.666992 -6.66699 1.16699 -15.334 1.5 -26.001s0.833008 -20.667 1.5 -30c-7.33301 -3.33301 -21 -8.5 -41 -15.5s-44 -11.167 -72 -12.5l-19 -42
c2.66699 1.33301 5.66699 2.33301 9 3s8.66602 1 15.999 1z" />
    <glyph glyph-name="egrave" unicode="&#xe8;" horiz-adv-x="535" 
d="M275 504c39.333 0 72.5049 -6.66699 99.5049 -20s48.667 -30.333 65 -51s28 -43.5 35 -68.5s10.5 -49.167 10.5 -72.5c0 -20 -0.666992 -36.5 -2 -49.5s-2 -20.167 -2 -21.5h-355c0.666992 -18 4.5 -36.667 11.5 -56s17.667 -37 32 -53s33.166 -29.167 56.499 -39.5
s51.333 -15.5 84 -15.5c30 0 55.333 3.5 76 10.5s33.667 11.833 39 14.5c4 1.33301 7.5 2.83301 10.5 4.5s5.83301 2.5 8.5 2.5c6 0 9 -3.66699 9 -11c0.666992 -7.33301 1.16699 -16.666 1.5 -27.999s0.5 -22.333 0.5 -33c-4.66699 -2 -11.834 -4.5 -21.501 -7.5
s-21.334 -6 -35.001 -9s-28.667 -5.5 -45 -7.5s-33.5 -3 -51.5 -3c-84.667 0 -147.834 23 -189.501 69s-62.5 108.333 -62.5 187c0 39.333 5.16699 74.833 15.5 106.5s25.166 58.667 44.499 81s43 39.666 71 51.999s59.333 18.5 94 18.5zM126.005 280l281.999 -0.000976562
c0.666992 1.33301 1 3.33301 1 6v9c0 14 -2 29.333 -6 46s-11 32.167 -21 46.5s-23.667 26.333 -41 36s-39.666 14.5 -66.999 14.5c-28.667 0 -52.5 -5.66699 -71.5 -17s-34.167 -25.166 -45.5 -41.499s-19.333 -33.5 -24 -51.5s-7 -34 -7 -48zM255.004 593.999l-120 147h86
l80 -147h-46z" />
    <glyph glyph-name="eacute" unicode="&#xe9;" horiz-adv-x="535" 
d="M275 504c39.333 0 72.5039 -6.66699 99.5039 -20s48.667 -30.333 65 -51s28 -43.5 35 -68.5s10.5 -49.167 10.5 -72.5c0 -20 -0.666992 -36.5 -2 -49.5s-2 -20.167 -2 -21.5h-355c0.666992 -18 4.5 -36.667 11.5 -56s17.833 -37 32.5 -53s33.5 -29.167 56.5 -39.5
s51.167 -15.5 84.5 -15.5c30 0 55.333 3.5 76 10.5s33.667 11.833 39 14.5c3.33301 1.33301 6.5 2.83301 9.5 4.5s5.83301 2.5 8.5 2.5c6 0 9 -3.66699 9 -11c0.666992 -7.33301 1.16699 -16.666 1.5 -27.999s0.5 -22.333 0.5 -33c-4.66699 -2 -11.834 -4.5 -21.501 -7.5
s-21.334 -6 -35.001 -9s-28.667 -5.5 -45 -7.5s-33.5 -3 -51.5 -3c-84.667 0 -147.834 23 -189.501 69s-62.5 108.333 -62.5 187c0 39.333 5.16699 74.833 15.5 106.5s25.166 58.667 44.499 81s43 39.666 71 51.999s59.333 18.5 94 18.5zM126.004 280l282.999 -0.000976562
v15c0 14 -2 29.333 -6 46s-11 32.167 -21 46.5s-23.667 26.333 -41 36s-39.666 14.5 -66.999 14.5c-28.667 0 -52.5 -5.66699 -71.5 -17s-34.167 -25.166 -45.5 -41.499s-19.333 -33.5 -24 -51.5s-7 -34 -7 -48zM250.003 593.999l80 147h85l-120 -147h-45z" />
    <glyph glyph-name="ecircumflex" unicode="&#xea;" horiz-adv-x="535" 
d="M275 504c39.333 0 72.5 -6.66699 99.5 -20s48.667 -30.333 65 -51s28 -43.5 35 -68.5s10.5 -49.167 10.5 -72.5c0 -20 -0.666992 -36.5 -2 -49.5s-2 -20.167 -2 -21.5h-355c0.666992 -18 4.5 -36.667 11.5 -56s17.833 -37 32.5 -53s33.5 -29.167 56.5 -39.5
s51.167 -15.5 84.5 -15.5c30 0 55.333 3.5 76 10.5s33.667 11.833 39 14.5c3.33301 1.33301 6.5 2.83301 9.5 4.5s5.83301 2.5 8.5 2.5c6 0 9 -3.66699 9 -11c0.666992 -7.33301 1.16699 -16.666 1.5 -27.999s0.833008 -22.333 1.5 -33c-4.66699 -2 -12 -4.5 -22 -7.5
s-21.833 -6 -35.5 -9s-28.667 -5.5 -45 -7.5s-33.166 -3 -50.499 -3c-85.333 0 -148.833 23 -190.5 69s-62.5 108.333 -62.5 187c0 39.333 5.16699 74.833 15.5 106.5s25.166 58.667 44.499 81s43 39.666 71 51.999s59.333 18.5 94 18.5zM126 280l282.999 -0.000976562v15
c0 14 -2 29.333 -6 46s-11 32.167 -21 46.5s-23.667 26.333 -41 36s-39.666 14.5 -66.999 14.5c-28.667 0 -52.5 -5.66699 -71.5 -17s-34.167 -25.166 -45.5 -41.499s-19.333 -33.5 -24 -51.5s-7 -34 -7 -48zM355.999 593.999l-82 94l-83 -94h-45l89 147h77l90 -147h-46z
" />
    <glyph glyph-name="edieresis" unicode="&#xeb;" horiz-adv-x="535" 
d="M275 504c39.333 0 72.3369 -6.66699 99.0039 -20s48.334 -30.333 65.001 -51s28.5 -43.5 35.5 -68.5s10.5 -49.167 10.5 -72.5c0 -20 -0.666992 -36.5 -2 -49.5s-2 -20.167 -2 -21.5h-355c0.666992 -18 4.5 -36.667 11.5 -56s17.667 -37 32 -53
s33.166 -29.167 56.499 -39.5s51.333 -15.5 84 -15.5c30 0 55.333 3.5 76 10.5s33.667 11.833 39 14.5c4 1.33301 7.5 2.83301 10.5 4.5s5.83301 2.5 8.5 2.5c5.33301 0 8.33301 -3.66699 9 -11s1.16699 -16.666 1.5 -27.999s0.5 -22.333 0.5 -33
c-4.66699 -2 -11.834 -4.5 -21.501 -7.5s-21.334 -6 -35.001 -9s-28.667 -5.5 -45 -7.5s-33.5 -3 -51.5 -3c-84.667 0 -147.834 23 -189.501 69s-62.5 108.333 -62.5 187c0 39.333 5.16699 74.833 15.5 106.5s25.166 58.667 44.499 81s43 39.666 71 51.999
s59.333 18.5 94 18.5zM126.004 280l281.999 -0.000976562c0.666992 1.33301 1 3.33301 1 6v9c0 14 -2 29.333 -6 46s-11 32.167 -21 46.5s-23.667 26.333 -41 36s-39.666 14.5 -66.999 14.5c-28.667 0 -52.5 -5.66699 -71.5 -17s-34.167 -25.166 -45.5 -41.499
s-19.333 -33.5 -24 -51.5s-7 -34 -7 -48zM141.003 700.999h78v-78h-78v78zM326.003 700.999h78v-78h-78v78z" />
    <glyph glyph-name="igrave" unicode="&#xec;" horiz-adv-x="238" 
d="M77 0v494h74v-494h-74v0zM146 594h-46l-120 146h85l81 -146v0z" />
    <glyph glyph-name="iacute" unicode="&#xed;" horiz-adv-x="238" 
d="M80 0v494h74v-494h-74v0zM126 594h-46l80 146h86l-120 -146v0z" />
    <glyph glyph-name="icircumflex" unicode="&#xee;" horiz-adv-x="238" 
d="M83 0v494h74v-494h-74v0zM247 594h-46l-82 94l-83 -94h-45l89 146h77l90 -146v0z" />
    <glyph glyph-name="idieresis" unicode="&#xef;" horiz-adv-x="238" 
d="M81 0v494h75v-494h-75v0zM-12 701h78v-78h-78v78zM173 701h78v-78h-78v78z" />
    <glyph glyph-name="eth" unicode="&#xf0;" horiz-adv-x="581" 
d="M290 412c-49.333 0 -88.9971 -15.667 -118.997 -47s-45 -75 -45 -131c0 -18.667 2.66699 -38.334 8 -59.001s14.166 -39.834 26.499 -57.501s29 -32.167 50 -43.5s47.5 -17 79.5 -17c25.333 0 48.166 4.5 68.499 13.5s37.5 21.333 51.5 37s24.833 34.334 32.5 56.001
s11.5 45.167 11.5 70.5c0 24.667 -3.33301 47.834 -10 69.501s-16.834 40.5 -30.501 56.5s-30.667 28.667 -51 38s-44.5 14 -72.5 14zM411.003 622c15.333 -18 30.1709 -40.167 44.5039 -66.5s27.166 -55.5 38.499 -87.5s20.333 -66 27 -102s10 -72.667 10 -110
c0 -32.667 -4.16699 -65 -12.5 -97s-22 -60.5 -41 -85.5s-43.833 -45.167 -74.5 -60.5s-68.334 -23 -113.001 -23c-36.667 0 -69.834 5.83301 -99.501 17.5s-55 28 -76 49s-37 46.667 -48 77s-16.5 63.833 -16.5 100.5c0 29.333 4.16699 58.5 12.5 87.5s22 55 41 78
s43.833 41.833 74.5 56.5s68 22 112 22c20 0 37.5 -1.33301 52.5 -4s27.5 -6 37.5 -10s18.167 -8 24.5 -12s11.166 -7.33301 14.499 -10l2 2c-16 55.333 -39.667 101.666 -71 138.999l-101 -63l-30 48l89 57c-7.33301 6.66699 -15 12.834 -23 18.501
s-16.667 11.167 -26 16.5c-8.66699 5.33301 -7.66699 15.333 3 30c5.33301 7.33301 9.33301 13.333 12 18s6 10 10 16l35.5 -21.5c15 -9 31.833 -21.833 50.5 -38.5l85 55l33 -49l-77 -48v0z" />
    <glyph glyph-name="ntilde" unicode="&#xf1;" horiz-adv-x="576" 
d="M85 0l-0.000976562 343.001c0 12.667 -0.166992 25.834 -0.5 39.501l-1 40.5c-0.333008 13.333 -0.833008 26.166 -1.5 38.499s-1.33398 23.166 -2.00098 32.499h63c8.66699 0 13 -4.33301 13 -13c0 -3.33301 0.166992 -8.5 0.5 -15.5s0.5 -14.5 0.5 -22.5v-30h2
c4.66699 7.33301 10.834 16.166 18.501 26.499s17.834 20.333 30.501 30s28.334 17.834 47.001 24.501s41 10 67 10c24.667 0 47.667 -3.83301 69 -11.5s39.666 -18.667 54.999 -33s27.5 -32.333 36.5 -54s13.5 -46.5 13.5 -74.5v-331h-75v311
c0 41.333 -9.83301 72.833 -29.5 94.5s-45.834 32.5 -78.501 32.5c-20 0 -39.167 -4.33301 -57.5 -13s-34.666 -21.167 -48.999 -37.5s-25.833 -36.5 -34.5 -60.5s-13 -51.333 -13 -82v-245h-74zM98.999 655.001c2 2.66699 6 6.83203 12 12.499s13.5 11.5 22.5 17.5
s19.333 11.167 31 15.5s24.167 6.5 37.5 6.5c15.333 0 28.666 -1.83301 39.999 -5.5s22 -7.83398 32 -12.501s20.167 -8.83398 30.5 -12.501s22.5 -5.5 36.5 -5.5s26.333 4 37 12s18 14 22 18l27 -31c-4 -4.66699 -9.33301 -10 -16 -16s-14.334 -11.667 -23.001 -17
s-18.5 -9.83301 -29.5 -13.5s-22.5 -5.5 -34.5 -5.5c-16 0 -29.5 1.83301 -40.5 5.5s-21.333 7.83398 -31 12.501s-19.667 8.83398 -30 12.501s-22.833 5.5 -37.5 5.5c-13.333 0 -25.166 -3.66699 -35.499 -11s-18.166 -13.666 -23.499 -18.999z" />
    <glyph glyph-name="ograve" unicode="&#xf2;" horiz-adv-x="580" 
d="M290 438c-49.333 0 -88.998 -16.166 -118.998 -48.499s-45 -79.833 -45 -142.5c0 -22 2.66699 -44.333 8 -67s14.166 -43 26.499 -61s29 -32.833 50 -44.5s47.5 -17.5 79.5 -17.5c51.333 0 91.5 16.667 120.5 50s43.5 80 43.5 140c0 27.333 -3.33301 52.666 -10 75.999
s-16.834 43.5 -30.501 60.5s-30.667 30.333 -51 40s-44.5 14.5 -72.5 14.5zM50.002 247.001c0 32 4.16699 63.332 12.5 93.999s22 58.167 41 82.5s43.833 43.833 74.5 58.5s68 22 112 22c40.667 0 76 -6.5 106 -19.5s55 -31 75 -54s34.833 -50.167 44.5 -81.5
s14.5 -65.333 14.5 -102c0 -34 -4.5 -66.667 -13.5 -98s-23.167 -58.666 -42.5 -81.999s-44.166 -42 -74.499 -56s-66.833 -21 -109.5 -21c-74.667 0 -133.334 22.333 -176.001 67s-64 108 -64 190zM268.002 594l-120 147h86l80 -147h-46z" />
    <glyph glyph-name="oacute" unicode="&#xf3;" horiz-adv-x="580" 
d="M291 438c-50 0 -89.8301 -16.166 -119.497 -48.499s-44.5 -79.833 -44.5 -142.5c0 -22 2.66699 -44.333 8 -67s14.166 -43 26.499 -61s29 -32.833 50 -44.5s47.5 -17.5 79.5 -17.5c51.333 0 91.5 16.667 120.5 50s43.5 80 43.5 140c0 27.333 -3.33301 52.666 -10 75.999
s-16.834 43.5 -30.501 60.5s-30.834 30.333 -51.501 40s-44.667 14.5 -72 14.5zM51.0029 247.001c0 32 4.16699 63.332 12.5 93.999s22 58.167 41 82.5s43.833 43.833 74.5 58.5s68 22 112 22c40.667 0 76 -6.5 106 -19.5s55 -31 75 -54s34.833 -50.167 44.5 -81.5
s14.5 -65.333 14.5 -102c0 -34 -4.5 -66.667 -13.5 -98s-23.167 -58.666 -42.5 -81.999s-44.166 -42 -74.499 -56s-66.833 -21 -109.5 -21c-74.667 0 -133.334 22.333 -176.001 67s-64 108 -64 190zM266.003 594l80 147h85l-120 -147h-45z" />
    <glyph glyph-name="ocircumflex" unicode="&#xf4;" horiz-adv-x="581" 
d="M290 438c-49.333 0 -88.998 -16.166 -118.998 -48.499s-45 -79.833 -45 -142.5c0 -22 2.66699 -44.333 8 -67s14.166 -43 26.499 -61s29 -32.833 50 -44.5s47.5 -17.5 79.5 -17.5c51.333 0 91.5 16.667 120.5 50s43.5 80 43.5 140c0 27.333 -3.33301 52.666 -10 75.999
s-16.834 43.5 -30.501 60.5s-30.667 30.333 -51 40s-44.5 14.5 -72.5 14.5zM50.002 247.001c0 32 4.16797 63.332 12.501 93.999s22 58.167 41 82.5s43.833 43.833 74.5 58.5s68 22 112 22c40.667 0 76 -6.5 106 -19.5s55 -31 75 -54s35 -50.167 45 -81.5
s15 -65.333 15 -102c0 -34 -4.5 -66.667 -13.5 -98s-23.333 -58.666 -43 -81.999s-44.667 -42 -75 -56s-66.833 -21 -109.5 -21c-74.667 0 -133.334 22.333 -176.001 67s-64 108 -64 190zM372.003 594l-83 94l-82 -94h-46l90 147h77l89 -147h-45z" />
    <glyph glyph-name="otilde" unicode="&#xf5;" horiz-adv-x="581" 
d="M290 438c-49.333 0 -88.998 -16.166 -118.998 -48.499s-45 -79.833 -45 -142.5c0 -22 2.66699 -44.333 8 -67s14.166 -43 26.499 -61s29 -32.833 50 -44.5s47.5 -17.5 79.5 -17.5c51.333 0 91.5 16.667 120.5 50s43.5 80 43.5 140c0 27.333 -3.33301 52.666 -10 75.999
s-16.834 43.5 -30.501 60.5s-30.667 30.333 -51 40s-44.5 14.5 -72.5 14.5zM50.002 247.001c0 32 4.16797 63.332 12.501 93.999s22 58.167 41 82.5s43.833 43.833 74.5 58.5s68 22 112 22c40.667 0 76.167 -6.5 106.5 -19.5s55.5 -31 75.5 -54s34.833 -50.167 44.5 -81.5
s14.5 -65.333 14.5 -102c0 -34 -4.5 -66.667 -13.5 -98s-23.333 -58.666 -43 -81.999s-44.667 -42 -75 -56s-66.833 -21 -109.5 -21c-74.667 0 -133.334 22.333 -176.001 67s-64 108 -64 190zM122.003 655c2 2.66699 5.99902 6.83203 11.999 12.499s13.5 11.5 22.5 17.5
s19.333 11.167 31 15.5s24.167 6.5 37.5 6.5c15.333 0 28.5 -1.83301 39.5 -5.5s21.5 -7.83398 31.5 -12.501s20.167 -8.83398 30.5 -12.501s22.5 -5.5 36.5 -5.5c14.667 0 27.334 4 38.001 12s18 14 22 18l27 -31c-4 -4.66699 -9.33301 -10 -16 -16
s-14.5 -11.667 -23.5 -17s-18.833 -9.83301 -29.5 -13.5s-22 -5.5 -34 -5.5c-16 0 -29.5 1.83301 -40.5 5.5s-21.333 7.83398 -31 12.501s-19.667 8.83398 -30 12.501s-22.833 5.5 -37.5 5.5c-14 0 -26 -3.66699 -36 -11s-17.667 -13.666 -23 -18.999z" />
    <glyph glyph-name="odieresis" unicode="&#xf6;" horiz-adv-x="581" 
d="M290 438c-49.333 0 -88.998 -16.166 -118.998 -48.499s-45 -79.833 -45 -142.5c0 -22 2.66699 -44.333 8 -67s14.166 -43 26.499 -61s29 -32.833 50 -44.5s47.5 -17.5 79.5 -17.5c51.333 0 91.5 16.667 120.5 50s43.5 80 43.5 140c0 27.333 -3.33301 52.666 -10 75.999
s-16.834 43.5 -30.501 60.5s-30.667 30.333 -51 40s-44.5 14.5 -72.5 14.5zM50.002 247.001c0 32 4.16797 63.332 12.501 93.999s22 58.167 41 82.5s43.833 43.833 74.5 58.5s68 22 112 22c40.667 0 76 -6.5 106 -19.5s55 -31 75 -54s35 -50.167 45 -81.5
s15 -65.333 15 -102c0 -34 -4.5 -66.667 -13.5 -98s-23.333 -58.666 -43 -81.999s-44.667 -42 -75 -56s-66.833 -21 -109.5 -21c-74.667 0 -133.334 22.333 -176.001 67s-64 108 -64 190zM155.003 701h78v-78h-78v78zM340.003 701h78v-78h-78v78z" />
    <glyph glyph-name="divide" unicode="&#xf7;" 
d="M567 333v-62h-512v62h512zM270 183h78v-78h-78v78zM271 492h78v-78h-78v78z" />
    <glyph glyph-name="oslash" unicode="&#xf8;" horiz-adv-x="580" 
d="M530 247c0 -34 -4.50293 -66.668 -13.5029 -98.001s-23.167 -58.666 -42.5 -81.999s-44.166 -42 -74.499 -56s-66.833 -21 -109.5 -21c-21.333 0 -42 2 -62 6l-38 -99l-62 19l39 102c-37.333 19.333 -66.166 48.333 -86.499 87s-30.5 86 -30.5 142
c0 32 4.16699 63.333 12.5 94s22 58.167 41 82.5s43.833 43.833 74.5 58.5s68 22 112 22c22.667 0 43.334 -2 62.001 -6l39 99l62 -19l-40 -102c40 -21.333 69.5 -52 88.5 -92s28.5 -85.667 28.5 -137zM330.997 433.999c-6.66699 1.33301 -13.333 2.33301 -20 3
s-13.667 1 -21 1c-49.333 0 -89 -16.167 -119 -48.5s-45 -79.833 -45 -142.5c0 -30.667 5.16699 -61.167 15.5 -91.5s28.5 -54.5 54.5 -72.5zM248.998 60.999c11.333 -2.66699 24.999 -4 40.999 -4c51.333 0 91.5 16.5 120.5 49.5s43.5 79.833 43.5 140.5
c0 36 -5.66699 68.167 -17 96.5s-28.666 50.833 -51.999 67.5z" />
    <glyph glyph-name="ugrave" unicode="&#xf9;" horiz-adv-x="576" 
d="M490 495l0.00585938 -344.004c0 -24.667 0.666992 -51.167 2 -79.5s2.66602 -52.166 3.99902 -71.499h-64c-8.66699 0 -13 4.66699 -13 14v38c0 9.33301 -0.333008 19.333 -1 30h-2c-4.66699 -7.33301 -10.834 -16.166 -18.501 -26.499s-17.834 -20.333 -30.501 -30
s-28.334 -18 -47.001 -25s-41 -10.5 -67 -10.5c-24.667 0 -47.5 3.83301 -68.5 11.5s-39.167 18.834 -54.5 33.501s-27.5 32.834 -36.5 54.501s-13.5 46.5 -13.5 74.5v331h74v-311c0 -42 10 -73.667 30 -95s46.333 -32 79 -32c19.333 0 38.166 4.33301 56.499 13
s34.666 21.167 48.999 37.5s25.833 36.5 34.5 60.5s13 51.333 13 82v245h74zM268.006 593.996l-120 147h85l80 -147h-45z" />
    <glyph glyph-name="uacute" unicode="&#xfa;" horiz-adv-x="576" 
d="M490 495l0.00585938 -344.004c0 -24.667 0.666992 -51.167 2 -79.5s2.66602 -52.166 3.99902 -71.499h-64c-8.66699 0 -13 4.66699 -13 14v38c0 9.33301 -0.333008 19.333 -1 30h-2c-4.66699 -7.33301 -10.834 -16.166 -18.501 -26.499s-17.834 -20.333 -30.501 -30
s-28.334 -18 -47.001 -25s-41 -10.5 -67 -10.5c-24.667 0 -47.5 3.83301 -68.5 11.5s-39.167 18.834 -54.5 33.501s-27.5 32.834 -36.5 54.501s-13.5 46.5 -13.5 74.5v331h74v-311c0 -42 10 -73.667 30 -95s46.333 -32 79 -32c19.333 0 38.166 4.33301 56.499 13
s34.666 21.167 48.999 37.5s25.833 36.5 34.5 60.5s13 51.333 13 82v245h74zM259.006 593.996l80 147h85l-120 -147h-45z" />
    <glyph glyph-name="ucircumflex" unicode="&#xfb;" horiz-adv-x="576" 
d="M491 495l0.00488281 -344.004c0 -24.667 0.5 -51.167 1.5 -79.5s2.16699 -52.166 3.5 -71.499h-63c-8.66699 0 -13 4.66699 -13 14c0 3.33301 -0.166992 8.5 -0.5 15.5s-0.5 14.5 -0.5 22.5v30h-3c-4.66699 -7.33301 -10.834 -16.166 -18.501 -26.499
s-17.834 -20.333 -30.501 -30s-28.334 -18 -47.001 -25s-41 -10.5 -67 -10.5c-24.667 0 -47.5 3.83301 -68.5 11.5s-39.167 18.834 -54.5 33.501s-27.5 32.834 -36.5 54.501s-13.5 46.5 -13.5 74.5v331h74v-311c0 -42 10 -73.667 30 -95s46.333 -32 79 -32
c19.333 0 38.166 4.33301 56.499 13s34.666 21.167 48.999 37.5s25.833 36.5 34.5 60.5s13 51.333 13 82v245h75zM362.005 593.996l-82 95l-83 -95h-45l89 147h77l90 -147h-46z" />
    <glyph glyph-name="udieresis" unicode="&#xfc;" horiz-adv-x="576" 
d="M491 495l0.000976562 -344.004c0 -24.667 0.666992 -51.167 2 -79.5s2.33301 -52.166 3 -71.499h-63c-8.66699 0 -13 4.66699 -13 14v38c0 9.33301 -0.333008 19.333 -1 30h-3c-4.66699 -7.33301 -10.834 -16.166 -18.501 -26.499s-17.834 -20.333 -30.501 -30
s-28.167 -18 -46.5 -25s-40.5 -10.5 -66.5 -10.5c-24.667 0 -47.667 3.83301 -69 11.5s-39.666 18.834 -54.999 33.501s-27.5 32.834 -36.5 54.501s-13.5 46.5 -13.5 74.5v331h75v-311c0 -42 9.83301 -73.667 29.5 -95s45.834 -32 78.501 -32c20 0 39.167 4.33301 57.5 13
s34.666 21.167 48.999 37.5s25.833 36.5 34.5 60.5s13 51.333 13 82v245h74zM152.001 700.996h78v-78h-78v78zM337.001 700.996h78v-78h-78v78z" />
    <glyph glyph-name="yacute" unicode="&#xfd;" horiz-adv-x="457" 
d="M2 494l89.001 0.00195312l146 -388h2l140 388h78l-79 -217l-32.5 -88l-31.5 -86.5l-28 -76l-21 -56.5c-10.667 -29.333 -21.5 -57 -32.5 -83s-24.667 -49 -41 -69s-36.333 -35.833 -60 -47.5s-53.5 -17.5 -89.5 -17.5c-15.333 0 -30 1.5 -44 4.5s-23.333 5.16699 -28 6.5
c0 4 0.333008 8.66699 1 14c0.666992 4.66699 1.16699 10.167 1.5 16.5s1.16602 14.166 2.49902 23.499c0.666992 8 4 12 10 12c4 0 11.5 -1.16699 22.5 -3.5s23.167 -3.5 36.5 -3.5c28 0 52 6.66699 72 20s37.333 39.666 52 78.999l10 26.5l9 24.5
c2.66699 8.66699 5.66699 17 9 25zM210.001 594.002l80 147h85l-120 -147h-45z" />
    <glyph glyph-name="thorn" unicode="&#xfe;" horiz-adv-x="559" 
d="M164 -231l-74.0029 0.00195312v947h74v-295h3c2 4 6.33301 10.5 13 19.5s15.667 18.333 27 28s25.166 18 41.499 25s35.5 10.5 57.5 10.5c35.333 0 65.833 -6.83301 91.5 -20.5s46.834 -31.5 63.501 -53.5s28.834 -46.5 36.501 -73.5s11.5 -53.833 11.5 -80.5
c0 -38.667 -5.83301 -75.334 -17.5 -110.001s-28.667 -65 -51 -91s-50.166 -46.667 -83.499 -62s-71.666 -23 -114.999 -23c-21.333 0 -38.5 1.66699 -51.5 5s-21.833 5.66602 -26.5 6.99902v-233zM244.997 56.002c28 0 53.501 5.33105 76.501 15.998
s42.667 25.334 59 44.001s29 40.834 38 66.501s13.5 53.5 13.5 83.5c0 22 -2.66699 43.333 -8 64s-13.333 39 -24 55s-24 28.667 -40 38s-34.667 14 -56 14c-18.667 0 -36.334 -4.5 -53.001 -13.5s-31.5 -22.5 -44.5 -40.5s-23.333 -40.5 -31 -67.5
s-11.5 -58.167 -11.5 -93.5v-153l28.5 -7.5c13.667 -3.66699 31.167 -5.5 52.5 -5.5z" />
    <glyph glyph-name="ydieresis" unicode="&#xff;" horiz-adv-x="457" 
d="M2 494l89.001 0.00195312l146 -388h2l140 388h78l-79 -217l-32.5 -88l-31.5 -86.5l-28 -76l-21 -56.5c-10.667 -29.333 -21.5 -57 -32.5 -83s-24.667 -49 -41 -69s-36.333 -35.833 -60 -47.5s-53.5 -17.5 -89.5 -17.5c-15.333 0 -30 1.5 -44 4.5s-23.333 5.16699 -28 6.5
c0 4 0.333008 8.66699 1 14c0.666992 4.66699 1.16699 10.167 1.5 16.5s1.16602 14.166 2.49902 23.499c0.666992 8 4 12 10 12c4 0 11.5 -1.16699 22.5 -3.5s23.167 -3.5 36.5 -3.5c28 0 52 6.66699 72 20s37.333 39.666 52 78.999l10 26.5l9 24.5
c2.66699 8.66699 5.66699 17 9 25zM101.001 701.002h78v-78h-78v78zM286.001 701.002h78v-78h-78v78z" />
    <glyph glyph-name="Amacron" unicode="&#x100;" horiz-adv-x="604" 
d="M409 839v-52h-222v52h222v0zM264 674h79l251 -674h-86l-59 164h-300l-60 -164h-79l254 674v0zM297 584l-126 -357h256l-128 357h-2v0z" />
    <glyph glyph-name="amacron" unicode="&#x101;" horiz-adv-x="516" 
d="M125 645v52h221v-52h-221zM84 415c-0.666992 8.66699 -1.33301 18.4961 -2 29.4961s-1 20.167 -1 27.5c4.66699 2 11.834 4.83301 21.501 8.5s21.167 7.33398 34.5 11.001s28.5 6.83398 45.5 9.50098s34.833 4 53.5 4c66.667 0 116.834 -16.333 150.501 -49
s50.5 -76.667 50.5 -132v-197c0 -21.333 0.833008 -43.5 2.5 -66.5s3.83398 -43.167 6.50098 -60.5h-61c-8 0 -12.833 2.33301 -14.5 7s-2.83398 9.66699 -3.50098 15l-3 50h-2c-4 -6 -10.167 -13.5 -18.5 -22.5s-19.166 -17.833 -32.499 -26.5s-29.5 -16.167 -48.5 -22.5
s-41.5 -9.5 -67.5 -9.5c-23.333 0 -44.5 4 -63.5 12s-35.333 19.167 -49 33.5s-24.167 31.333 -31.5 51s-11 40.834 -11 63.501c0 29.333 7.16699 54.166 21.5 74.499s33.333 37 57 50s50.667 22.333 81 28s61.5 8.5 93.5 8.5h70v19c0 12 -2.33301 24.333 -7 37
s-12.334 24.167 -23.001 34.5s-24.5 18.833 -41.5 25.5s-37.5 10 -61.5 10c-14 0 -27.5 -1.16699 -40.5 -3.5s-24.833 -5 -35.5 -8s-19.834 -6.16699 -27.501 -9.5s-13.167 -5.66602 -16.5 -6.99902c-2 -1.33301 -4.83301 -2.66602 -8.5 -3.99902s-6.83398 -2 -9.50098 -2
c-4.66699 0 -7.16699 1.5 -7.5 4.5s-0.5 5.16699 -0.5 6.5zM287.001 250.996c-33.333 0 -61 -3.16797 -83 -9.50098s-39.5 -14.166 -52.5 -23.499s-22.167 -19.833 -27.5 -31.5s-8 -23.167 -8 -34.5c0 -27.333 9 -49.833 27 -67.5s43.667 -26.5 77 -26.5
c23.333 0 44 4.16699 62 12.5s33 19.5 45 33.5s21 30.5 27 49.5s9 39.167 9 60.5v37h-76z" />
    <glyph glyph-name="Abreve" unicode="&#x102;" horiz-adv-x="604" 
d="M264 674h79l251 -674h-86l-59 164h-300l-60 -164h-79zM297 584l-126 -357h256l-128 357h-2zM425 858c0 -10.667 -2.16797 -22.3291 -6.50098 -34.9961s-11.5 -24.167 -21.5 -34.5s-23 -19 -39 -26s-36 -10.5 -60 -10.5c-23.333 0 -43.166 3.33301 -59.499 10
s-29.5 15.334 -39.5 26.001s-17.333 22.167 -22 34.5s-7 24.166 -7 35.499h54c0 -4.66699 1.16699 -10.334 3.5 -17.001s6.16602 -13.334 11.499 -20.001s12.833 -12.334 22.5 -17.001s21.834 -7 36.501 -7c14 0 25.667 2.16699 35 6.5s16.833 9.66602 22.5 15.999
s9.66699 13 12 20s3.5 13.167 3.5 18.5h54z" />
    <glyph glyph-name="abreve" unicode="&#x103;" horiz-adv-x="515" 
d="M362 716c0 -10.667 -2.16797 -22.3311 -6.50098 -34.998s-11.5 -24.167 -21.5 -34.5s-23 -19 -39 -26s-36 -10.5 -60 -10.5c-23.333 0 -43.166 3.33301 -59.499 10s-29.5 15.334 -39.5 26.001s-17.333 22.167 -22 34.5s-7 24.166 -7 35.499h54
c0 -4.66699 1.16699 -10.334 3.5 -17.001s6.16602 -13.167 11.499 -19.5s12.833 -11.833 22.5 -16.5s21.834 -7 36.501 -7c14 0 25.667 2.16699 35 6.5s16.833 9.66602 22.5 15.999s9.66699 13 12 20s3.5 12.833 3.5 17.5h54v0zM82.999 415.003
c-0.666992 8.66699 -1.16113 18.4961 -1.49414 29.4961s-0.5 20.167 -0.5 27.5c4 2 10.833 4.83301 20.5 8.5s21.167 7.33398 34.5 11.001s28.5 6.83398 45.5 9.50098s35.167 4 54.5 4c66.667 0 116.667 -16.333 150 -49s50 -76.667 50 -132v-197
c0 -21.333 0.833008 -43.5 2.5 -66.5s3.83398 -43.167 6.50098 -60.5h-60c-8.66699 0 -13.834 2.33301 -15.501 7s-2.83398 9.66699 -3.50098 15l-3 50h-2c-4 -6 -10 -13.5 -18 -22.5s-18.667 -17.833 -32 -26.5s-29.5 -16.167 -48.5 -22.5s-41.5 -9.5 -67.5 -9.5
c-23.333 0 -44.5 4 -63.5 12s-35.333 19.167 -49 33.5s-24.167 31.333 -31.5 51s-11 40.834 -11 63.501c0 29.333 7.16699 54.166 21.5 74.499s33.166 37 56.499 50s50.333 22.333 81 28s62 8.5 94 8.5h69v19c0 12 -2.33301 24.333 -7 37s-12.334 24.167 -23.001 34.5
s-24.334 18.833 -41.001 25.5s-37 10 -61 10c-14 0 -27.5 -1.16699 -40.5 -3.5s-24.833 -5 -35.5 -8s-19.834 -6.16699 -27.501 -9.5s-13.167 -5.66602 -16.5 -6.99902c-2.66699 -1.33301 -5.66699 -2.66602 -9 -3.99902s-6.33301 -2 -9 -2
c-4.66699 0 -7.33398 1.5 -8.00098 4.5s-1 5.16699 -1 6.5zM287.005 250.999c-33.333 0 -61 -3.16797 -83 -9.50098s-39.5 -14.166 -52.5 -23.499s-22.167 -19.833 -27.5 -31.5s-8 -23.167 -8 -34.5c0 -27.333 9 -49.833 27 -67.5s43.667 -26.5 77 -26.5
c23.333 0 43.833 4.16699 61.5 12.5s32.5 19.5 44.5 33.5s21 30.5 27 49.5s9 39.167 9 60.5v37h-75z" />
    <glyph glyph-name="Aogonek" unicode="&#x104;" horiz-adv-x="604" 
d="M449 164l-300.002 0.00390625l-60 -164h-79l254 674h78l252 -674l-13.5 -21c-6.33301 -10 -12.666 -21.667 -18.999 -35s-12 -27.5 -17 -42.5s-7.5 -29.833 -7.5 -44.5c0 -16 5 -28.833 15 -38.5s23.667 -14.5 41 -14.5c8.66699 0 17 1 25 3s14.333 3.66699 19 5v-48
c-3.33301 -1.33301 -10.5 -3.5 -21.5 -6.5s-23.167 -4.5 -36.5 -4.5c-8 0 -17.833 1 -29.5 3s-23 6.16699 -34 12.5s-20.333 15.666 -28 27.999s-11.5 29.166 -11.5 50.499c0 17.333 2.5 34.166 7.5 50.499s11 31.166 18 44.499s14.333 25 22 35s13.834 17.667 18.501 23
h-35zM169.998 227.004h257l-128 356h-2z" />
    <glyph glyph-name="aogonek" unicode="&#x105;" horiz-adv-x="558" 
d="M384 0c-8 0 -12.8311 2.33008 -14.498 6.99707s-2.83398 9.66699 -3.50098 15l-3 50h-2c-4 -6 -10 -13.5 -18 -22.5s-18.667 -17.833 -32 -26.5s-29.666 -16.167 -48.999 -22.5s-42 -9.5 -68 -9.5c-22.667 0 -43.5 4 -62.5 12s-35.333 19.167 -49 33.5
s-24.167 31.333 -31.5 51s-11 40.834 -11 63.501c0 29.333 7.16699 54.166 21.5 74.499s33.166 37 56.499 50s50.166 22.333 80.499 28s61.5 8.5 93.5 8.5h70v19c0 12 -2.33301 24.333 -7 37s-12.334 24.167 -23.001 34.5s-24.334 18.833 -41.001 25.5s-37 10 -61 10
c-14 0 -27.5 -1.16699 -40.5 -3.5s-24.833 -5 -35.5 -8s-19.834 -6.16699 -27.501 -9.5s-13.5 -5.66602 -17.5 -6.99902c-2 -1.33301 -4.66699 -2.66602 -8 -3.99902s-6.66602 -2 -9.99902 -2c-4.66699 0 -7.16699 1.5 -7.5 4.5s-0.5 5.16699 -0.5 6.5
c-0.666992 8.66699 -1.16699 18.5 -1.5 29.5s-0.5 20.167 -0.5 27.5c4 2 10.833 4.83301 20.5 8.5s21.167 7.33398 34.5 11.001s28.5 6.83398 45.5 9.50098s34.833 4 53.5 4c67.333 0 117.666 -16.333 150.999 -49s50 -76.667 50 -132v-197
c0 -21.333 0.833008 -43.5 2.5 -66.5s3.83398 -43.167 6.50098 -60.5l-13.5 -21c-6.33301 -10 -12.666 -21.667 -18.999 -35s-12 -27.5 -17 -42.5s-7.5 -29.833 -7.5 -44.5c0 -16 5 -28.667 15 -38s23.667 -14 41 -14c8.66699 0 17.167 1 25.5 3s14.5 3.66699 18.5 5v-48
c-3.33301 -1.33301 -10.5 -3.66602 -21.5 -6.99902s-23.167 -5 -36.5 -5c-8 0 -17.833 1 -29.5 3s-23 6.33301 -34 13s-20.333 16.167 -28 28.5s-11.5 28.833 -11.5 49.5c0 17.333 2.5 34.166 7.5 50.499s11 31.166 18 44.499s14.333 25 22 35s13.834 17.667 18.501 23h-9v0
zM287.002 250.997c-33.333 0 -61 -3.16797 -83 -9.50098s-39.5 -14.166 -52.5 -23.499s-22.167 -19.833 -27.5 -31.5s-8 -23.167 -8 -34.5c0 -27.333 8.83301 -49.833 26.5 -67.5s43.5 -26.5 77.5 -26.5c23.333 0 43.833 4.16699 61.5 12.5s32.5 19.5 44.5 33.5
s21 30.5 27 49.5s9 39.167 9 60.5v37h-75v0z" />
    <glyph glyph-name="Cacute" unicode="&#x106;" horiz-adv-x="585" 
d="M360 736l80 147h86l-120 -147h-46zM539 584c-11.333 5.33301 -30.1709 12.165 -56.5039 20.498s-58.166 12.5 -95.499 12.5c-30.667 0 -60.167 -5.5 -88.5 -16.5s-53.333 -27.833 -75 -50.5s-39 -51.667 -52 -87s-19.5 -77.333 -19.5 -126c0 -38 4.83301 -74 14.5 -108
s24.334 -63.833 44.001 -89.5s44.334 -45.834 74.001 -60.501s64.5 -22 104.5 -22c18.667 0 36.334 1.5 53.001 4.5s31.667 6.33301 45 10s24.5 7.33398 33.5 11.001l18.5 7.5l16 -71c-4 -1.33301 -11 -3.5 -21 -6.5s-22 -6.16699 -36 -9.5s-29.667 -6.33301 -47 -9
s-35.333 -4 -54 -4c-53.333 0 -100.333 8.83301 -141 26.5s-74.834 42.167 -102.501 73.5s-48.5 68.166 -62.5 110.499s-21 87.833 -21 136.5c0 45.333 6.33301 88.833 19 130.5s32.334 78.5 59.001 110.5s60.667 57.667 102 77s90.333 29 147 29
c18 0 35.5 -1.16699 52.5 -3.5s32.5 -5.16602 46.5 -8.49902s26.167 -6.66602 36.5 -9.99902s17.833 -5.66602 22.5 -6.99902z" />
    <glyph glyph-name="cacute" unicode="&#x107;" horiz-adv-x="461" 
d="M292 504c16 0 31.1641 -1.16797 45.4971 -3.50098s27.166 -5 38.499 -8s20.833 -6 28.5 -9s13.5 -5.5 17.5 -7.5c0 -8 -0.166992 -17.5 -0.5 -28.5s-0.833008 -19.5 -1.5 -25.5c0 -2 -0.333008 -4.66699 -1 -8s-3.33398 -5 -8.00098 -5c-2 0 -4.5 0.5 -7.5 1.5
s-5.5 2.16699 -7.5 3.5c-3.33301 2 -13.166 6.5 -29.499 13.5s-38.5 10.5 -66.5 10.5c-27.333 0 -51.666 -5 -72.999 -15s-39.5 -23.833 -54.5 -41.5s-26.333 -38 -34 -61s-11.5 -47.5 -11.5 -73.5s4 -50.667 12 -74s19.5 -43.5 34.5 -60.5s32.833 -30.5 53.5 -40.5
s43.667 -15 69 -15c28.667 0 50.334 2.83301 65.001 8.5s24.667 9.83398 30 12.501c10.667 5.33301 17.334 8 20.001 8c6 0 9 -3.66699 9 -11c0.666992 -6.66699 1.16699 -15.334 1.5 -26.001s0.833008 -20.667 1.5 -30c-4 -2 -10 -4.5 -18 -7.5s-17.667 -6.16699 -29 -9.5
s-24.166 -6.16602 -38.499 -8.49902s-29.833 -3.5 -46.5 -3.5c-37.333 0 -71 6 -101 18s-55.333 29.167 -76 51.5s-36.5 49.333 -47.5 81s-16.5 67.167 -16.5 106.5c0 36.667 5.16699 70.667 15.5 102s25.5 58.5 45.5 81.5s45.167 41 75.5 54s65.5 19.5 105.5 19.5z
M264.997 593.999l80 147h86l-120 -147h-46z" />
    <glyph glyph-name="Ccircumflex" unicode="&#x108;" horiz-adv-x="585" 
d="M539 584c-11.333 5.33301 -30.1709 12.165 -56.5039 20.498s-58.166 12.5 -95.499 12.5c-30.667 0 -60.167 -5.5 -88.5 -16.5s-53.333 -27.833 -75 -50.5s-39 -51.667 -52 -87s-19.5 -77.333 -19.5 -126c0 -38 4.83301 -74 14.5 -108s24.334 -63.833 44.001 -89.5
s44.334 -45.834 74.001 -60.501s64.5 -22 104.5 -22c18.667 0 36.334 1.5 53.001 4.5s31.667 6.33301 45 10s24.5 7.33398 33.5 11.001l18.5 7.5l16 -71c-4 -1.33301 -11 -3.5 -21 -6.5s-22 -6.16699 -36 -9.5s-29.667 -6.33301 -47 -9s-35.333 -4 -54 -4
c-53.333 0 -100.333 8.83301 -141 26.5s-74.834 42.167 -102.501 73.5s-48.5 68.166 -62.5 110.499s-21 87.833 -21 136.5c0 45.333 6.33301 88.833 19 130.5s32.334 78.5 59.001 110.5s60.667 57.667 102 77s90.333 29 147 29c18 0 35.5 -1.16699 52.5 -3.5
s32.5 -5.16602 46.5 -8.49902s26.167 -6.66602 36.5 -9.99902s17.833 -5.66602 22.5 -6.99902zM258.995 735.999l89 147h78l89 -147h-45l-83 94l-82 -94h-46z" />
    <glyph glyph-name="ccircumflex" unicode="&#x109;" horiz-adv-x="453" 
d="M292 504c16 0 31.1641 -1.16797 45.4971 -3.50098s27.166 -5 38.499 -8s20.833 -6 28.5 -9s13.5 -5.5 17.5 -7.5c0 -8 -0.166992 -17.5 -0.5 -28.5s-0.833008 -19.5 -1.5 -25.5c0 -2 -0.333008 -4.66699 -1 -8s-3.33398 -5 -8.00098 -5c-2 0 -4.5 0.5 -7.5 1.5
s-5.5 2.16699 -7.5 3.5c-3.33301 2 -13.166 6.5 -29.499 13.5s-38.5 10.5 -66.5 10.5c-27.333 0 -51.666 -5 -72.999 -15s-39.5 -23.833 -54.5 -41.5s-26.333 -38 -34 -61s-11.5 -47.5 -11.5 -73.5s4 -50.667 12 -74s19.5 -43.5 34.5 -60.5s32.833 -30.5 53.5 -40.5
s43.667 -15 69 -15c28.667 0 50.334 2.83301 65.001 8.5s24.667 9.83398 30 12.501c10.667 5.33301 17.334 8 20.001 8c6 0 9 -3.66699 9 -11c0.666992 -6.66699 1.16699 -15.334 1.5 -26.001s0.833008 -20.667 1.5 -30c-4 -2 -10 -4.5 -18 -7.5s-17.667 -6.16699 -29 -9.5
s-24.166 -6.16602 -38.499 -8.49902s-29.833 -3.5 -46.5 -3.5c-37.333 0 -71 6 -101 18s-55.333 29.167 -76 51.5s-36.5 49.333 -47.5 81s-16.5 67.167 -16.5 106.5c0 36.667 5.16699 70.667 15.5 102s25.5 58.5 45.5 81.5s45.167 41 75.5 54s65.5 19.5 105.5 19.5z
M163.997 595.999l89 147h78l89 -147h-45l-83 94l-82 -94h-46z" />
    <glyph glyph-name="Cdotaccent" unicode="&#x10a;" horiz-adv-x="585" 
d="M539 584c-11.333 5.33301 -30.1709 12.165 -56.5039 20.498s-58.166 12.5 -95.499 12.5c-30.667 0 -60.167 -5.5 -88.5 -16.5s-53.333 -27.833 -75 -50.5s-39 -51.667 -52 -87s-19.5 -77.333 -19.5 -126c0 -38 4.83301 -74 14.5 -108s24.334 -63.833 44.001 -89.5
s44.334 -45.834 74.001 -60.501s64.5 -22 104.5 -22c18.667 0 36.334 1.5 53.001 4.5s31.667 6.33301 45 10s24.5 7.33398 33.5 11.001l18.5 7.5l16 -71c-4 -1.33301 -11 -3.5 -21 -6.5s-22 -6.16699 -36 -9.5s-29.667 -6.33301 -47 -9s-35.333 -4 -54 -4
c-53.333 0 -100.333 8.83301 -141 26.5s-74.834 42.167 -102.501 73.5s-48.5 68.166 -62.5 110.499s-21 87.833 -21 136.5c0 45.333 6.33301 88.833 19 130.5s32.334 78.5 59.001 110.5s60.667 57.667 102 77s90.333 29 147 29c18 0 35.5 -1.16699 52.5 -3.5
s32.5 -5.16602 46.5 -8.49902s26.167 -6.66602 36.5 -9.99902s17.833 -5.66602 22.5 -6.99902zM351.995 857.999h78v-78h-78v78z" />
    <glyph glyph-name="cdotaccent" unicode="&#x10b;" horiz-adv-x="452" 
d="M292 504c16 0 31.168 -1.16895 45.501 -3.50195s27.166 -5 38.499 -8s20.833 -6 28.5 -9s13.5 -5.5 17.5 -7.5c0 -8 -0.166992 -17.5 -0.5 -28.5s-0.833008 -19.5 -1.5 -25.5c0 -2 -0.333008 -4.83301 -1 -8.5s-3.33398 -5.5 -8.00098 -5.5
c-2.66699 0 -5.33398 0.666992 -8.00098 2s-5 2.66602 -7 3.99902l-9.5 5.00098s-11.5 5.33398 -19.5 8.00098s-17.667 5.16699 -29 7.5s-24 3.5 -38 3.5c-27.333 0 -51.666 -5 -72.999 -15s-39.5 -23.833 -54.5 -41.5s-26.333 -38 -34 -61s-11.5 -47.5 -11.5 -73.5
c0 -26.667 4 -51.5 12 -74.5s19.5 -43 34.5 -60s32.833 -30.5 53.5 -40.5s43.667 -15 69 -15c28 0 49.5 2.83301 64.5 8.5s25.167 9.83398 30.5 12.501c10.667 5.33301 17.334 8 20.001 8c6 0 9 -3.66699 9 -11c0 -6.66699 0.333008 -15.334 1 -26.001s1 -20.667 1 -30
c-4 -2 -10 -4.5 -18 -7.5s-17.667 -6.16699 -29 -9.5s-24.166 -6.16602 -38.499 -8.49902s-29.5 -3.5 -45.5 -3.5c-37.333 0 -71 6 -101 18s-55.333 29.167 -76 51.5s-36.5 49.333 -47.5 81s-16.5 67.167 -16.5 106.5c0 36.667 5 70.667 15 102s25.167 58.5 45.5 81.5
s45.666 41 75.999 54s65.5 19.5 105.5 19.5zM249.001 700.998h78v-78h-78v78z" />
    <glyph glyph-name="Ccaron" unicode="&#x10c;" horiz-adv-x="585" 
d="M526 883l-89 -147h-77l-89 147h45l83 -95l82 95h45zM539 584c-11.333 5.33301 -30.1709 12.165 -56.5039 20.498s-58.166 12.5 -95.499 12.5c-30.667 0 -60.167 -5.5 -88.5 -16.5s-53.333 -27.833 -75 -50.5s-39 -51.667 -52 -87s-19.5 -77.333 -19.5 -126
c0 -38 4.83301 -74 14.5 -108s24.334 -63.833 44.001 -89.5s44.334 -45.834 74.001 -60.501s64.5 -22 104.5 -22c18.667 0 36.334 1.5 53.001 4.5s31.667 6.33301 45 10s24.5 7.33398 33.5 11.001l18.5 7.5l16 -71c-4 -1.33301 -11 -3.5 -21 -6.5s-22 -6.16699 -36 -9.5
s-29.667 -6.33301 -47 -9s-35.333 -4 -54 -4c-53.333 0 -100.333 8.83301 -141 26.5s-74.834 42.167 -102.501 73.5s-48.5 68.166 -62.5 110.499s-21 87.833 -21 136.5c0 45.333 6.33301 88.833 19 130.5s32.334 78.5 59.001 110.5s60.667 57.667 102 77s90.333 29 147 29
c18 0 35.5 -1.16699 52.5 -3.5s32.5 -5.16602 46.5 -8.49902s26.167 -6.66602 36.5 -9.99902s17.833 -5.66602 22.5 -6.99902z" />
    <glyph glyph-name="ccaron" unicode="&#x10d;" horiz-adv-x="453" 
d="M292 504c32.667 0 60.667 -3.83496 84 -11.502s38.666 -13.5 45.999 -17.5c0 -7.33301 -0.166992 -16.5 -0.5 -27.5s-0.833008 -19.5 -1.5 -25.5c0 -2 -0.333008 -4.83301 -1 -8.5s-3.33398 -5.5 -8.00098 -5.5c-2 0 -4.5 0.666992 -7.5 2s-5.5 2.66602 -7.5 3.99902
l-9.5 5.00098s-11.5 5.33398 -19.5 8.00098s-17.667 5.16699 -29 7.5s-24 3.5 -38 3.5c-27.333 0 -51.666 -5.16699 -72.999 -15.5s-39.5 -24.166 -54.5 -41.499s-26.333 -37.5 -34 -60.5s-11.5 -47.5 -11.5 -73.5c0 -26.667 4 -51.5 12 -74.5s19.5 -43.167 34.5 -60.5
s32.833 -31 53.5 -41s43.667 -15 69 -15c28 0 49.5 2.83301 64.5 8.5s25.167 10.167 30.5 13.5c10.667 5.33301 17.334 8 20.001 8c6 0 9 -3.66699 9 -11c0.666992 -6.66699 1.16699 -15.334 1.5 -26.001s0.833008 -20.667 1.5 -30c-4 -2 -10 -4.5 -18 -7.5
s-17.667 -6.16699 -29 -9.5s-24.166 -6.16602 -38.499 -8.49902s-29.833 -3.5 -46.5 -3.5c-37.333 0 -71 6 -101 18s-55.333 29.167 -76 51.5s-36.5 49.333 -47.5 81s-16.5 67.167 -16.5 106.5c0 36.667 5 70.667 15 102s25.167 58.5 45.5 81.5s45.666 41 75.999 54
s65.5 19.5 105.5 19.5zM211 740.998l82 -94l83 94h45l-89 -147h-78l-89 147h46z" />
    <glyph glyph-name="Dcaron" unicode="&#x10e;" horiz-adv-x="721" 
d="M238 883l82 -94l83 94h45l-89 -147h-78l-89 147h46zM110 674l207 0.000976562c52 0 98.5 -7.5 139.5 -22.5s76 -36.833 105 -65.5s51.167 -63.834 66.5 -105.501s23 -89.5 23 -143.5c0 -46.667 -6.5 -90.5 -19.5 -131.5s-33.167 -76.667 -60.5 -107s-62 -54.333 -104 -72
s-92 -26.5 -150 -26.5h-207v674zM186 66.001c1.33301 0 5.66895 -0.333008 13.002 -1s16.5 -1.16699 27.5 -1.5s23.167 -0.666016 36.5 -0.999023s27 -0.5 41 -0.5c88.667 0 155.334 23.667 200.001 71s67 115.333 67 204c0 94 -23.833 163.5 -71.5 208.5
s-112.834 67.5 -195.501 67.5c-10.667 0 -22.167 -0.166992 -34.5 -0.5l-36 -1c-11.667 -0.333008 -21.834 -0.833008 -30.501 -1.5s-14.334 -1.33398 -17.001 -2.00098v-542z" />
    <glyph glyph-name="dcaron" unicode="&#x10f;" horiz-adv-x="599" 
d="M394 717l74.0029 -0.00292969v-566c0 -25.333 0.666992 -52 2 -80s2.66602 -51.667 3.99902 -71h-65c-8.66699 0 -13 4.33301 -13 13v36c0 8 -0.333008 16.667 -1 26h-3c-2 -4.66699 -6.33301 -11.667 -13 -21s-15.834 -18.666 -27.501 -27.999
s-25.667 -17.666 -42 -24.999s-35.5 -11 -57.5 -11c-35.333 0 -65.833 6.83301 -91.5 20.5s-46.667 31.334 -63 53.001s-28.333 46 -36 73s-11.5 53.833 -11.5 80.5c0 38.667 5.66699 75.334 17 110.001s28.333 65.167 51 91.5s50.5 47.166 83.5 62.499s71.167 23 114.5 23
c21.333 0 38.666 -1.83301 51.999 -5.5s22 -6.16699 26 -7.5v226zM314.003 437.997c-28 0 -53.668 -5.33105 -77.001 -15.998s-43.166 -25.334 -59.499 -44.001s-29 -40.834 -38 -66.501s-13.5 -53.5 -13.5 -83.5c0 -22 2.66699 -43.333 8 -64s13.5 -39 24.5 -55
s24.5 -28.833 40.5 -38.5s34.333 -14.5 55 -14.5c18.667 0 36.334 4.66699 53.001 14s31.5 23 44.5 41s23.333 40.333 31 67s11.5 57.667 11.5 93v154l-28.5 7.5c-13.667 3.66699 -30.834 5.5 -51.501 5.5zM551.002 673.999l77.998 -0.000976562v-78
c0 -12 -2.5 -23.167 -7.5 -33.5s-11.167 -19.833 -18.5 -28.5s-15.166 -16.167 -23.499 -22.5s-16.166 -11.166 -23.499 -14.499l-13 18c11.333 7.33301 21.833 17.833 31.5 31.5s14.5 30.167 14.5 49.5h-38v78z" />
    <glyph glyph-name="Dcroat" unicode="&#x110;" horiz-adv-x="721" 
d="M317 674c52 0 98.5 -7.5 139.5 -22.5s76 -36.833 105 -65.5s51.167 -64 66.5 -106s23 -89.667 23 -143c0 -46.667 -6.5 -90.5 -19.5 -131.5s-33.167 -76.833 -60.5 -107.5s-62 -54.667 -104 -72s-92 -26 -150 -26h-207v316h-55v62h55v296h207v0zM304 61
c88.667 0 155.337 23.6689 200.004 71.002s67 115.666 67 204.999c0 93.333 -23.833 162.666 -71.5 207.999s-112.834 68 -195.501 68c-10.667 0 -22.167 -0.166992 -34.5 -0.5l-36 -1c-11.667 -0.333008 -21.834 -0.833008 -30.501 -1.5s-14.334 -1.33398 -17.001 -2.00098
v-230h201v-62h-201v-251c1.33301 0 5.66602 -0.333008 12.999 -1s16.5 -1.16699 27.5 -1.5s23.167 -0.666016 36.5 -0.999023s27 -0.5 41 -0.5z" />
    <glyph glyph-name="dcroat" unicode="&#x111;" horiz-adv-x="557" 
d="M469 573l0.00390625 -422.004c0 -25.333 0.5 -52 1.5 -80s2.16699 -51.667 3.5 -71h-64c-8.66699 0 -13 4.33301 -13 13c0 3.33301 -0.166992 8.33301 -0.5 15s-0.5 13.667 -0.5 21v26h-3c-2 -4.66699 -6.33301 -11.667 -13 -21s-15.834 -18.666 -27.501 -27.999
s-25.834 -17.666 -42.501 -24.999s-35.667 -11 -57 -11c-35.333 0 -65.833 6.83301 -91.5 20.5s-46.667 31.5 -63 53.5s-28.5 46.5 -36.5 73.5s-12 53.833 -12 80.5c0 38.667 5.83301 75.334 17.5 110.001s28.667 65 51 91s50.166 46.667 83.499 62s71.666 23 114.999 23
c21.333 0 38.5 -1.66699 51.5 -5s21.833 -5.66602 26.5 -6.99902v81h-189v63h189v81h74v-81h53v-63h-53zM395.004 424.996l-28.501 7.50391c-13.667 3.66699 -31.167 5.5 -52.5 5.5c-28 0 -53.5 -5.33301 -76.5 -16s-42.667 -25.334 -59 -44.001s-29 -40.834 -38 -66.501
s-13.5 -53.5 -13.5 -83.5c0 -22 2.66699 -43.333 8 -64s13.333 -38.834 24 -54.501s24 -28.334 40 -38.001s34.667 -14.5 56 -14.5c18.667 0 36.334 4.5 53.001 13.5s31.5 22.5 44.5 40.5s23.333 40.5 31 67.5s11.5 58.167 11.5 93.5v153z" />
    <glyph glyph-name="Emacron" unicode="&#x112;" horiz-adv-x="511" 
d="M389 838v-51h-221v51h221v0zM110 674h339v-62h-263v-234h250v-62h-250v-254h265v-62h-341v674z" />
    <glyph glyph-name="emacron" unicode="&#x113;" horiz-adv-x="535" 
d="M275 504c39.333 0 72.5039 -6.66699 99.5039 -20s48.667 -30.333 65 -51s28 -43.5 35 -68.5s10.5 -49.167 10.5 -72.5c0 -20 -0.666992 -36.5 -2 -49.5s-2 -20.167 -2 -21.5h-355c0.666992 -18 4.5 -36.667 11.5 -56s17.833 -37 32.5 -53s33.5 -29.167 56.5 -39.5
s51.167 -15.5 84.5 -15.5c30 0 55.333 3.5 76 10.5s33.667 11.833 39 14.5c3.33301 1.33301 6.5 2.83301 9.5 4.5s5.83301 2.5 8.5 2.5c6 0 9 -3.66699 9 -11c0.666992 -7.33301 1.16699 -16.666 1.5 -27.999s0.5 -22.333 0.5 -33c-4.66699 -2 -11.834 -4.5 -21.501 -7.5
s-21.334 -6 -35.001 -9s-28.667 -5.5 -45 -7.5s-33.5 -3 -51.5 -3c-84.667 0 -147.834 23 -189.501 69s-62.5 108.333 -62.5 187c0 39.333 5.16699 74.833 15.5 106.5s25.166 58.667 44.499 81s43 39.666 71 51.999s59.333 18.5 94 18.5zM126.004 280l282.999 -0.000976562
v15c0 14 -2 29.333 -6 46s-11 32.167 -21 46.5s-23.667 26.333 -41 36s-39.666 14.5 -66.999 14.5c-28.667 0 -52.5 -5.66699 -71.5 -17s-34.167 -25.166 -45.5 -41.499s-19.333 -33.5 -24 -51.5s-7 -34 -7 -48zM386.003 644.999h-221v52h221v-52z" />
    <glyph glyph-name="Ebreve" unicode="&#x114;" horiz-adv-x="511" 
d="M406 858c0 -10.667 -2.16602 -22.3281 -6.49902 -34.9951s-11.5 -24.334 -21.5 -35.001s-23.167 -19.5 -39.5 -26.5s-36.5 -10.5 -60.5 -10.5c-23.333 0 -43 3.5 -59 10.5s-29 15.667 -39 26s-17.333 21.833 -22 34.5s-7 24.667 -7 36h54
c0 -4.66699 1.16699 -10.334 3.5 -17.001s6.16602 -13.334 11.499 -20.001s12.666 -12.334 21.999 -17.001s21.333 -7 36 -7c14 0 25.833 2.16699 35.5 6.5s17.334 9.66602 23.001 15.999s9.66699 13 12 20s3.5 13.167 3.5 18.5h54zM110.001 674.006h339v-62h-263v-234h250
v-62h-250v-254h265v-62h-341v674z" />
    <glyph glyph-name="ebreve" unicode="&#x115;" horiz-adv-x="534" 
d="M275 504c39.333 0 72.3379 -6.66699 99.0049 -20s48.167 -30.333 64.5 -51s28 -43.5 35 -68.5s10.5 -49.167 10.5 -72.5c0 -20 -0.5 -36.5 -1.5 -49.5s-1.83301 -20.167 -2.5 -21.5h-354c0.666992 -18 4.5 -36.667 11.5 -56s17.667 -37 32 -53
s33.166 -29.167 56.499 -39.5s51.333 -15.5 84 -15.5c30 0 55.333 3.5 76 10.5s33.667 11.833 39 14.5c4 1.33301 7.5 2.83301 10.5 4.5s5.83301 2.5 8.5 2.5c5.33301 0 8.33301 -3.66699 9 -11s1.16699 -16.666 1.5 -27.999s0.5 -22.333 0.5 -33
c-4.66699 -2 -11.834 -4.5 -21.501 -7.5s-21.334 -6 -35.001 -9s-28.667 -5.5 -45 -7.5s-33.5 -3 -51.5 -3c-84.667 0 -147.834 23 -189.501 69s-62.5 108.333 -62.5 187c0 39.333 5.16699 74.833 15.5 106.5s25.166 58.667 44.499 81s43 39.666 71 51.999
s59.333 18.5 94 18.5zM126.005 280l281.999 -0.000976562c0.666992 1.33301 1 3.33301 1 6v9c0 14 -2 29.333 -6 46s-11 32.167 -21 46.5s-23.667 26.333 -41 36s-39.666 14.5 -66.999 14.5c-28.667 0 -52.5 -5.66699 -71.5 -17s-34.167 -25.166 -45.5 -41.499
s-19.333 -33.5 -24 -51.5s-7 -34 -7 -48zM403.004 715.999c0 -10.667 -2.16797 -22.3291 -6.50098 -34.9961s-11.5 -24.167 -21.5 -34.5s-23.167 -19 -39.5 -26s-36.5 -10.5 -60.5 -10.5c-23.333 0 -43.166 3.33301 -59.499 10s-29.5 15.334 -39.5 26.001
s-17.333 22.167 -22 34.5s-7 24.166 -7 35.499h54c0 -4.66699 1.16699 -10.334 3.5 -17.001s6.16602 -13.334 11.499 -20.001s12.833 -12.334 22.5 -17.001s21.834 -7 36.501 -7c14 0 25.667 2.16699 35 6.5s17 9.66602 23 15.999s10.167 13 12.5 20s3.5 13.167 3.5 18.5h54
z" />
    <glyph glyph-name="Edotaccent" unicode="&#x116;" horiz-adv-x="511" 
d="M110 674h339v-62h-262v-234h249v-62h-249v-252h264v-64h-341v674v0zM248 858h78v-78h-78v78z" />
    <glyph glyph-name="edotaccent" unicode="&#x117;" horiz-adv-x="535" 
d="M275 504c39.333 0 72.5039 -6.66699 99.5039 -20s48.667 -30.333 65 -51s28 -43.5 35 -68.5s10.5 -49.167 10.5 -72.5c0 -20 -0.666992 -36.5 -2 -49.5s-2 -20.167 -2 -21.5h-355c0.666992 -18 4.5 -36.667 11.5 -56s17.833 -37 32.5 -53s33.5 -29.167 56.5 -39.5
s51.167 -15.5 84.5 -15.5c30 0 55.333 3.5 76 10.5s33.667 11.833 39 14.5c3.33301 1.33301 6.5 2.83301 9.5 4.5s5.83301 2.5 8.5 2.5c6 0 9 -3.66699 9 -11c0.666992 -7.33301 1.16699 -16.666 1.5 -27.999s0.5 -22.333 0.5 -33c-4.66699 -2 -11.834 -4.5 -21.501 -7.5
s-21.334 -6 -35.001 -9s-28.667 -5.5 -45 -7.5s-33.5 -3 -51.5 -3c-84.667 0 -147.834 23 -189.501 69s-62.5 108.333 -62.5 187c0 39.333 5.16699 74.833 15.5 106.5s25.166 58.667 44.499 81s43 39.666 71 51.999s59.333 18.5 94 18.5zM126.004 280l282.999 -0.000976562
v15c0 14 -2 29.333 -6 46s-11 32.167 -21 46.5s-23.667 26.333 -41 36s-39.666 14.5 -66.999 14.5c-28.667 0 -52.5 -5.66699 -71.5 -17s-34.167 -25.166 -45.5 -41.499s-19.333 -33.5 -24 -51.5s-7 -34 -7 -48zM233.003 700.999h78v-78h-78v78z" />
    <glyph glyph-name="Eogonek" unicode="&#x118;" horiz-adv-x="554" 
d="M110 0l-0.00195312 674.004h339v-62h-263v-234h250v-62h-250v-254h265v-62l-13.5 -21c-6.33301 -10 -12.666 -21.667 -18.999 -35s-11.833 -27.5 -16.5 -42.5s-7 -29.833 -7 -44.5c0 -16 4.83301 -28.833 14.5 -38.5s23.5 -14.5 41.5 -14.5c8 0 16.167 1 24.5 3
s14.5 3.66699 18.5 5v-48c-3.33301 -1.33301 -10.333 -3.5 -21 -6.5s-23 -4.5 -37 -4.5c-8 0 -17.833 1 -29.5 3s-23 6.16699 -34 12.5s-20.333 15.666 -28 27.999s-11.5 29.166 -11.5 50.499c0 17.333 2.5 34.166 7.5 50.499s11 31.166 18 44.499s14.333 25 22 35
s13.834 17.667 18.501 23h-289z" />
    <glyph glyph-name="eogonek" unicode="&#x119;" horiz-adv-x="534" 
d="M484 292c0 -20 -0.498047 -36.499 -1.49805 -49.499s-1.83301 -20.167 -2.5 -21.5h-354c0.666992 -18 4.5 -36.667 11.5 -56s17.667 -37 32 -53s33.166 -29.167 56.499 -39.5s51.333 -15.5 84 -15.5c30 0 55.333 3.5 76 10.5s33.667 11.833 39 14.5
c4 1.33301 7.5 2.83301 10.5 4.5s5.83301 2.5 8.5 2.5c5.33301 0 8.33301 -3.66699 9 -11s1.16699 -16.666 1.5 -27.999s0.5 -22.333 0.5 -33c-8 -3.33301 -23.833 -8 -47.5 -14s-50.5 -10 -80.5 -12c-4 -6 -8.83301 -14.167 -14.5 -24.5s-11.167 -21.5 -16.5 -33.5
s-9.83301 -24.5 -13.5 -37.5s-5.5 -25.833 -5.5 -38.5c0 -16 5 -28.667 15 -38s23.667 -14 41 -14c8 0 16.167 0.833008 24.5 2.5s14.833 3.16699 19.5 4.5v-47l-22 -7c-10.667 -3.33301 -23 -5 -37 -5c-8 0 -17.833 1 -29.5 3s-23 6.33301 -34 13s-20.333 16.167 -28 28.5
s-11.5 28.833 -11.5 49.5c0 15.333 2 30.333 6 45s9 28.167 15 40.5s12.5 23.5 19.5 33.5s13.167 18.333 18.5 25c-75.333 5.33301 -131.5 30.666 -168.5 75.999s-55.5 105 -55.5 179c0 39.333 5.16699 74.833 15.5 106.5s25.166 58.667 44.499 81s43 39.666 71 51.999
s59.333 18.5 94 18.5c39.333 0 72.333 -6.66699 99 -20s48.167 -30.333 64.5 -51s28 -43.5 35 -68.5s10.5 -49.167 10.5 -72.5zM408.002 280.001c0 1.33301 0.166016 3.49902 0.499023 6.49902s0.5 5.83301 0.5 8.5c0 14 -2 29.333 -6 46s-11 32.167 -21 46.5
s-23.667 26.333 -41 36s-39.666 14.5 -66.999 14.5c-28.667 0 -52.5 -5.66699 -71.5 -17s-34.167 -25.166 -45.5 -41.499s-19.333 -33.5 -24 -51.5s-7 -34 -7 -48h282v0z" />
    <glyph glyph-name="Ecaron" unicode="&#x11a;" horiz-adv-x="511" 
d="M377 883h45l-89 -147h-77l-89 147h45l83 -95l82 95v0zM110 674h339v-62h-263v-234h250v-62h-250v-254h265v-62h-341v674z" />
    <glyph glyph-name="ecaron" unicode="&#x11b;" horiz-adv-x="535" 
d="M275 504c39.333 0 72.5 -6.66699 99.5 -20s48.667 -30.333 65 -51s28 -43.5 35 -68.5s10.5 -49.167 10.5 -72.5c0 -20 -0.666992 -36.5 -2 -49.5s-2 -20.167 -2 -21.5h-355c0.666992 -18 4.5 -36.667 11.5 -56s17.833 -37 32.5 -53s33.5 -29.167 56.5 -39.5
s51.167 -15.5 84.5 -15.5c30 0 55.333 3.5 76 10.5s33.667 11.833 39 14.5c3.33301 1.33301 6.5 2.83301 9.5 4.5s5.83301 2.5 8.5 2.5c6 0 9 -3.66699 9 -11c0.666992 -7.33301 1.16699 -16.666 1.5 -27.999s0.833008 -22.333 1.5 -33c-4.66699 -2 -12 -4.5 -22 -7.5
s-21.833 -6 -35.5 -9s-28.667 -5.5 -45 -7.5s-33.166 -3 -50.499 -3c-85.333 0 -148.833 23 -190.5 69s-62.5 108.333 -62.5 187c0 39.333 5.16699 74.833 15.5 106.5s25.166 58.667 44.499 81s43 39.666 71 51.999s59.333 18.5 94 18.5zM126 280l282.999 -0.000976562v15
c0 14 -2 29.333 -6 46s-11 32.167 -21 46.5s-23.667 26.333 -41 36s-39.666 14.5 -66.999 14.5c-28.667 0 -52.5 -5.66699 -71.5 -17s-34.167 -25.166 -45.5 -41.499s-19.333 -33.5 -24 -51.5s-7 -34 -7 -48zM401.999 740.999l-90 -147h-77l-89 147h45l83 -95l82 95h46z" />
    <glyph glyph-name="Gcircumflex" unicode="&#x11c;" horiz-adv-x="711" 
d="M293 736l89 147h78l89 -147h-45l-83 94l-82 -94h-46zM596 580c-2.66699 0.666992 -8.83496 3.00195 -18.502 7.00195s-22.167 8.16699 -37.5 12.5s-33 8.16602 -53 11.499s-42 5 -66 5c-45.333 0 -85 -7.16699 -119 -21.5s-62.167 -34 -84.5 -59
s-39.166 -54.5 -50.499 -88.5s-17 -70.667 -17 -110c0 -40.667 5.83301 -78.167 17.5 -112.5s29 -63.833 52 -88.5s51.333 -44 85 -58s72.5 -21 116.5 -21c30.667 0 57 2.83301 79 8.5s36.667 10.167 44 13.5v238h-132v62h209v-350c-4 -2 -11.833 -5 -23.5 -9
s-26.5 -8.33301 -44.5 -13s-38.5 -8.66699 -61.5 -12s-47.833 -5 -74.5 -5c-55.333 0 -104.5 8.83301 -147.5 26.5s-79.333 42 -109 73s-52.167 67.667 -67.5 110s-23 88.166 -23 137.499c0 45.333 6.83301 88.833 20.5 130.5s34.834 78.5 63.501 110.5
s64.667 57.667 108 77s95 29 155 29c28 0 53.167 -1.5 75.5 -4.5s42 -6.33301 59 -10s31 -7.5 42 -11.5s18.5 -7 22.5 -9z" />
    <glyph glyph-name="gcircumflex" unicode="&#x11d;" horiz-adv-x="507" 
d="M125 594l89 147h78l89 -147h-45l-83 94l-82 -94h-46zM254 504c20 0 38.333 -1.83594 55 -5.50293s28.667 -7.16699 36 -10.5h142c0 -4 -0.166992 -9.83301 -0.5 -17.5s-0.833008 -15.167 -1.5 -22.5c-0.666992 -6 -2 -10.667 -4 -14s-6.66699 -5 -14 -5h-50
c4.66699 -6.66699 10.667 -17.5 18 -32.5s11 -36.5 11 -64.5c0 -30 -4.66699 -56 -14 -78s-22.5 -40.167 -39.5 -54.5s-37.333 -25.166 -61 -32.499s-49.5 -11 -77.5 -11c-18.667 0 -33.667 1.33301 -45 4s-19.333 4.66699 -24 6
c-6.66699 -1.33301 -15.167 -5.83301 -25.5 -13.5s-15.5 -18.167 -15.5 -31.5c0 -14 5.66699 -25 17 -33s28.666 -12 51.999 -12h89c61.333 0 107 -12.333 137 -37s45 -58.334 45 -101.001c0 -27.333 -5.66699 -52.166 -17 -74.499s-27.833 -41.833 -49.5 -58.5
s-47.834 -29.5 -78.501 -38.5s-65 -13.5 -103 -13.5c-34.667 0 -64.334 4.5 -89.001 13.5s-45 20.833 -61 35.5s-27.667 31.334 -35 50.001s-11 37.667 -11 57c0 18.667 3.16699 34.834 9.5 48.501s13.833 25.334 22.5 35.001s17.334 17.334 26.001 23.001
s15.334 9.5 20.001 11.5c-4.66699 2 -9.83398 5 -15.501 9s-11 9.16699 -16 15.5s-9.16699 13.666 -12.5 21.999s-5 17.833 -5 28.5c0 13.333 2.5 24.833 7.5 34.5s11.167 17.834 18.5 24.501s14.833 12.167 22.5 16.5s13.834 7.5 18.501 9.5c-4 2 -10 6 -18 12
s-16.167 14.667 -24.5 26s-15.666 25.666 -21.999 42.999s-9.5 38.666 -9.5 63.999c0 24.667 4 47.5 12 68.5s20 39.167 36 54.5s36 27.333 60 36s52 13 84 13zM116 -83.0029c0 -28 10.333 -50.833 31 -68.5s53 -26.5 97 -26.5c28.667 0 53.334 3 74.001 9
s37.667 13.833 51 23.5s23.166 20.667 29.499 33s9.5 24.833 9.5 37.5c0 10 -2 20 -6 30s-10.667 19 -20 27s-21.666 14.5 -36.999 19.5s-34.333 7.5 -57 7.5h-66c-13.333 0 -23.833 0.166992 -31.5 0.5s-12.834 0.5 -15.501 0.5c-13.333 -5.33301 -26.5 -16 -39.5 -32
s-19.5 -36.333 -19.5 -61zM136 326.997c0 -30.667 9.49805 -57.001 28.498 -79.001s48.833 -33 89.5 -33c36.667 0 65.334 10 86.001 30s31 47.333 31 82c0 34 -10.167 61.5 -30.5 82.5s-49.166 31.5 -86.499 31.5c-39.333 0 -68.833 -10.667 -88.5 -32
s-29.5 -48.666 -29.5 -81.999z" />
    <glyph glyph-name="Gbreve" unicode="&#x11e;" horiz-adv-x="711" 
d="M545 871c0 -10.667 -2.16797 -22.3311 -6.50098 -34.998s-11.5 -24.167 -21.5 -34.5s-23 -19 -39 -26s-36 -10.5 -60 -10.5c-23.333 0 -43.166 3.33301 -59.499 10s-29.5 15.334 -39.5 26.001s-17.333 22.167 -22 34.5s-7 24.166 -7 35.499h54
c0 -4.66699 1.16699 -10.334 3.5 -17.001s6.16602 -13.167 11.499 -19.5s12.833 -11.833 22.5 -16.5s21.834 -7 36.501 -7c14 0 25.667 2.16699 35 6.5s16.833 9.66602 22.5 15.999s9.66699 13 12 20s3.5 12.833 3.5 17.5h54zM595.999 580.003
c-2.66699 0.666992 -8.83496 3.00195 -18.502 7.00195s-22.167 8.16699 -37.5 12.5s-33 8.16602 -53 11.499s-42 5 -66 5c-45.333 0 -85 -7.16699 -119 -21.5s-62.167 -34 -84.5 -59s-39.166 -54.5 -50.499 -88.5s-17 -70.667 -17 -110
c0 -40.667 5.83301 -78.167 17.5 -112.5s29 -63.833 52 -88.5s51.333 -44 85 -58s72.5 -21 116.5 -21c30.667 0 57 2.83301 79 8.5s36.667 10.167 44 13.5v238h-132v62h209v-350c-4 -2 -11.833 -5 -23.5 -9s-26.5 -8.33301 -44.5 -13s-38.5 -8.66699 -61.5 -12
s-47.833 -5 -74.5 -5c-55.333 0 -104.5 8.83301 -147.5 26.5s-79.333 42 -109 73s-52.167 67.667 -67.5 110s-23 88.166 -23 137.499c0 45.333 6.83301 88.833 20.5 130.5s34.834 78.5 63.501 110.5s64.667 57.667 108 77s95 29 155 29c28 0 53.167 -1.5 75.5 -4.5
s42 -6.33301 59 -10s31 -7.5 42 -11.5s18.5 -7 22.5 -9z" />
    <glyph glyph-name="gbreve" unicode="&#x11f;" horiz-adv-x="507" 
d="M254 504c20 0 38.333 -1.83594 55 -5.50293s28.667 -7.16699 36 -10.5h142c0 -4 -0.166992 -9.83301 -0.5 -17.5s-0.833008 -15.167 -1.5 -22.5c-0.666992 -6 -2 -10.667 -4 -14s-6.66699 -5 -14 -5h-50c4.66699 -6.66699 10.667 -17.5 18 -32.5s11 -36.5 11 -64.5
c0 -30 -4.66699 -56 -14 -78s-22.5 -40.167 -39.5 -54.5s-37.333 -25.166 -61 -32.499s-49.5 -11 -77.5 -11c-18.667 0 -33.667 1.33301 -45 4s-19.333 4.66699 -24 6c-6.66699 -1.33301 -15.167 -5.83301 -25.5 -13.5s-15.5 -18.167 -15.5 -31.5c0 -14 5.66699 -25 17 -33
s28.666 -12 51.999 -12h89c61.333 0 107 -12.333 137 -37s45 -58.334 45 -101.001c0 -27.333 -5.66699 -52.166 -17 -74.499s-27.833 -41.833 -49.5 -58.5s-47.834 -29.5 -78.501 -38.5s-65 -13.5 -103 -13.5c-34.667 0 -64.334 4.5 -89.001 13.5s-45 20.833 -61 35.5
s-27.667 31.334 -35 50.001s-11 37.667 -11 57c0 18.667 3.16699 34.834 9.5 48.501s13.833 25.334 22.5 35.001s17.334 17.334 26.001 23.001s15.334 9.5 20.001 11.5c-4.66699 2 -9.83398 5 -15.501 9s-11 9.16699 -16 15.5s-9.16699 13.666 -12.5 21.999
s-5 17.833 -5 28.5c0 13.333 2.5 24.833 7.5 34.5s11.167 17.834 18.5 24.501s14.833 12.167 22.5 16.5s13.834 7.5 18.501 9.5c-4 2 -10 6 -18 12s-16.167 14.667 -24.5 26s-15.666 25.666 -21.999 42.999s-9.5 38.666 -9.5 63.999c0 24.667 4 47.5 12 68.5
s20 39.167 36 54.5s36 27.333 60 36s52 13 84 13zM116 -83.0029c0 -28 10.333 -50.833 31 -68.5s53 -26.5 97 -26.5c28.667 0 53.334 3 74.001 9s37.667 13.833 51 23.5s23.166 20.667 29.499 33s9.5 24.833 9.5 37.5c0 10 -2 20 -6 30s-10.667 19 -20 27
s-21.666 14.5 -36.999 19.5s-34.333 7.5 -57 7.5h-66c-13.333 0 -23.833 0.166992 -31.5 0.5s-12.834 0.5 -15.501 0.5c-13.333 -5.33301 -26.5 -16 -39.5 -32s-19.5 -36.333 -19.5 -61zM136 326.997c0 -30.667 9.49805 -57.001 28.498 -79.001s48.833 -33 89.5 -33
c36.667 0 65.334 10 86.001 30s31 47.333 31 82c0 34 -10.167 61.5 -30.5 82.5s-49.166 31.5 -86.499 31.5c-39.333 0 -68.833 -10.667 -88.5 -32s-29.5 -48.666 -29.5 -81.999zM382.998 735.996c0 -10.667 -2.16797 -22.3311 -6.50098 -34.998s-11.5 -24.167 -21.5 -34.5
s-23 -19 -39 -26s-36 -10.5 -60 -10.5c-23.333 0 -43.166 3.33301 -59.499 10s-29.5 15.334 -39.5 26.001s-17.333 22.167 -22 34.5s-7 24.166 -7 35.499h54c0 -4.66699 1.16699 -10.334 3.5 -17.001s6.16602 -13.167 11.499 -19.5s12.833 -11.833 22.5 -16.5
s21.834 -7 36.501 -7c14 0 25.667 2.16699 35 6.5s16.833 9.66602 22.5 15.999s9.66699 13 12 20s3.5 12.833 3.5 17.5h54z" />
    <glyph glyph-name="Gdotaccent" unicode="&#x120;" horiz-adv-x="711" 
d="M371 858h78v-78h-78v78zM596 580c-2.66699 0.666992 -8.83496 3.00195 -18.502 7.00195s-22.167 8.16699 -37.5 12.5s-33 8.16602 -53 11.499s-42 5 -66 5c-45.333 0 -85 -7.16699 -119 -21.5s-62.167 -34 -84.5 -59s-39.166 -54.5 -50.499 -88.5s-17 -70.667 -17 -110
c0 -40.667 5.83301 -78.167 17.5 -112.5s29 -63.833 52 -88.5s51.333 -44 85 -58s72.5 -21 116.5 -21c30.667 0 57 2.83301 79 8.5s36.667 10.167 44 13.5v238h-132v62h209v-350c-4 -2 -11.833 -5 -23.5 -9s-26.5 -8.33301 -44.5 -13s-38.5 -8.66699 -61.5 -12
s-47.833 -5 -74.5 -5c-55.333 0 -104.5 8.83301 -147.5 26.5s-79.333 42 -109 73s-52.167 67.667 -67.5 110s-23 88.166 -23 137.499c0 45.333 6.83301 88.833 20.5 130.5s34.834 78.5 63.501 110.5s64.667 57.667 108 77s95 29 155 29c28 0 53.167 -1.5 75.5 -4.5
s42 -6.33301 59 -10s31 -7.5 42 -11.5s18.5 -7 22.5 -9z" />
    <glyph glyph-name="gdotaccent" unicode="&#x121;" horiz-adv-x="507" 
d="M208 701h78v-78h-78v78zM254 504c20 0 38.333 -1.83594 55 -5.50293s28.667 -7.16699 36 -10.5h142c0 -4 -0.166992 -9.83301 -0.5 -17.5s-0.833008 -15.167 -1.5 -22.5c-0.666992 -6 -2 -10.667 -4 -14s-6.66699 -5 -14 -5h-50c4.66699 -6.66699 10.667 -17.5 18 -32.5
s11 -36.5 11 -64.5c0 -30 -4.66699 -56 -14 -78s-22.5 -40.167 -39.5 -54.5s-37.333 -25.166 -61 -32.499s-49.5 -11 -77.5 -11c-18.667 0 -33.667 1.33301 -45 4s-19.333 4.66699 -24 6c-6.66699 -1.33301 -15.167 -5.83301 -25.5 -13.5s-15.5 -18.167 -15.5 -31.5
c0 -14 5.66699 -25 17 -33s28.666 -12 51.999 -12h89c61.333 0 107 -12.333 137 -37s45 -58.334 45 -101.001c0 -27.333 -5.66699 -52.166 -17 -74.499s-27.833 -41.833 -49.5 -58.5s-47.834 -29.5 -78.501 -38.5s-65 -13.5 -103 -13.5c-34.667 0 -64.334 4.5 -89.001 13.5
s-45 20.833 -61 35.5s-27.667 31.334 -35 50.001s-11 37.667 -11 57c0 18.667 3.16699 34.834 9.5 48.501s13.833 25.334 22.5 35.001s17.334 17.334 26.001 23.001s15.334 9.5 20.001 11.5c-4.66699 2 -9.83398 5 -15.501 9s-11 9.16699 -16 15.5
s-9.16699 13.666 -12.5 21.999s-5 17.833 -5 28.5c0 13.333 2.5 24.833 7.5 34.5s11.167 17.834 18.5 24.501s14.833 12.167 22.5 16.5s13.834 7.5 18.501 9.5c-4 2 -10 6 -18 12s-16.167 14.667 -24.5 26s-15.666 25.666 -21.999 42.999s-9.5 38.666 -9.5 63.999
c0 24.667 4 47.5 12 68.5s20 39.167 36 54.5s36 27.333 60 36s52 13 84 13zM116 -83.0029c0 -28 10.333 -50.833 31 -68.5s53 -26.5 97 -26.5c28.667 0 53.334 3 74.001 9s37.667 13.833 51 23.5s23.166 20.667 29.499 33s9.5 24.833 9.5 37.5c0 10 -2 20 -6 30
s-10.667 19 -20 27s-21.666 14.5 -36.999 19.5s-34.333 7.5 -57 7.5h-66c-13.333 0 -23.833 0.166992 -31.5 0.5s-12.834 0.5 -15.501 0.5c-13.333 -5.33301 -26.5 -16 -39.5 -32s-19.5 -36.333 -19.5 -61zM136 326.997c0 -30.667 9.49805 -57.001 28.498 -79.001
s48.833 -33 89.5 -33c36.667 0 65.334 10 86.001 30s31 47.333 31 82c0 34 -10.167 61.5 -30.5 82.5s-49.166 31.5 -86.499 31.5c-39.333 0 -68.833 -10.667 -88.5 -32s-29.5 -48.666 -29.5 -81.999z" />
    <glyph glyph-name="uni0122" unicode="&#x122;" horiz-adv-x="711" 
d="M374 -69l77.998 -0.000976562v-78c0 -12 -2.5 -23.167 -7.5 -33.5s-11.167 -19.833 -18.5 -28.5s-15.166 -16.167 -23.499 -22.5s-16.166 -11.166 -23.499 -14.499l-13 18c11.333 7.33301 21.833 17.833 31.5 31.5s14.5 30.167 14.5 49.5h-38v78zM595.998 579.999
c-2.66699 0.666992 -8.83496 3.00195 -18.502 7.00195s-22.167 8.16699 -37.5 12.5s-33 8.16602 -53 11.499s-42 5 -66 5c-45.333 0 -85 -7.16699 -119 -21.5s-62.167 -34 -84.5 -59s-39.166 -54.5 -50.499 -88.5s-17 -70.667 -17 -110
c0 -40.667 5.83301 -78.167 17.5 -112.5s29 -63.833 52 -88.5s51.333 -44 85 -58s72.5 -21 116.5 -21c30.667 0 57 2.83301 79 8.5s36.667 10.167 44 13.5v238h-132v62h209v-350c-4 -2 -11.833 -5 -23.5 -9s-26.5 -8.33301 -44.5 -13s-38.5 -8.66699 -61.5 -12
s-47.833 -5 -74.5 -5c-55.333 0 -104.5 8.83301 -147.5 26.5s-79.333 42 -109 73s-52.167 67.667 -67.5 110s-23 88.166 -23 137.499c0 45.333 6.83301 88.833 20.5 130.5s34.834 78.5 63.501 110.5s64.667 57.667 108 77s95 29 155 29c28 0 53.167 -1.5 75.5 -4.5
s42 -6.33301 59 -10s31 -7.5 42 -11.5s18.5 -7 22.5 -9z" />
    <glyph glyph-name="uni0123" unicode="&#x123;" horiz-adv-x="507" 
d="M241 594l80 147h85l-119 -147h-46zM254 504c20 0 38.333 -1.83594 55 -5.50293s28.667 -7.16699 36 -10.5h142c0 -4 -0.166992 -9.83301 -0.5 -17.5s-0.833008 -15.167 -1.5 -22.5c-0.666992 -6 -2 -10.667 -4 -14s-6.66699 -5 -14 -5h-50
c4.66699 -6.66699 10.667 -17.5 18 -32.5s11 -36.5 11 -64.5c0 -30 -4.66699 -56 -14 -78s-22.5 -40.167 -39.5 -54.5s-37.333 -25.166 -61 -32.499s-49.5 -11 -77.5 -11c-18.667 0 -33.667 1.33301 -45 4s-19.333 4.66699 -24 6
c-6.66699 -1.33301 -15.167 -5.83301 -25.5 -13.5s-15.5 -18.167 -15.5 -31.5c0 -14 5.66699 -25 17 -33s28.666 -12 51.999 -12h89c61.333 0 107 -12.333 137 -37s45 -58.334 45 -101.001c0 -27.333 -5.66699 -52.166 -17 -74.499s-27.833 -41.833 -49.5 -58.5
s-47.834 -29.5 -78.501 -38.5s-65 -13.5 -103 -13.5c-34.667 0 -64.334 4.5 -89.001 13.5s-45 20.833 -61 35.5s-27.667 31.334 -35 50.001s-11 37.667 -11 57c0 18.667 3.16699 34.834 9.5 48.501s13.833 25.334 22.5 35.001s17.334 17.334 26.001 23.001
s15.334 9.5 20.001 11.5c-4.66699 2 -9.83398 5 -15.501 9s-11 9.16699 -16 15.5s-9.16699 13.666 -12.5 21.999s-5 17.833 -5 28.5c0 13.333 2.5 24.833 7.5 34.5s11.167 17.834 18.5 24.501s14.833 12.167 22.5 16.5s13.834 7.5 18.501 9.5c-4 2 -10 6 -18 12
s-16.167 14.667 -24.5 26s-15.666 25.666 -21.999 42.999s-9.5 38.666 -9.5 63.999c0 24.667 4 47.5 12 68.5s20 39.167 36 54.5s36 27.333 60 36s52 13 84 13zM116 -83.0029c0 -28 10.333 -50.833 31 -68.5s53 -26.5 97 -26.5c28.667 0 53.334 3 74.001 9
s37.667 13.833 51 23.5s23.166 20.667 29.499 33s9.5 24.833 9.5 37.5c0 10 -2 20 -6 30s-10.667 19 -20 27s-21.666 14.5 -36.999 19.5s-34.333 7.5 -57 7.5h-66c-13.333 0 -23.833 0.166992 -31.5 0.5s-12.834 0.5 -15.501 0.5c-13.333 -5.33301 -26.5 -16 -39.5 -32
s-19.5 -36.333 -19.5 -61zM136 326.997c0 -30.667 9.49805 -57.001 28.498 -79.001s48.833 -33 89.5 -33c36.667 0 65.334 10 86.001 30s31 47.333 31 82c0 34 -10.167 61.5 -30.5 82.5s-49.166 31.5 -86.499 31.5c-39.333 0 -68.833 -10.667 -88.5 -32
s-29.5 -48.666 -29.5 -81.999z" />
    <glyph glyph-name="Hcircumflex" unicode="&#x124;" horiz-adv-x="739" 
d="M251 736l89 147h78l89 -147h-45l-83 94l-82 -94h-46zM629 674v-674h-76v317h-367v-317h-76v674h76v-295h367v295h76z" />
    <glyph glyph-name="hcircumflex" unicode="&#x125;" horiz-adv-x="581" 
d="M90 0v717.001h74v-301h3c4 6.66699 9.66699 15 17 25s17.333 19.667 30 29s28.334 17.333 47.001 24s41 10 67 10c51.333 0 93 -15.333 125 -46s48 -74.334 48 -131.001v-327h-74v307c0 46 -10.5 79.333 -31.5 100s-46.833 31 -77.5 31
c-20.667 0 -40.334 -4.5 -59.001 -13.5s-35 -22 -49 -39s-25.167 -37.5 -33.5 -61.5s-12.5 -51 -12.5 -81v-243h-74zM190 736.001l89 147h78l89 -147h-45l-83 94l-82 -94h-46z" />
    <glyph glyph-name="Hbar" unicode="&#x126;" horiz-adv-x="706" 
d="M20 570h78v104h77v-104h365v104h77v-104h69v-62h-69v-508h-77v317h-365v-317h-77v508h-78v62zM540 379v129h-365v-129h365z" />
    <glyph glyph-name="hbar" unicode="&#x127;" horiz-adv-x="588" 
d="M335 504c51.333 0 93.001 -15.332 125.001 -45.999s48 -74.334 48 -131.001v-327h-74v307c0 46 -10.5 79.333 -31.5 100s-46.833 31 -77.5 31c-20.667 0 -40.334 -4.5 -59.001 -13.5s-35 -22 -49 -39s-25 -37.333 -33 -61s-12 -50.5 -12 -80.5v-244h-75v573h-57v63h57v81
h75v-81h184v-63h-184v-157h2c4 6.66699 9.83301 15 17.5 25s17.667 19.667 30 29s27.833 17.333 46.5 24s41 10 67 10z" />
    <glyph glyph-name="Itilde" unicode="&#x128;" horiz-adv-x="296" 
d="M-16 805c2 2.66699 6.00098 6.83203 12.001 12.499s13.5 11.5 22.5 17.5s19.333 11.167 31 15.5s24.5 6.5 38.5 6.5c15.333 0 28.5 -2 39.5 -6s21.5 -8.16699 31.5 -12.5s20.167 -8.5 30.5 -12.5s22.5 -6 36.5 -6c7.33301 0 14.166 1.16699 20.499 3.5
s12 5.16602 17 8.49902s9.33301 6.66602 13 9.99902s6.5 6 8.5 8l28 -30c-4 -4.66699 -9.33301 -10 -16 -16s-14.5 -11.667 -23.5 -17s-19 -9.83301 -30 -13.5s-22.5 -5.5 -34.5 -5.5c-16 0 -29.333 1.83301 -40 5.5s-21 7.83398 -31 12.501s-20.167 8.83398 -30.5 12.501
s-22.833 5.5 -37.5 5.5c-13.333 0 -25 -3.66699 -35 -11s-17.667 -13.666 -23 -18.999zM109.001 673.998h77v-674h-77v674z" />
    <glyph glyph-name="itilde" unicode="&#x129;" horiz-adv-x="238" 
d="M83 0v494h74v-494h-74zM-45 655c2 2.66699 6 6.83496 12 12.502s13.5 11.5 22.5 17.5s19.333 11.167 31 15.5s24.167 6.5 37.5 6.5c15.333 0 28.666 -2 39.999 -6s22 -8.16699 32 -12.5s20.167 -8.5 30.5 -12.5s22.5 -6 36.5 -6c7.33301 0 14 1.16699 20 3.5
s11.667 5.16602 17 8.49902s9.83301 6.66602 13.5 9.99902s6.5 6 8.5 8l27 -30c-4 -4.66699 -9.33301 -10 -16 -16s-14.334 -11.833 -23.001 -17.5s-18.5 -10.334 -29.5 -14.001s-22.5 -5.5 -34.5 -5.5c-16 0 -29.5 2 -40.5 6s-21.333 8.16699 -31 12.5
s-19.667 8.5 -30 12.5s-22.833 6 -37.5 6c-13.333 0 -25.166 -3.66699 -35.499 -11s-18.166 -13.666 -23.499 -18.999z" />
    <glyph glyph-name="Imacron" unicode="&#x12a;" horiz-adv-x="296" 
d="M109 674h77v-674h-77v674v0zM258 838v-51h-221v51h221v0z" />
    <glyph glyph-name="imacron" unicode="&#x12b;" horiz-adv-x="238" 
d="M81 0v494h74v-494h-74v0zM229 696v-51h-221v51h221v0z" />
    <glyph glyph-name="Ibreve" unicode="&#x12c;" horiz-adv-x="296" 
d="M108 674h77v-674h-77v674zM275 858c0 -10.667 -2.16797 -22.3281 -6.50098 -34.9951s-11.5 -24.334 -21.5 -35.001s-23 -19.5 -39 -26.5s-36 -10.5 -60 -10.5c-23.333 0 -43.166 3.5 -59.499 10.5s-29.5 15.667 -39.5 26s-17.333 21.833 -22 34.5s-7 24.667 -7 36h54
c0 -4.66699 1.16699 -10.334 3.5 -17.001s6.16602 -13.334 11.499 -20.001s12.833 -12.334 22.5 -17.001s21.834 -7 36.501 -7c14 0 25.667 2.16699 35 6.5s16.833 9.66602 22.5 15.999s9.66699 13 12 20s3.5 13.167 3.5 18.5h54z" />
    <glyph glyph-name="ibreve" unicode="&#x12d;" horiz-adv-x="238" 
d="M82 0v494h74v-494h-74zM247 715c0 -10.667 -2.16602 -22.166 -6.49902 -34.499s-11.5 -23.833 -21.5 -34.5s-23.167 -19.5 -39.5 -26.5s-36.5 -10.5 -60.5 -10.5c-23.333 0 -43 3.33301 -59 10s-29 15.334 -39 26.001s-17.333 22.167 -22 34.5s-7 24.166 -7 35.499h54
c0 -4 1.16699 -9.5 3.5 -16.5s6.16602 -13.667 11.499 -20s12.666 -11.833 21.999 -16.5s21.333 -7 36 -7c14 0 25.833 2.16699 35.5 6.5s17.334 9.66602 23.001 15.999s9.66699 13 12 20s3.5 12.833 3.5 17.5h54z" />
    <glyph glyph-name="Iogonek" unicode="&#x12e;" horiz-adv-x="296" 
d="M188 0l-13.502 -20.9961c-6.33301 -10 -12.666 -21.667 -18.999 -35s-12 -27.5 -17 -42.5s-7.5 -29.833 -7.5 -44.5c0 -16 5 -28.833 15 -38.5s23.667 -14.5 41 -14.5c8.66699 0 17.167 1 25.5 3s14.5 3.66699 18.5 5v-48c-3.33301 -1.33301 -10.5 -3.5 -21.5 -6.5
s-23.167 -4.5 -36.5 -4.5c-8 0 -17.833 1 -29.5 3s-23 6.16699 -34 12.5s-20.333 15.666 -28 27.999s-11.5 29.166 -11.5 50.499c0 17.333 2.5 34.166 7.5 50.499s11 31.166 18 44.499s14.333 25 22 35s13.834 17.667 18.501 23h-25v674h77v-674v0z" />
    <glyph glyph-name="iogonek" unicode="&#x12f;" horiz-adv-x="238" 
d="M79 0l-0.00195312 494.004h74v-494l-13.5 -21c-6.33301 -10 -12.666 -21.667 -18.999 -35s-11.833 -27.5 -16.5 -42.5s-7 -29.833 -7 -44.5c0 -16 5 -28.833 15 -38.5s23.667 -14.5 41 -14.5c8 0 16.167 1 24.5 3s14.833 3.66699 19.5 5v-48
c-4 -1.33301 -11.333 -3.5 -22 -6.5s-23 -4.5 -37 -4.5c-8 0 -17.833 1 -29.5 3s-23 6.16699 -34 12.5s-20.333 15.666 -28 27.999s-11.5 29.166 -11.5 50.499c0 17.333 2.66699 34.166 8 50.499s11.5 31.166 18.5 44.499s14.333 25 22 35s13.834 17.667 18.501 23h-23z
M76.998 701.004h78v-78h-78v78z" />
    <glyph glyph-name="Idotaccent" unicode="&#x130;" horiz-adv-x="296" 
d="M110 674h77v-674h-77v674v0zM109 858h78v-78h-78v78z" />
    <glyph glyph-name="dotlessi" unicode="&#x131;" horiz-adv-x="234" 
d="M80 0v495h74v-495h-74v0z" />
    <glyph glyph-name="IJ" unicode="&#x132;" horiz-adv-x="588" 
d="M110 674h76v-674h-76v674zM402 674h76.002v-509c0 -56.667 -15.333 -100 -46 -130s-71.334 -45 -122.001 -45c-13.333 0 -26.833 1.16699 -40.5 3.5s-22.834 4.16602 -27.501 5.49902v70c2.66699 -1.33301 9.66699 -3.66602 21 -6.99902s24.666 -5 39.999 -5
c30.667 0 54.834 7.83301 72.501 23.5s26.5 40.5 26.5 74.5v519z" />
    <glyph glyph-name="ij" unicode="&#x133;" horiz-adv-x="421" 
d="M81 0v494h75v-494h-75zM264 -99v593.001h74v-567c0 -62 -13.333 -106.5 -40 -133.5s-67 -40.5 -121 -40.5c-18 0 -32.667 1.16699 -44 3.5s-19.666 4.83301 -24.999 7.5c0.666992 4.66699 1.16699 9.66699 1.5 15s0.833008 10.333 1.5 15
c0.666992 5.33301 1 10.666 1 15.999c0.666992 9.33301 4 14 10 14c4 0 10.167 -1.33301 18.5 -4s19.166 -4 32.499 -4c28.667 0 51 7 67 21s24 35.333 24 64zM80 701.001h78v-78h-78v78zM263 701.001h78v-78h-78v78z" />
    <glyph glyph-name="Jcircumflex" unicode="&#x134;" horiz-adv-x="347" 
d="M161 674h76.002v-509c0 -56.667 -15.333 -100 -46 -130s-71.334 -45 -122.001 -45c-13.333 0 -26.833 1.16699 -40.5 3.5s-22.834 4.16602 -27.501 5.49902v70c2.66699 -1.33301 9.66699 -3.66602 21 -6.99902s24.666 -5 39.999 -5c30.667 0 54.834 7.83301 72.501 23.5
s26.5 40.5 26.5 74.5v519zM75.002 736l89 147h78l89 -147h-45l-83 94l-82 -94h-46z" />
    <glyph glyph-name="jcircumflex" unicode="&#x135;" horiz-adv-x="237" 
d="M76 493l74 0.000976562v-567c0 -62 -13.333 -106.5 -40 -133.5s-67 -40.5 -121 -40.5c-18 0 -32.667 1.16699 -44 3.5s-19.666 4.83301 -24.999 7.5c0.666992 4.66699 1.16699 9.66699 1.5 15s0.833008 10.333 1.5 15c0.666992 5.33301 1 10.666 1 15.999
c0.666992 9.33301 4 14 10 14c4 0 10.167 -1.33301 18.5 -4s19.166 -4 32.499 -4c28.667 0 51 7 67 21s24 35.333 24 64v593zM-17 594.001l89 147h78l89 -147h-45l-83 94l-82 -94h-46z" />
    <glyph glyph-name="uni0136" unicode="&#x136;" horiz-adv-x="572" 
d="M466 0l-279 339v-339h-77v674h77v-321l265 321h91l-273 -326l302 -348h-106zM269 -69l77.998 -0.000976562v-78c0 -12 -2.5 -23.167 -7.5 -33.5s-11.167 -19.833 -18.5 -28.5s-15.166 -16.167 -23.499 -22.5s-16.166 -11.166 -23.499 -14.499l-13 18
c11.333 7.33301 21.833 17.833 31.5 31.5s14.5 30.167 14.5 49.5h-38v78z" />
    <glyph glyph-name="uni0137" unicode="&#x137;" horiz-adv-x="464" 
d="M90 0v717h74v-442l208 219h84l-215 -226l233 -268h-91l-219 260v-260h-74zM250 -69l77.998 -0.000976562v-78c0 -12 -2.5 -23.167 -7.5 -33.5s-11.167 -19.833 -18.5 -28.5s-15.166 -16.167 -23.499 -22.5s-16.166 -11.166 -23.499 -14.499l-13 18
c11.333 7.33301 21.833 17.833 31.5 31.5s14.5 30.167 14.5 49.5h-38v78z" />
    <glyph glyph-name="kgreenlandic" unicode="&#x138;" horiz-adv-x="464" 
d="M90 0v494h74v-219l208 219h84l-215 -226l233 -268h-91l-219 260v-260h-74z" />
    <glyph glyph-name="Lacute" unicode="&#x139;" horiz-adv-x="436" 
d="M173 736l80 147h86l-120 -147h-46zM186 62h250v-62h-326v674h76v-612z" />
    <glyph glyph-name="lacute" unicode="&#x13a;" horiz-adv-x="254" 
d="M91 766l80 147h86l-120 -147h-46zM90 0v717h74v-717h-74z" />
    <glyph glyph-name="uni013B" unicode="&#x13b;" horiz-adv-x="436" 
d="M186 62h250v-62h-326v674h76v-612zM240 -69l77.998 -0.000976562v-78c0 -12 -2.5 -23.167 -7.5 -33.5s-11.167 -19.833 -18.5 -28.5s-15.166 -16.167 -23.499 -22.5s-16.166 -11.166 -23.499 -14.499l-13 18c11.333 7.33301 21.833 17.833 31.5 31.5
s14.5 30.167 14.5 49.5h-38v78z" />
    <glyph glyph-name="uni013C" unicode="&#x13c;" horiz-adv-x="254" 
d="M94 0v717h74v-717h-74zM93 -69l77.998 -0.000976562v-78c0 -12 -2.5 -23.167 -7.5 -33.5s-11.167 -19.833 -18.5 -28.5s-15.166 -16.167 -23.499 -22.5s-16.166 -11.166 -23.499 -14.499l-13 18c11.333 7.33301 21.833 17.833 31.5 31.5s14.5 30.167 14.5 49.5h-38v78z
" />
    <glyph glyph-name="Lcaron" unicode="&#x13d;" horiz-adv-x="437" 
d="M186 62h250v-62h-326v674h76v-612zM348 674l77.998 -0.000976562v-78c0 -12 -2.5 -23.167 -7.5 -33.5s-11.167 -19.833 -18.5 -28.5s-15.166 -16.167 -23.499 -22.5s-16.166 -11.166 -23.499 -14.499l-13 18c11.333 7.33301 21.833 17.833 31.5 31.5
s14.5 30.167 14.5 49.5h-38v78z" />
    <glyph glyph-name="lcaron" unicode="&#x13e;" horiz-adv-x="291" 
d="M90 0v717h74v-717h-74zM243 674l77.998 -0.000976562v-78c0 -12 -2.5 -23.167 -7.5 -33.5s-11.167 -19.833 -18.5 -28.5s-15.166 -16.167 -23.499 -22.5s-16.166 -11.166 -23.499 -14.499l-13 18c11.333 7.33301 21.833 17.833 31.5 31.5s14.5 30.167 14.5 49.5h-38v78z
" />
    <glyph glyph-name="Ldot" unicode="&#x13f;" horiz-adv-x="436" 
d="M186 62h250v-62h-326v674h76v-612zM308 419h78v-78h-78v78z" />
    <glyph glyph-name="ldot" unicode="&#x140;" horiz-adv-x="325" 
d="M90 0v717h74v-717h-74zM237 385h78v-78h-78v78z" />
    <glyph glyph-name="Lslash" unicode="&#x141;" horiz-adv-x="434" 
d="M199 62h237v-62h-326v238l-56 -23l-22 57l78 31v371h76v-338l164 66l20 -56l-184 -75v-209h13z" />
    <glyph glyph-name="lslash" unicode="&#x142;" horiz-adv-x="254" 
d="M250 415l-103 -72.001c0.666992 -57.333 1 -114.666 1 -171.999v-171h-75v292l-42 -29l-32 54l74 52v348h75v-297l68 47z" />
    <glyph glyph-name="Nacute" unicode="&#x143;" horiz-adv-x="748" 
d="M330 736l80 147h86l-120 -147h-46zM110 0v674h100l348 -551h5v551h75v-674h-104l-346 562h-4v-562h-74z" />
    <glyph glyph-name="nacute" unicode="&#x144;" horiz-adv-x="576" 
d="M278 594l80 147h85l-119 -147h-46zM85 0l-0.00390625 343.003c0 25.333 -0.5 52 -1.5 80s-2.16699 51.667 -3.5 71h63c8.66699 0 13 -4.33301 13 -13c0.666992 -3.33301 1 -8.66602 1 -15.999v-23v-30h3c4.66699 7.33301 10.834 16.166 18.501 26.499
s17.834 20.333 30.501 30s28.334 18 47.001 25s41 10.5 67 10.5c24.667 0 47.5 -3.83301 68.5 -11.5s39.333 -18.834 55 -33.501s27.834 -32.834 36.501 -54.501s13 -46.5 13 -74.5v-330h-74v310c0 42 -10 73.833 -30 95.5s-46.333 32.5 -79 32.5
c-19.333 0 -38.333 -4.33301 -57 -13s-35.167 -21.334 -49.5 -38.001s-25.833 -37 -34.5 -61s-13 -51.333 -13 -82v-244h-74z" />
    <glyph glyph-name="uni0145" unicode="&#x145;" horiz-adv-x="748" 
d="M110 0v674h100l348 -551h5v551h75v-674h-104l-346 562h-4v-562h-74zM322 -69l77.998 -0.000976562v-78c0 -12 -2.5 -23.167 -7.5 -33.5s-11.167 -19.833 -18.5 -28.5s-15.166 -16.167 -23.499 -22.5s-16.166 -11.166 -23.499 -14.499l-13 18
c11.333 7.33301 21.833 17.833 31.5 31.5s14.5 30.167 14.5 49.5h-38v78z" />
    <glyph glyph-name="uni0146" unicode="&#x146;" horiz-adv-x="576" 
d="M85 0l-0.00390625 343.003c0 25.333 -0.5 52 -1.5 80s-2.16699 51.667 -3.5 71h63c8.66699 0 13 -4.33301 13 -13c0.666992 -3.33301 1 -8.66602 1 -15.999v-23v-30h3c4.66699 7.33301 10.834 16.166 18.501 26.499s17.834 20.333 30.501 30s28.334 18 47.001 25
s41 10.5 67 10.5c24.667 0 47.5 -3.83301 68.5 -11.5s39.333 -18.834 55 -33.501s27.834 -32.834 36.501 -54.501s13 -46.5 13 -74.5v-330h-74v310c0 42 -10 73.833 -30 95.5s-46.333 32.5 -79 32.5c-19.333 0 -38.333 -4.33301 -57 -13s-35.167 -21.334 -49.5 -38.001
s-25.833 -37 -34.5 -61s-13 -51.333 -13 -82v-244h-74zM248.996 -68.9971l77.998 -0.000976562v-78c0 -12 -2.5 -23.167 -7.5 -33.5s-11.167 -19.833 -18.5 -28.5s-15.166 -16.167 -23.499 -22.5s-16.166 -11.166 -23.499 -14.499l-13 18
c11.333 7.33301 21.833 17.833 31.5 31.5s14.5 30.167 14.5 49.5h-38v78z" />
    <glyph glyph-name="Ncaron" unicode="&#x147;" horiz-adv-x="748" 
d="M541 883l-89 -147h-77l-89 147h45l83 -95l82 95h45zM110 0v674h100l348 -551h5v551h75v-674h-104l-346 562h-4v-562h-74z" />
    <glyph glyph-name="ncaron" unicode="&#x148;" horiz-adv-x="576" 
d="M85 0l-0.00390625 343.003c0 25.333 -0.5 52 -1.5 80s-2.16699 51.667 -3.5 71h63c8.66699 0 13 -4.33301 13 -13c0.666992 -3.33301 1 -8.66602 1 -15.999v-23v-30h3c4.66699 7.33301 10.834 16.166 18.501 26.499s17.834 20.333 30.501 30s28.334 18 47.001 25
s41 10.5 67 10.5c24.667 0 47.5 -3.83301 68.5 -11.5s39.333 -18.834 55 -33.501s27.834 -32.834 36.501 -54.501s13 -46.5 13 -74.5v-330h-74v310c0 42 -10 73.833 -30 95.5s-46.333 32.5 -79 32.5c-19.333 0 -38.333 -4.33301 -57 -13s-35.167 -21.334 -49.5 -38.001
s-25.833 -37 -34.5 -61s-13 -51.333 -13 -82v-244h-74zM244.996 741.003l82 -94l83 94h45l-89 -147h-78l-89 147h46z" />
    <glyph glyph-name="napostrophe" unicode="&#x149;" horiz-adv-x="597" 
d="M106 0l-0.00390625 343.003c0 25.333 -0.5 52 -1.5 80s-2.16699 51.667 -3.5 71h63c8.66699 0 13 -4.33301 13 -13c0.666992 -3.33301 1 -8.66602 1 -15.999v-23v-30h3c4.66699 7.33301 10.834 16.166 18.501 26.499s17.834 20.333 30.501 30s28.334 18 47.001 25
s41 10.5 67 10.5c24.667 0 47.5 -3.83301 68.5 -11.5s39.333 -18.834 55 -33.501s27.834 -32.834 36.501 -54.501s13 -46.5 13 -74.5v-330h-74v310c0 42 -10 73.833 -30 95.5s-46.333 32.5 -79 32.5c-19.333 0 -38.333 -4.33301 -57 -13s-35.167 -21.334 -49.5 -38.001
s-25.833 -37 -34.5 -61s-13 -51.333 -13 -82v-244h-74zM7.99609 673.003l77.998 -0.000976562v-78c0 -12 -2.5 -23.167 -7.5 -33.5s-11.167 -19.833 -18.5 -28.5s-15.166 -16.167 -23.499 -22.5s-16.166 -11.166 -23.499 -14.499l-13 18
c11.333 7.33301 21.833 17.833 31.5 31.5s14.5 30.167 14.5 49.5h-38v78z" />
    <glyph glyph-name="Eng" unicode="&#x14a;" horiz-adv-x="748" 
d="M638 0l0.00292969 -71.999c0 -57.333 -15.333 -100.833 -46 -130.5s-71.334 -44.5 -122.001 -44.5c-13.333 0 -26.833 1.16699 -40.5 3.5s-23.167 4.16602 -28.5 5.49902v69c3.33301 -1.33301 10.666 -3.5 21.999 -6.5s24.666 -4.5 39.999 -4.5c30 0 54 7.83301 72 23.5
s27 40.5 27 74.5v66l-373 579h-4v-563h-75v675h101l348 -539h4v539h75v-675z" />
    <glyph glyph-name="eng" unicode="&#x14b;" horiz-adv-x="586" 
d="M422 310c0 42 -10.0039 73.8369 -30.0039 95.5039s-46.333 32.5 -79 32.5c-19.333 0 -38.333 -4.33301 -57 -13s-35.167 -21.334 -49.5 -38.001s-25.833 -37 -34.5 -61s-13 -51.333 -13 -82v-244h-74v343c0 25.333 -0.5 52 -1.5 80s-2.16699 51.667 -3.5 71h63
c8.66699 0 13 -4.33301 13 -13c0.666992 -3.33301 1 -8.66602 1 -15.999v-23v-30h3c4.66699 7.33301 10.834 16.166 18.501 26.499s17.834 20.333 30.501 30s28.334 18 47.001 25s41 10.5 67 10.5c24.667 0 47.5 -3.83301 68.5 -11.5s39.333 -18.834 55 -33.501
s27.834 -32.834 36.501 -54.501s13 -46.5 13 -74.5v-403c0 -62 -13.333 -106.5 -40 -133.5s-67 -40.5 -121 -40.5c-18 0 -32.667 1.16699 -44 3.5s-19.666 4.83301 -24.999 7.5c0.666992 4.66699 1.16699 9.66699 1.5 15s0.833008 10.333 1.5 15
c0.666992 5.33301 1 10.666 1 15.999c0.666992 9.33301 4 14 10 14c4 0 10.167 -1.33301 18.5 -4s19.166 -4 32.499 -4c28.667 0 51 7 67 21s24 35.333 24 64v409z" />
    <glyph glyph-name="Omacron" unicode="&#x14c;" horiz-adv-x="755" 
d="M377 684c49.333 0 92.999 -8.50098 130.999 -25.501s70.167 -40.667 96.5 -71s46.333 -66.833 60 -109.5s20.5 -89.667 20.5 -141s-6.83301 -98.333 -20.5 -141s-33.5 -79.167 -59.5 -109.5s-58.167 -54 -96.5 -71s-82.166 -25.5 -131.499 -25.5
c-46 0 -87.833 7.83301 -125.5 23.5s-70 38.334 -97 68.001s-47.833 66 -62.5 109s-22 91.833 -22 146.5c0 54 7.16699 102.333 21.5 145s34.833 79 61.5 109s59 53 97 69s80.333 24 127 24zM151.999 336.999c0 -44 5.33203 -83.334 15.999 -118.001s25.667 -64 45 -88
s42.833 -42.333 70.5 -55s58.834 -19 93.501 -19c34 0 65 6.33301 93 19s51.833 31 71.5 55s34.834 53.333 45.501 88s16 74 16 118c0 45.333 -5.5 85.333 -16.5 120s-26.5 63.834 -46.5 87.501s-43.833 41.667 -71.5 54s-58.167 18.5 -91.5 18.5s-63.833 -6 -91.5 -18
s-51.334 -29.833 -71.001 -53.5s-35 -53 -46 -88s-16.5 -75.167 -16.5 -120.5zM490.998 786.998h-221v51h221v-51z" />
    <glyph glyph-name="omacron" unicode="&#x14d;" horiz-adv-x="580" 
d="M290 438c-49.333 0 -88.998 -16.166 -118.998 -48.499s-45 -79.833 -45 -142.5c0 -22 2.66699 -44.333 8 -67s14.166 -43 26.499 -61s29 -32.833 50 -44.5s47.5 -17.5 79.5 -17.5c51.333 0 91.5 16.667 120.5 50s43.5 80 43.5 140c0 27.333 -3.33301 52.666 -10 75.999
s-16.834 43.5 -30.501 60.5s-30.667 30.333 -51 40s-44.5 14.5 -72.5 14.5zM50.002 247.001c0 32 4.16699 63.332 12.5 93.999s22 58.167 41 82.5s43.833 43.833 74.5 58.5s68 22 112 22c40.667 0 76 -6.5 106 -19.5s55 -31 75 -54s34.833 -50.167 44.5 -81.5
s14.5 -65.333 14.5 -102c0 -34 -4.5 -66.667 -13.5 -98s-23.167 -58.666 -42.5 -81.999s-44.166 -42 -74.499 -56s-66.833 -21 -109.5 -21c-74.667 0 -133.334 22.333 -176.001 67s-64 108 -64 190zM401.002 645h-221v52h221v-52z" />
    <glyph glyph-name="Obreve" unicode="&#x14e;" horiz-adv-x="755" 
d="M377 684c49.333 0 92.999 -8.50098 130.999 -25.501s70.167 -40.667 96.5 -71s46.333 -66.833 60 -109.5s20.5 -89.667 20.5 -141s-6.83301 -98.333 -20.5 -141s-33.5 -79.167 -59.5 -109.5s-58.167 -54 -96.5 -71s-82.166 -25.5 -131.499 -25.5
c-46 0 -87.833 7.83301 -125.5 23.5s-70 38.334 -97 68.001s-47.833 66 -62.5 109s-22 91.833 -22 146.5c0 54 7.16699 102.333 21.5 145s34.833 79 61.5 109s59 53 97 69s80.333 24 127 24zM151.999 336.999c0 -44 5.33203 -83.334 15.999 -118.001s25.667 -64 45 -88
s42.833 -42.333 70.5 -55s58.834 -19 93.501 -19c34 0 65 6.33301 93 19s51.833 31 71.5 55s34.834 53.333 45.501 88s16 74 16 118c0 45.333 -5.5 85.333 -16.5 120s-26.5 63.834 -46.5 87.501s-43.833 41.667 -71.5 54s-58.167 18.5 -91.5 18.5s-63.833 -6 -91.5 -18
s-51.334 -29.833 -71.001 -53.5s-35 -53 -46 -88s-16.5 -75.167 -16.5 -120.5zM510.998 857.998c0 -10.667 -2.16797 -22.3281 -6.50098 -34.9951s-11.5 -24.334 -21.5 -35.001s-23.167 -19.5 -39.5 -26.5s-36.5 -10.5 -60.5 -10.5c-23.333 0 -43.166 3.5 -59.499 10.5
s-29.5 15.667 -39.5 26s-17.333 21.833 -22 34.5s-7 24.667 -7 36h54c0 -4.66699 1.16699 -10.334 3.5 -17.001s6.16602 -13.334 11.499 -20.001s12.833 -12.334 22.5 -17.001s21.834 -7 36.501 -7c14 0 25.667 2.16699 35 6.5s17 9.66602 23 15.999s10.167 13 12.5 20
s3.5 13.167 3.5 18.5h54z" />
    <glyph glyph-name="obreve" unicode="&#x14f;" horiz-adv-x="581" 
d="M290 438c-49.333 0 -88.998 -16.166 -118.998 -48.499s-45 -79.833 -45 -142.5c0 -22 2.66699 -44.333 8 -67s14.166 -43 26.499 -61s29 -32.833 50 -44.5s47.5 -17.5 79.5 -17.5c51.333 0 91.5 16.667 120.5 50s43.5 80 43.5 140c0 27.333 -3.33301 52.666 -10 75.999
s-16.834 43.5 -30.501 60.5s-30.667 30.333 -51 40s-44.5 14.5 -72.5 14.5zM50.002 247.001c0 32 4.16797 63.332 12.501 93.999s22 58.167 41 82.5s43.833 43.833 74.5 58.5s68 22 112 22c40.667 0 76 -6.5 106 -19.5s55 -31 75 -54s35 -50.167 45 -81.5
s15 -65.333 15 -102c0 -34 -4.5 -66.667 -13.5 -98s-23.333 -58.666 -43 -81.999s-44.667 -42 -75 -56s-66.833 -21 -109.5 -21c-74.667 0 -133.334 22.333 -176.001 67s-64 108 -64 190zM418.003 716c0 -10.667 -2.16602 -22.3291 -6.49902 -34.9961
s-11.5 -24.167 -21.5 -34.5s-23.167 -19 -39.5 -26s-36.5 -10.5 -60.5 -10.5c-23.333 0 -43 3.33301 -59 10s-29 15.334 -39 26.001s-17.333 22.167 -22 34.5s-7 24.166 -7 35.499h54c0 -4.66699 1.16699 -10.334 3.5 -17.001s6.16602 -13.334 11.499 -20.001
s12.666 -12.334 21.999 -17.001s21.333 -7 36 -7c14 0 25.833 2.16699 35.5 6.5s17.334 9.66602 23.001 15.999s9.66699 13 12 20s3.5 13.167 3.5 18.5h54z" />
    <glyph glyph-name="Ohungarumlaut" unicode="&#x150;" horiz-adv-x="755" 
d="M245 736l80 147h86l-120 -147h-46zM407 736l80 147h86l-120 -147h-46zM377 684c49.333 0 92.999 -8.49902 130.999 -25.499s70.167 -40.667 96.5 -71s46.333 -66.833 60 -109.5s20.5 -89.667 20.5 -141c0 -50.667 -6.83301 -97.334 -20.5 -140.001
s-33.5 -79.334 -59.5 -110.001s-58.167 -54.5 -96.5 -71.5s-82.166 -25.5 -131.499 -25.5c-46 0 -87.833 7.83301 -125.5 23.5s-70 38.334 -97 68.001s-47.833 66 -62.5 109s-22 91.833 -22 146.5c0 54 7.16699 102.5 21.5 145.5s34.833 79.333 61.5 109s59 52.5 97 68.5
s80.333 24 127 24zM151.999 337.001c0 -44 5.33203 -83.333 15.999 -118s25.667 -64 45 -88s42.833 -42.333 70.5 -55s58.834 -19 93.501 -19c34 0 65 6.33301 93 19s51.833 31 71.5 55s34.834 53.333 45.501 88s16 74 16 118c0 45.333 -5.5 85.333 -16.5 120
s-26.5 63.834 -46.5 87.501s-43.833 41.667 -71.5 54s-58.167 18.5 -91.5 18.5s-63.833 -6 -91.5 -18s-51.334 -29.833 -71.001 -53.5s-35 -52.834 -46 -87.501s-16.5 -75 -16.5 -121z" />
    <glyph glyph-name="ohungarumlaut" unicode="&#x151;" horiz-adv-x="580" 
d="M311 594l80 147h85l-119 -147h-46zM151 594l80 147h85l-119 -147h-46zM290 438c-50 0 -89.8301 -16.166 -119.497 -48.499s-44.5 -79.833 -44.5 -142.5c0 -22 2.66699 -44.333 8 -67s14.166 -43.167 26.499 -61.5s29 -33.333 50 -45s47.5 -17.5 79.5 -17.5
c51.333 0 91.5 16.667 120.5 50s43.5 80.333 43.5 141c0 27.333 -3.33301 52.666 -10 75.999s-16.834 43.5 -30.501 60.5s-30.834 30.333 -51.501 40s-44.667 14.5 -72 14.5zM50.0029 247.001c0 32 4.16699 63.332 12.5 93.999s22 58.167 41 82.5s43.667 43.833 74 58.5
s67.833 22 112.5 22c40.667 0 76 -6.5 106 -19.5s55 -31 75 -54s34.833 -50.167 44.5 -81.5s14.5 -65.333 14.5 -102c0 -34 -4.5 -66.667 -13.5 -98s-23.167 -58.666 -42.5 -81.999s-44.166 -42 -74.499 -56s-66.833 -21 -109.5 -21c-74.667 0 -133.334 22.333 -176.001 67
s-64 108 -64 190z" />
    <glyph glyph-name="OE" unicode="&#x152;" horiz-adv-x="1004" 
d="M944 64l0.000976562 -64.001h-341v84c-26 -30 -57.833 -53.167 -95.5 -69.5s-80.834 -24.5 -129.501 -24.5c-46 0 -88 7.83301 -126 23.5s-70.5 38.334 -97.5 68.001s-47.833 66 -62.5 109s-22 91.833 -22 146.5c0 54 7.16699 102.333 21.5 145s35 79 62 109
s59.5 53 97.5 69s80.333 24 127 24c48 0 91 -8.33301 129 -25s70 -40 96 -70v85h339v-62h-262v-234h249v-62h-249v-252h264zM378.001 56.999c34 0 64.998 6.33203 92.998 18.999s51.667 31 71 55s34.333 53.333 45 88s16 74 16 118c0 45.333 -5.5 85.333 -16.5 120
s-26.333 63.834 -46 87.501s-43.334 41.667 -71.001 54s-58.167 18.5 -91.5 18.5s-63.833 -6 -91.5 -18s-51.5 -29.833 -71.5 -53.5s-35.5 -53 -46.5 -88s-16.5 -75.167 -16.5 -120.5c0 -44 5.33301 -83.333 16 -118s25.834 -64 45.501 -88s43.334 -42.333 71.001 -55
s58.834 -19 93.501 -19z" />
    <glyph glyph-name="oe" unicode="&#x153;" horiz-adv-x="939" 
d="M813 280l-0.000976562 14.999c0 14 -2 29.333 -6 46s-11 32.167 -21 46.5s-23.667 26.333 -41 36s-39.666 14.5 -66.999 14.5c-28.667 0 -52.5 -5.66699 -71.5 -17s-34.167 -25.166 -45.5 -41.499s-19.333 -33.5 -24 -51.5s-7 -34 -7 -48h283zM125.999 246.999
c0 -22 2.66895 -44.332 8.00195 -66.999s14.166 -43 26.499 -61s29 -32.833 50 -44.5s47.5 -17.5 79.5 -17.5c51.333 0 91.5 16.5 120.5 49.5s43.5 79.833 43.5 140.5c0 27.333 -3.33301 52.666 -10 75.999s-16.834 43.5 -30.501 60.5s-30.667 30.333 -51 40
s-44.5 14.5 -72.5 14.5c-49.333 0 -89 -16.167 -119 -48.5s-45 -79.833 -45 -142.5zM530.001 220c0.666992 -18 4.50488 -36.6699 11.5049 -56.0029s17.833 -37 32.5 -53s33.667 -29 57 -39s51.333 -15 84 -15c30 0 55.333 3.33301 76 10s33.667 11.334 39 14.001
c3.33301 2 6.66602 3.83301 9.99902 5.5s6.33301 2.5 9 2.5c5.33301 0 8.33301 -3.66699 9 -11s1.16699 -16.666 1.5 -27.999s0.5 -22.666 0.5 -33.999l-22 -6.5c-10 -3 -21.833 -6 -35.5 -9s-28.667 -5.5 -45 -7.5s-33.166 -3 -50.499 -3
c-52.667 0 -96.834 8.83301 -132.501 26.5s-63.167 42.834 -82.5 75.501c-18.667 -30.667 -44.5 -55.334 -77.5 -74.001s-74.5 -28 -124.5 -28c-74.667 0 -133.334 22.333 -176.001 67s-64 108 -64 190c0 32 4.16699 63.333 12.5 94s22 58.167 41 82.5
s43.833 43.833 74.5 58.5s68 22 112 22c48.667 0 89.667 -9 123 -27s59.666 -43 78.999 -75c19.333 32 44.666 57 75.999 75s68.666 27 111.999 27c39.333 0 72.333 -6.66699 99 -20s48.167 -30.333 64.5 -51s28 -43.5 35 -68.5s10.5 -49.167 10.5 -72.5
c0 -20 -0.5 -36.5 -1.5 -49.5s-1.83301 -20.5 -2.5 -22.5h-355z" />
    <glyph glyph-name="Racute" unicode="&#x154;" horiz-adv-x="598" 
d="M267 736l80 147h86l-120 -147h-46zM186 340c2 0 6.66602 -0.169922 13.999 -0.50293s15.5 -0.666016 24.5 -0.999023l28 -1c9.66699 -0.333008 17.834 -0.5 24.501 -0.5c62 0 107.167 13 135.5 39s42.5 60.333 42.5 103s-14.667 76.167 -44 100.5s-74 36.5 -134 36.5
c-8 0 -17 -0.166992 -27 -0.5s-19.5 -0.666016 -28.5 -0.999023s-16.833 -0.666016 -23.5 -0.999023s-10.667 -0.5 -12 -0.5v-273v0zM319.999 279.997h-133.998v-280h-76v674h184c77.333 0 136.666 -17.667 177.999 -53s62 -83.333 62 -144
c0 -35.333 -6.16699 -64.5 -18.5 -87.5s-26.333 -41.167 -42 -54.5s-30.834 -23 -45.501 -29s-24.667 -9.66699 -30 -11l160 -295h-84z" />
    <glyph glyph-name="racute" unicode="&#x155;" horiz-adv-x="371" 
d="M149 594l80 147h85l-119 -147h-46zM137 494c6.66699 0 10.4971 -1.33301 11.4971 -4s1.83301 -5.66699 2.5 -9v-13c0 -6 0.166992 -12.167 0.5 -18.5s0.5 -12.5 0.5 -18.5v-13h3c2.66699 5.33301 7.33398 12.833 14.001 22.5s15.834 19.167 27.501 28.5
s26.5 17.5 44.5 24.5s40 10.5 66 10.5c17.333 0 32 -1.66699 44 -5s18.667 -5.33301 20 -6c0 -9.33301 -0.166992 -18.833 -0.5 -28.5s-0.833008 -18.167 -1.5 -25.5c0 -6.66699 -2.66699 -10 -8 -10c-7.33301 0 -16 1.5 -26 4.5s-24.333 4.5 -43 4.5
c-42 0 -74.5 -16.5 -97.5 -49.5s-34.5 -80.833 -34.5 -143.5v-245h-74v355c0 25.333 -0.666992 51 -2 77s-2.66602 46.667 -3.99902 62h57z" />
    <glyph glyph-name="uni0156" unicode="&#x156;" horiz-adv-x="598" 
d="M291 -69l77.998 -0.000976562v-78c0 -12 -2.5 -23.167 -7.5 -33.5s-11.167 -19.833 -18.5 -28.5s-15.166 -16.167 -23.499 -22.5s-16.166 -11.166 -23.499 -14.499l-13 18c11.333 7.33301 21.833 17.833 31.5 31.5s14.5 30.167 14.5 49.5h-38v78zM185.998 339.999
c2 0 6.66602 -0.169922 13.999 -0.50293s15.5 -0.666016 24.5 -0.999023l28 -1c9.66699 -0.333008 17.834 -0.5 24.501 -0.5c62 0 107.167 13 135.5 39s42.5 60.333 42.5 103s-14.667 76.167 -44 100.5s-74 36.5 -134 36.5c-8 0 -17 -0.166992 -27 -0.5
s-19.5 -0.666016 -28.5 -0.999023s-16.833 -0.666016 -23.5 -0.999023s-10.667 -0.5 -12 -0.5v-273v0zM319.997 279.996h-133.998v-280h-76v674h184c77.333 0 136.666 -17.667 177.999 -53s62 -83.333 62 -144c0 -35.333 -6.16699 -64.5 -18.5 -87.5
s-26.333 -41.167 -42 -54.5s-30.834 -23 -45.501 -29s-24.667 -9.66699 -30 -11l160 -295h-84z" />
    <glyph glyph-name="uni0157" unicode="&#x157;" horiz-adv-x="371" 
d="M130 494c6.66699 0 10.4971 -1.33301 11.4971 -4s1.83301 -5.66699 2.5 -9v-13c0 -6 0.166992 -12.167 0.5 -18.5s0.5 -12.5 0.5 -18.5v-13h3c2.66699 5.33301 7.33398 12.833 14.001 22.5s15.834 19.167 27.501 28.5s26.5 17.5 44.5 24.5s40 10.5 66 10.5
c17.333 0 32 -1.66699 44 -5s18.667 -5.33301 20 -6c0 -9.33301 -0.166992 -18.833 -0.5 -28.5s-0.833008 -18.167 -1.5 -25.5c0 -6.66699 -2.66699 -10 -8 -10c-7.33301 0 -16 1.5 -26 4.5s-24.333 4.5 -43 4.5c-42 0 -74.5 -16.5 -97.5 -49.5s-34.5 -80.833 -34.5 -143.5
v-245h-74v355c0 25.333 -0.666992 51 -2 77s-2.66602 46.667 -3.99902 62h57zM77.9971 -69l77.998 -0.000976562v-78c0 -12 -2.5 -23.167 -7.5 -33.5s-11.167 -19.833 -18.5 -28.5s-15.166 -16.167 -23.499 -22.5s-16.166 -11.166 -23.499 -14.499l-13 18
c11.333 7.33301 21.833 17.833 31.5 31.5s14.5 30.167 14.5 49.5h-38v78z" />
    <glyph glyph-name="Rcaron" unicode="&#x158;" horiz-adv-x="598" 
d="M441 883l-89 -147h-77l-89 147h45l83 -95l82 95h45zM186 340c2 0 6.66602 -0.169922 13.999 -0.50293s15.5 -0.666016 24.5 -0.999023l28 -1c9.66699 -0.333008 17.834 -0.5 24.501 -0.5c62 0 107.167 13 135.5 39s42.5 60.333 42.5 103s-14.667 76.167 -44 100.5
s-74 36.5 -134 36.5c-8 0 -17 -0.166992 -27 -0.5s-19.5 -0.666016 -28.5 -0.999023s-16.833 -0.666016 -23.5 -0.999023s-10.667 -0.5 -12 -0.5v-273v0zM319.999 279.997h-133.998v-280h-76v674h184c77.333 0 136.666 -17.667 177.999 -53s62 -83.333 62 -144
c0 -35.333 -6.16699 -64.5 -18.5 -87.5s-26.333 -41.167 -42 -54.5s-30.834 -23 -45.501 -29s-24.667 -9.66699 -30 -11l160 -295h-84z" />
    <glyph glyph-name="rcaron" unicode="&#x159;" horiz-adv-x="371" 
d="M80 494h56.9971c6.66699 0 10.5 -1.33301 11.5 -4s1.83301 -5.66699 2.5 -9v-13c0 -6 0.166992 -12.167 0.5 -18.5s0.5 -12.5 0.5 -18.5v-13h3c2.66699 5.33301 7.33398 12.833 14.001 22.5s15.834 19.167 27.501 28.5s26.5 17.5 44.5 24.5s40 10.5 66 10.5
c17.333 0 32 -1.66699 44 -5s18.667 -5.33301 20 -6c0 -9.33301 -0.166992 -18.833 -0.5 -28.5s-0.833008 -18.167 -1.5 -25.5c0 -6.66699 -2.66699 -10 -8 -10c-7.33301 0 -16 1.5 -26 4.5s-24.333 4.5 -43 4.5c-42 0 -74.5 -16.5 -97.5 -49.5s-34.5 -80.833 -34.5 -143.5
v-245h-74v355c0 25.333 -0.666992 51 -2 77s-2.66602 46.667 -3.99902 62zM132.997 741l82 -94l83 94h45l-89 -147h-78l-89 147h46z" />
    <glyph glyph-name="Sacute" unicode="&#x15a;" horiz-adv-x="512" 
d="M258 736l80 147h86l-120 -147h-46zM417 599c-8 3.33301 -23.334 7.16504 -46.001 11.498s-47.667 6.5 -75 6.5c-46.667 0 -84.5 -8.83301 -113.5 -26.5s-43.5 -45.5 -43.5 -83.5c0 -28 8.66699 -50.5 26 -67.5s37.666 -30.167 60.999 -39.5l68 -28
c18.667 -8 37.334 -17.333 56.001 -28s35.5 -23.5 50.5 -38.5s27.333 -32.667 37 -53s14.5 -43.5 14.5 -69.5c0 -26.667 -5 -51.667 -15 -75s-25 -43.666 -45 -60.999s-44.833 -31.166 -74.5 -41.499s-64.167 -15.5 -103.5 -15.5c-14.667 0 -29.334 0.5 -44.001 1.5
s-28.667 2.33301 -42 4s-25.166 3.33398 -35.499 5.00098s-18.5 3.5 -24.5 5.5l4 74c9.33301 -3.33301 25.833 -8 49.5 -14s51.834 -9 84.501 -9c54 0 95.333 11 124 33s43 51.667 43 89c0 17.333 -3.33301 32.333 -10 45s-15.5 24 -26.5 34s-23.333 18.667 -37 26
s-27.834 14 -42.501 20l-63 26c-18.667 8 -36.167 17 -52.5 27s-30.5 22 -42.5 36s-21.5 30.167 -28.5 48.5s-10.5 39.166 -10.5 62.499c0 26 4.83301 50 14.5 72s24.334 41.167 44.001 57.5s44.667 29 75 38s65.833 13.5 106.5 13.5c27.333 0 52.833 -2.16699 76.5 -6.5
l46.5 -8.5z" />
    <glyph glyph-name="sacute" unicode="&#x15b;" horiz-adv-x="393" 
d="M219 504c31.333 0 56.3291 -1.50488 74.9961 -4.50488s30.334 -5.16699 35.001 -6.5c0 -8 -0.166992 -15.833 -0.5 -23.5s-0.833008 -17.5 -1.5 -29.5c-0.666992 -8 -2 -13.5 -4 -16.5s-4.66699 -4.5 -8 -4.5s-7.33301 1 -12 3s-10.667 4.16699 -18 6.5
s-16.833 4.5 -28.5 6.5s-26.167 3 -43.5 3c-29.333 0 -53 -6.5 -71 -19.5s-27 -29.5 -27 -49.5c0 -19.333 6 -34.666 18 -45.999s31.667 -21.666 59 -30.999l48 -17c14 -4.66699 27.833 -11.167 41.5 -19.5s25.834 -18.166 36.501 -29.499s19.167 -24.166 25.5 -38.499
s9.5 -30.166 9.5 -47.499c0 -28.667 -5.33301 -52.5 -16 -71.5s-25.167 -34.333 -43.5 -46s-39.5 -20 -63.5 -25s-49.333 -7.5 -76 -7.5c-34.667 0 -60 1.5 -76 4.5s-26.667 5.16699 -32 6.5c0 8 0.333008 17.333 1 28s1.33398 20 2.00098 28c0 9.33301 4 14 12 14
c6 0 17 -2.33301 33 -7s40 -7 72 -7c32.667 0 59.5 6.16699 80.5 18.5s31.5 31.166 31.5 56.499c0 18.667 -7 34.167 -21 46.5s-35 23.5 -63 33.5l-34 13c-13.333 4.66699 -27.166 10.334 -41.499 17.001s-27.333 15.334 -39 26.001s-21.167 23.667 -28.5 39
s-11 33.666 -11 54.999c0 23.333 4.83301 43.833 14.5 61.5s22.667 32.5 39 44.5s35.333 21 57 27s44.5 9 68.5 9zM179.996 593.995l80 147h85l-119 -147h-46z" />
    <glyph glyph-name="Scircumflex" unicode="&#x15c;" horiz-adv-x="512" 
d="M417 599c-8 3.33301 -23.334 7.16504 -46.001 11.498s-47.667 6.5 -75 6.5c-46.667 0 -84.5 -8.83301 -113.5 -26.5s-43.5 -45.5 -43.5 -83.5c0 -28 8.66699 -50.5 26 -67.5s37.666 -30.167 60.999 -39.5l68 -28c18.667 -8 37.334 -17.333 56.001 -28
s35.5 -23.5 50.5 -38.5s27.333 -32.667 37 -53s14.5 -43.5 14.5 -69.5c0 -26.667 -5 -51.667 -15 -75s-25 -43.666 -45 -60.999s-44.833 -31.166 -74.5 -41.499s-64.167 -15.5 -103.5 -15.5c-14.667 0 -29.334 0.5 -44.001 1.5s-28.667 2.33301 -42 4
s-25.166 3.33398 -35.499 5.00098s-18.5 3.5 -24.5 5.5l4 74c9.33301 -3.33301 25.833 -8 49.5 -14s51.834 -9 84.501 -9c54 0 95.333 11 124 33s43 51.667 43 89c0 17.333 -3.33301 32.333 -10 45s-15.5 24 -26.5 34s-23.333 18.667 -37 26s-27.834 14 -42.501 20l-63 26
c-18.667 8 -36.167 17 -52.5 27s-30.5 22 -42.5 36s-21.5 30.167 -28.5 48.5s-10.5 39.166 -10.5 62.499c0 26 4.83301 50 14.5 72s24.334 41.167 44.001 57.5s44.667 29 75 38s65.833 13.5 106.5 13.5c27.333 0 52.833 -2.16699 76.5 -6.5l46.5 -8.5zM168.999 735.999
l89 147h78l89 -147h-45l-83 94l-82 -94h-46z" />
    <glyph glyph-name="scircumflex" unicode="&#x15d;" horiz-adv-x="393" 
d="M219 504c31.333 0 56.3291 -1.50488 74.9961 -4.50488s30.334 -5.16699 35.001 -6.5c0 -8 -0.166992 -15.833 -0.5 -23.5s-0.833008 -17.5 -1.5 -29.5c-0.666992 -8 -2 -13.5 -4 -16.5s-4.66699 -4.5 -8 -4.5s-7.33301 1 -12 3s-10.667 4.16699 -18 6.5
s-16.833 4.5 -28.5 6.5s-26.167 3 -43.5 3c-29.333 0 -53 -6.5 -71 -19.5s-27 -29.5 -27 -49.5c0 -19.333 6 -34.666 18 -45.999s31.667 -21.666 59 -30.999l48 -17c14 -4.66699 27.833 -11.167 41.5 -19.5s25.834 -18.166 36.501 -29.499s19.167 -24.166 25.5 -38.499
s9.5 -30.166 9.5 -47.499c0 -28.667 -5.33301 -52.5 -16 -71.5s-25.167 -34.333 -43.5 -46s-39.5 -20 -63.5 -25s-49.333 -7.5 -76 -7.5c-34.667 0 -60 1.5 -76 4.5s-26.667 5.16699 -32 6.5c0 8 0.333008 17.333 1 28s1.33398 20 2.00098 28c0 9.33301 4 14 12 14
c6 0 17 -2.33301 33 -7s40 -7 72 -7c32.667 0 59.5 6.16699 80.5 18.5s31.5 31.166 31.5 56.499c0 18.667 -7 34.167 -21 46.5s-35 23.5 -63 33.5l-34 13c-13.333 4.66699 -27.166 10.334 -41.499 17.001s-27.333 15.334 -39 26.001s-21.167 23.667 -28.5 39
s-11 33.666 -11 54.999c0 23.333 4.83301 43.833 14.5 61.5s22.667 32.5 39 44.5s35.333 21 57 27s44.5 9 68.5 9zM85.9961 593.995l89 147h78l89 -147h-45l-83 94l-82 -94h-46z" />
    <glyph glyph-name="Scedilla" unicode="&#x15e;" horiz-adv-x="511" 
d="M451 183c0 -24.667 -4.33203 -48.002 -12.999 -70.002s-21.834 -41.667 -39.501 -59s-39.5 -31.5 -65.5 -42.5s-56 -17.833 -90 -20.5l-19 -41c2.66699 0.666992 5.66699 1.33398 9 2.00098s8.66602 1 15.999 1c23.333 0 41 -7.33301 53 -22s18 -31.667 18 -51
c0 -16 -3.83301 -31.333 -11.5 -46s-17.834 -27.667 -30.501 -39s-27.167 -20.666 -43.5 -27.999s-33.166 -12 -50.499 -14l-23 29c10 2 21 5.33301 33 10s23 10.5 33 17.5s18.5 15.333 25.5 25s10.5 20.5 10.5 32.5s-3.83301 23.167 -11.5 33.5s-22.167 15.5 -43.5 15.5
h-35l21 75c-26 0.666992 -51 2.5 -75 5.5s-41 6.16699 -51 9.5l4 74c9.33301 -3.33301 25.833 -8 49.5 -14s51.834 -9 84.501 -9c54 0 95.333 11 124 33s43 51.667 43 89c0 17.333 -3.33301 32.333 -10 45s-15.5 23.834 -26.5 33.501s-23.5 18.167 -37.5 25.5s-28 14 -42 20
l-64 27c-18 7.33301 -35.167 16.166 -51.5 26.499s-30.5 22.5 -42.5 36.5s-21.5 30.167 -28.5 48.5s-10.5 39.166 -10.5 62.499c0 26 4.83301 50 14.5 72s24.334 41 44.001 57s44.667 28.5 75 37.5s65.833 13.5 106.5 13.5c27.333 0 52.833 -2 76.5 -6
s39.167 -6.66699 46.5 -8l-6 -71c-8 2.66699 -23.333 6.33398 -46 11.001s-47.667 7 -75 7c-46.667 0 -84.5 -8.83301 -113.5 -26.5s-43.5 -45.5 -43.5 -83.5c0 -28 8.66699 -50.5 26 -67.5s37.666 -30.167 60.999 -39.5l67 -28c18.667 -8 37.5 -17.333 56.5 -28
s36 -23.5 51 -38.5s27.167 -32.667 36.5 -53s14 -43.5 14 -69.5z" />
    <glyph glyph-name="scedilla" unicode="&#x15f;" horiz-adv-x="393" 
d="M353 140c0 -26.667 -4.66699 -49.166 -14 -67.499s-21.833 -33.333 -37.5 -45s-34 -20.5 -55 -26.5s-43.5 -9.66699 -67.5 -11l-19 -42c2.66699 1.33301 5.66699 2.33301 9 3s8.66602 1 15.999 1c23.333 0 41 -7.33301 53 -22s18 -31.667 18 -51
c0 -16 -3.83301 -31.333 -11.5 -46s-17.834 -27.667 -30.501 -39s-27.167 -20.666 -43.5 -27.999s-33.166 -12 -50.499 -14l-24 28c10 2 21 5.33301 33 10s23.167 10.667 33.5 18s19 15.833 26 25.5s10.5 20.5 10.5 32.5s-3.83301 23 -11.5 33s-22.167 15 -43.5 15h-35
l22 76c-26.667 0.666992 -46.334 2.16699 -59.001 4.5s-21.334 4.16602 -26.001 5.49902c0 8 0.333008 17.5 1 28.5s1.33398 20.5 2.00098 28.5c0 8.66699 4 13 12 13c6 0 17 -2.33301 33 -7s40 -7 72 -7c32.667 0 59.5 6.16699 80.5 18.5s31.5 31.166 31.5 56.499
c0 19.333 -7 35.166 -21 47.499s-35 23.5 -63 33.5l-35 12c-13.333 4.66699 -27 10.5 -41 17.5s-26.833 15.833 -38.5 26.5s-21.167 23.5 -28.5 38.5s-11 33.167 -11 54.5c0 24 4.83301 44.833 14.5 62.5s22.667 32.5 39 44.5s35.333 21 57 27s44.5 9 68.5 9
c31.333 0 56.333 -1.66699 75 -5s30.334 -5.66602 35.001 -6.99902c0 -7.33301 -0.166992 -15 -0.5 -23s-0.833008 -18 -1.5 -30c-0.666992 -8 -2 -13.333 -4 -16s-4.66699 -4 -8 -4s-7.33301 1 -12 3s-10.667 4 -18 6s-16.833 4 -28.5 6s-26.167 3 -43.5 3
c-29.333 0 -53 -6.5 -71 -19.5s-27 -29.5 -27 -49.5c0 -18.667 6 -33.834 18 -45.501s31.667 -22.167 59 -31.5l48 -17c14 -4.66699 27.833 -11.167 41.5 -19.5s25.834 -18 36.501 -29s19.167 -23.667 25.5 -38s9.5 -30.166 9.5 -47.499z" />
    <glyph glyph-name="Scaron" unicode="&#x160;" horiz-adv-x="512" 
d="M417 599c-8 2.66699 -23.334 6.33203 -46.001 10.999s-47.667 7 -75 7c-46.667 0 -84.5 -8.83301 -113.5 -26.5s-43.5 -45.5 -43.5 -83.5c0 -28 8.66699 -50.5 26 -67.5s37.666 -30.5 60.999 -40.5l68 -28c18.667 -8 37.334 -17.333 56.001 -28s35.5 -23.5 50.5 -38.5
s27.333 -32.5 37 -52.5s14.5 -43 14.5 -69c0 -26.667 -5.16699 -51.667 -15.5 -75s-25.5 -43.666 -45.5 -60.999s-44.833 -31.166 -74.5 -41.499s-64.167 -15.5 -103.5 -15.5c-14 0 -28.5 0.5 -43.5 1.5s-29 2.16699 -42 3.5s-24.667 3 -35 5s-18.5 4 -24.5 6l4 74
c9.33301 -3.33301 25.833 -8 49.5 -14s51.834 -9 84.501 -9c54 0 95.333 10.833 124 32.5s43 51.167 43 88.5c0 17.333 -3.33301 32.333 -10 45s-15.5 24 -26.5 34s-23.333 18.667 -37 26s-27.834 14 -42.501 20l-63 26c-18.667 8 -36.167 17.167 -52.5 27.5
s-30.5 22.5 -42.5 36.5s-21.5 30.167 -28.5 48.5s-10.5 39.166 -10.5 62.499c0 26 4.83301 50 14.5 72s24.334 41 44.001 57s44.667 28.5 75 37.5s65.833 13.5 106.5 13.5c27.333 0 52.833 -2 76.5 -6s39.167 -7 46.5 -9zM407.999 882.998l-89 -147h-78l-89 147h45l83 -95
l82 95h46z" />
    <glyph glyph-name="scaron" unicode="&#x161;" horiz-adv-x="393" 
d="M219 504c31.333 0 56.3301 -1.49902 74.9971 -4.49902s30.334 -5.16699 35.001 -6.5c0 -7.33301 -0.166992 -15 -0.5 -23s-0.833008 -18 -1.5 -30c-0.666992 -8 -2 -13.333 -4 -16s-4.66699 -4 -8 -4s-7.33301 1 -12 3s-10.667 4 -18 6s-16.833 4 -28.5 6
s-26.167 3 -43.5 3c-29.333 0 -53 -6.5 -71 -19.5s-27 -29.5 -27 -49.5c0 -18.667 6 -33.834 18 -45.501s31.667 -22.167 59 -31.5l48 -17c14 -4.66699 27.833 -11.167 41.5 -19.5s25.834 -18 36.501 -29s19.167 -23.667 25.5 -38s9.5 -30.166 9.5 -47.499
c0 -28.667 -5.33301 -52.667 -16 -72s-25.167 -34.833 -43.5 -46.5s-39.5 -20 -63.5 -25s-49.333 -7.5 -76 -7.5c-34.667 0 -60 1.5 -76 4.5s-26.667 5.16699 -32 6.5c0 8 0.333008 17.5 1 28.5s1.33398 20.5 2.00098 28.5c0 8.66699 4 13 12 13c6 0 17 -2.33301 33 -7
s40 -7 72 -7c32.667 0 59.5 6.16699 80.5 18.5s31.5 31.166 31.5 56.499c0 18.667 -7 34.334 -21 47.001s-35 24 -63 34l-35 12c-13.333 4.66699 -27 10.5 -41 17.5s-26.833 15.667 -38.5 26s-21.167 23.166 -28.5 38.499s-11 33.666 -11 54.999
c0 24 4.83301 44.833 14.5 62.5s22.667 32.334 39 44.001s35.333 20.5 57 26.5s44.5 9 68.5 9zM339.997 740.001l-89 -146h-78l-89 146h46l82 -94l82 94h46z" />
    <glyph glyph-name="uni0162" unicode="&#x162;" horiz-adv-x="482" 
d="M202 -69l77.998 -0.000976562v-78c0 -12 -2.5 -23.167 -7.5 -33.5s-11.167 -19.833 -18.5 -28.5s-15.166 -16.167 -23.499 -22.5s-16.166 -11.166 -23.499 -14.499l-13 18c11.333 7.33301 21.833 17.833 31.5 31.5s14.5 30.167 14.5 49.5h-38v78zM481.998 611.999h-204
v-612h-76v612h-202v62h482v-62z" />
    <glyph glyph-name="uni0163" unicode="&#x163;" horiz-adv-x="341" 
d="M253 -10c-53.333 0 -91.999 14.001 -115.999 42.001s-36 67.667 -36 119v280h-91v63h91v109h74v-109h150v-63h-150v-280c0 -35.333 6.66699 -60 20 -74s33.333 -21 60 -21c15.333 0 28.666 1.5 39.999 4.5s18.666 4.5 21.999 4.5c6.66699 0 10 -4.66699 10 -14
c0 -6 0.333008 -12 1 -18c0.666992 -5.33301 1.16699 -10.833 1.5 -16.5s0.833008 -10.834 1.5 -15.501c-5.33301 -2 -14.666 -4.33301 -27.999 -7s-30 -4 -50 -4zM197.001 -68.999l77.998 -0.000976562v-78c0 -12 -2.5 -23.167 -7.5 -33.5s-11.167 -19.833 -18.5 -28.5
s-15.166 -16.167 -23.499 -22.5s-16.166 -11.166 -23.499 -14.499l-13 18c11.333 7.33301 21.833 17.833 31.5 31.5s14.5 30.167 14.5 49.5h-38v78z" />
    <glyph glyph-name="Tcaron" unicode="&#x164;" horiz-adv-x="482" 
d="M372 883l-89 -147h-77l-89 147h45l83 -95l82 95h45zM482 612h-204v-612h-76v612h-202v62h482v-62z" />
    <glyph glyph-name="tcaron" unicode="&#x165;" horiz-adv-x="416" 
d="M253 -10c-53.333 0 -91.999 14.001 -115.999 42.001s-36 67.667 -36 119v280h-91v63h91v109h74v-109h150v-63h-150v-280c0 -35.333 6.66699 -60 20 -74s33.333 -21 60 -21c15.333 0 28.666 1.5 39.999 4.5s18.666 4.5 21.999 4.5c6.66699 0 10 -4.66699 10 -14
c0 -6 0.333008 -12 1 -18c0.666992 -5.33301 1.16699 -10.833 1.5 -16.5s0.833008 -10.834 1.5 -15.501c-5.33301 -2 -14.666 -4.33301 -27.999 -7s-30 -4 -50 -4zM368.001 674.001l77.998 -0.000976562v-78c0 -12 -2.5 -23.167 -7.5 -33.5s-11.167 -19.833 -18.5 -28.5
s-15.166 -16.167 -23.499 -22.5s-16.166 -11.166 -23.499 -14.499l-13 18c11.333 7.33301 21.833 17.833 31.5 31.5s14.5 30.167 14.5 49.5h-38v78z" />
    <glyph glyph-name="Tbar" unicode="&#x166;" horiz-adv-x="480" 
d="M279 0h-77v316h-202v62h202v234h-202v62h480v-62h-201v-234h201v-62h-201v-316z" />
    <glyph glyph-name="tbar" unicode="&#x167;" horiz-adv-x="342" 
d="M328 51c0 -6 0.333984 -11.999 1.00098 -17.999c0.666992 -5.33301 1.16699 -10.833 1.5 -16.5s0.833008 -10.834 1.5 -15.501c-5.33301 -2 -14.666 -4.33301 -27.999 -7s-30 -4 -50 -4c-53.333 0 -92 14 -116 42s-36 67.667 -36 119v128h-91v63h91v90h-92v62h92v109h74
v-109h150v-62h-150v-90h151v-63h-151v-127c0 -36 6.66699 -60.833 20 -74.5s33.333 -20.5 60 -20.5c15.333 0 28.666 1.33301 39.999 4s18.666 4 21.999 4c6 0 9.33301 -4.66699 10 -14z" />
    <glyph glyph-name="Utilde" unicode="&#x168;" horiz-adv-x="735" 
d="M369 -10c-48 0 -88.5 7.16992 -121.5 21.5029s-59.667 34 -80 59s-35 54.167 -44 87.5s-13.5 68.666 -13.5 105.999v410h77v-410c0 -68 14.333 -119.5 43 -154.5s75 -52.5 139 -52.5c34 0 62.333 5.16699 85 15.5s41 24.666 55 42.999s24 40.166 30 65.499s9 53 9 83v410
h77v-410c0 -39.333 -4.66699 -75.666 -14 -108.999s-24.333 -62.333 -45 -87s-47.167 -43.834 -79.5 -57.501s-71.5 -20.5 -117.5 -20.5zM202 805.003c2 2.66699 6.00098 6.83496 12.001 12.502s13.5 11.5 22.5 17.5s19.333 11.167 31 15.5s24.167 6.5 37.5 6.5
c15.333 0 28.5 -2 39.5 -6s21.5 -8.16699 31.5 -12.5s20.167 -8.5 30.5 -12.5s22.5 -6 36.5 -6c7.33301 0 14.166 1.16699 20.499 3.5s12.166 5.16602 17.499 8.49902s9.83301 6.66602 13.5 9.99902s6.5 6 8.5 8l27 -30c-4 -4.66699 -9.33301 -10 -16 -16
s-14.334 -11.833 -23.001 -17.5s-18.5 -10.334 -29.5 -14.001s-22.5 -5.5 -34.5 -5.5c-16 0 -29.5 2 -40.5 6s-21.333 8.16699 -31 12.5s-19.667 8.5 -30 12.5s-22.833 6 -37.5 6c-13.333 0 -25.166 -3.66699 -35.499 -11s-18.166 -13.666 -23.499 -18.999l-27 31v0z" />
    </font>
</defs>
</svg>
