<?xml version="1.0" encoding="utf-8"?>
<!-- Generator: Adobe Illustrator 17.1.0, SVG Export Plug-In . SVG Version: 6.00 Build 0)  -->
<!DOCTYPE svg PUBLIC "-//W3C//DTD SVG 1.1//EN" "http://www.w3.org/Graphics/SVG/1.1/DTD/svg11.dtd">
<svg version="1.1" id="Layer_1" xmlns="http://www.w3.org/2000/svg" xmlns:xlink="http://www.w3.org/1999/xlink" x="0px" y="0px"
	 viewBox="0 0 100 100" enable-background="new 0 0 100 100" xml:space="preserve">
<g>
	<path fill="#FFFFFF" d="M49.4,14h-8.6v42.2h-2v-7.7h-9.7V14h-8.6v84.5h8.2V82.2c0-2.9-0.5-6.2-0.5-6.2h0.1l6.7,22.5h7.6V56.3h4.1
		v42.2h8.5V56.3h-6.1V14z M34.9,79.3l-6.7-23.1h6.3V73c0,2.9,0.5,6.3,0.5,6.3L34.9,79.3L34.9,79.3z"/>
	<polygon fill="#FFFFFF" points="69.2,21.7 76.1,21.7 76.1,14 53.7,14 53.7,21.7 60.6,21.7 60.6,56.3 57.1,56.3 57.1,63.9 
		63.5,63.9 63.5,98.5 72.1,98.5 72.1,63.9 78.5,63.9 78.5,56.3 69.2,56.3 	"/>
	<polygon fill="#FFFFFF" points="99.8,21.7 99.8,14 80.4,14 80.4,56.3 80.4,98.5 99.8,98.5 99.8,89.8 88.9,89.8 88.9,79.8 
		98.8,79.8 98.8,72.3 88.9,72.3 88.9,63.9 99.8,63.9 99.8,53.1 88.9,53.1 88.9,40.8 98.8,40.8 98.8,33.3 88.9,33.3 88.9,21.7 	"/>
	<path fill="#ED1C29" d="M11.6,93.8H7.9c-1.9,0-3-1.4-3-3.4v-8.1c0-1.8,1-3.3,3-3.3c2.1,0,3,1.6,3,3.3v10.3h0.8
		c1.5,0,2.6-1.1,2.6-2.5v-8.3c0-3.6-2.4-6.7-6.4-6.7c-4,0-6.4,3.2-6.4,6.7v8.7c0,3.7,2.3,6.7,6.4,6.7h2.9v1.2H7.9
		c-4.8,0-7.7-3.4-7.7-8v-8.6c0-4.7,3-8,7.7-8c4.7,0,7.7,3.3,7.7,8V90C15.7,92.5,14.1,93.8,11.6,93.8 M9.6,82.3
		c0-1.2-0.6-2.3-1.7-2.3c-1.2,0-1.7,1-1.7,2.3v8c0,1.5,0.5,2.3,1.7,2.3h1.7L9.6,82.3L9.6,82.3z"/>
	<rect x="40.8" y="1.6" fill="#ED1C29" width="8.6" height="8.6"/>
</g>
</svg>
