<?xml version="1.0" encoding="utf-8"?>
<!-- Generator: Adobe Illustrator 17.1.0, SVG Export Plug-In . SVG Version: 6.00 Build 0)  -->
<!DOCTYPE svg PUBLIC "-//W3C//DTD SVG 1.1//EN" "http://www.w3.org/Graphics/SVG/1.1/DTD/svg11.dtd">
<svg version="1.1" id="Layer_1" xmlns="http://www.w3.org/2000/svg" xmlns:xlink="http://www.w3.org/1999/xlink" x="0px" y="0px"
	 viewBox="0 0 100 100" enable-background="new 0 0 100 100" xml:space="preserve">
<g id="Logo">
	<path d="M49.4,14.012h-8.554v42.247h-1.964v-7.65h-9.73V14.012h-8.551v84.49h8.166V82.239c0-2.855-0.452-6.221-0.452-6.221h0.129
		l6.673,22.484h7.644V56.259h4.145v42.243h8.55V56.259H49.4V14.012z M34.923,79.323L28.25,56.259h6.35v16.715
		c0,2.916,0.453,6.35,0.453,6.35H34.923z"/>
	<polygon points="69.193,21.656 76.117,21.656 76.117,14.012 53.721,14.012 53.721,21.656 60.642,21.656 60.642,56.252 
		57.133,56.252 57.133,63.897 63.544,63.897 63.544,98.502 72.101,98.502 72.101,63.897 78.516,63.897 78.516,56.252 69.193,56.252 
			"/>
	<polygon points="99.777,21.656 99.777,14.012 80.438,14.012 80.438,56.252 80.438,98.502 99.777,98.502 99.777,89.807 
		88.862,89.807 88.862,79.834 98.803,79.834 98.803,72.318 88.924,72.318 88.924,63.897 99.777,63.897 99.777,53.093 88.862,53.093 
		88.862,40.812 98.803,40.812 98.803,33.298 88.924,33.298 88.924,21.656 	"/>
	<path fill="#ED1C29" d="M11.617,93.819H7.905c-1.869,0-2.984-1.363-2.984-3.424v-8.103c0-1.836,1.006-3.35,3.027-3.35
		c2.053,0,3.022,1.623,3.022,3.35v10.339h0.758c1.511,0,2.627-1.118,2.627-2.52v-8.253c0-3.601-2.375-6.731-6.406-6.731
		c-4.036,0-6.415,3.168-6.415,6.731v8.68c0,3.715,2.307,6.738,6.415,6.738h2.877v1.226H7.947c-4.759,0-7.747-3.351-7.747-8.033
		v-8.574c0-4.681,3.022-7.994,7.747-7.994c4.712,0,7.74,3.312,7.74,7.994v8.14C15.687,92.456,14.102,93.819,11.617,93.819
		 M9.637,82.33c0-1.227-0.578-2.27-1.69-2.27c-1.191,0-1.699,1.006-1.699,2.27v8.031c0,1.515,0.541,2.269,1.656,2.269h1.732V82.33z"
		/>
	<rect x="40.847" y="1.629" fill="#ED1C29" width="8.557" height="8.554"/>
</g>
</svg>
